# Blender 4.3.2
# www.blender.org
mtllib 胡椒瓶.mtl
o Cube
v -0.050908 0.007366 0.117898
v -0.064637 0.036987 0.151180
v -0.117883 0.007366 0.050923
v -0.151172 0.036988 0.064646
v -0.117883 0.007366 -0.050894
v -0.151191 0.036991 -0.064649
v -0.050908 0.007366 -0.117869
v -0.064657 0.036994 -0.151208
v 0.117884 0.007366 0.050923
v 0.151180 0.036987 0.064631
v 0.050910 0.007366 0.117898
v 0.064641 0.036988 0.151190
v 0.050910 0.007366 -0.117869
v 0.064659 0.036995 -0.151210
v 0.117884 0.007366 -0.050894
v 0.151196 0.036992 -0.064656
v -0.039605 0.309232 0.093071
v -0.093554 0.309303 0.039875
v 0.039742 0.309273 0.093374
v -0.094187 0.309409 -0.040565
v -0.040442 0.309485 -0.094919
v 0.040401 0.309491 -0.094992
v 0.093766 0.309298 0.039333
v 0.094192 0.309422 -0.040845
v -0.037576 0.309469 0.087681
v -0.036814 0.332073 0.085887
v -0.085887 0.332073 0.036814
v -0.087681 0.309469 0.037576
v 0.087681 0.309469 -0.037576
v 0.085887 0.332073 -0.036814
v 0.085887 0.332073 0.036814
v 0.087681 0.309469 0.037576
v -0.037576 0.309469 -0.087681
v -0.036814 0.332073 -0.085887
v 0.036814 0.332073 -0.085887
v 0.037576 0.309469 -0.087681
v 0.037576 0.309469 0.087681
v 0.036814 0.332073 0.085887
v -0.087681 0.309469 -0.037576
v -0.085887 0.332073 -0.036814
v 0.050184 0.415124 0.118192
v 0.043434 0.431323 0.101899
v 0.101899 0.431323 0.043434
v 0.118192 0.415124 0.050184
v 0.118192 0.415124 -0.050184
v 0.101899 0.431323 -0.043434
v 0.043434 0.431323 -0.101899
v 0.050184 0.415124 -0.118192
v -0.050184 0.415124 -0.118192
v -0.043434 0.431323 -0.101899
v -0.101899 0.431323 -0.043434
v -0.118192 0.415124 -0.050184
v -0.118192 0.415124 0.050184
v -0.101899 0.431323 0.043434
v -0.043434 0.431323 0.101899
v -0.050184 0.415124 0.118192
v -0.150440 0.118491 0.064099
v 0.150378 0.118488 0.064057
v -0.150489 0.118491 -0.064559
v 0.064200 0.118491 -0.150478
v -0.064279 0.118491 -0.150473
v 0.150427 0.118493 -0.064581
v -0.064225 0.118491 0.149914
v 0.064156 0.118491 0.149936
v -0.050355 0.347671 0.118585
v -0.043932 0.332073 0.103078
v -0.103078 0.332073 0.043932
v -0.118585 0.347671 0.050355
v 0.118585 0.347671 -0.050355
v 0.103078 0.332073 -0.043932
v 0.103078 0.332073 0.043932
v 0.118585 0.347671 0.050355
v -0.050355 0.347671 -0.118585
v -0.043932 0.332073 -0.103078
v 0.043932 0.332073 -0.103078
v 0.050355 0.347671 -0.118585
v 0.050355 0.347671 0.118585
v 0.043932 0.332073 0.103078
v -0.118585 0.347671 -0.050355
v -0.103078 0.332073 -0.043932
v -0.096566 0.254056 -0.041910
v 0.096349 0.254051 -0.041949
v 0.096313 0.254060 0.040495
v -0.096480 0.254056 0.040568
v 0.040825 0.254056 0.095117
v -0.041031 0.254056 0.095082
v -0.041124 0.254056 -0.096614
v 0.040898 0.254056 -0.096622
vn -0.3827 0.0063 -0.9239
vn -0.9239 0.0063 -0.3827
vn -0.9230 0.0470 -0.3819
vn -0.9212 0.0503 0.3858
vn -0.9196 0.0503 0.3896
vn -0.9240 0.0470 -0.3794
vn 0.3494 0.4015 0.8466
vn 0.3474 0.4015 0.8474
vn -0.3477 0.4011 0.8475
vn -0.3494 0.4011 0.8468
vn 0.9234 0.0100 -0.3836
vn 0.9238 0.0125 0.3826
vn 0.9233 0.0125 0.3838
vn 0.9240 0.0100 -0.3823
vn -0.3823 0.0373 -0.9233
vn 0.3809 0.0410 0.9237
vn 0.9215 0.0456 0.3858
vn 0.9219 0.0456 0.3848
vn 0.3783 0.0410 0.9248
vn -0.5868 -0.7723 0.2434
vn -0.2434 -0.7722 0.5869
vn -0.2430 -0.7722 0.5870
vn -0.5870 -0.7723 0.2430
vn -0.2432 -0.7726 -0.5864
vn -0.5867 -0.7725 -0.2431
vn -0.5868 -0.7725 -0.2429
vn -0.2428 -0.7726 -0.5866
vn 0.5866 -0.7725 -0.2431
vn 0.2432 -0.7727 -0.5864
vn 0.2428 -0.7727 -0.5865
vn 0.5867 -0.7725 -0.2429
vn 0.2434 -0.7723 0.5869
vn 0.5868 -0.7723 0.2434
vn 0.5870 -0.7723 0.2429
vn 0.2430 -0.7723 0.5870
vn -0.0000 -1.0000 -0.0000
vn 0.3827 0.0063 -0.9239
vn 0.9229 0.0416 -0.3827
vn 0.9235 0.0416 -0.3814
vn 0.3822 0.0157 0.9239
vn 0.3821 0.0157 0.9240
vn -0.3819 0.0427 0.9232
vn -0.3775 0.0427 0.9250
vn 0.3827 0.0063 0.9239
vn 0.9239 0.0063 0.3827
vn 0.0008 1.0000 0.0008
vn -0.0013 1.0000 0.0003
vn -0.0014 1.0000 0.0003
vn 0.0008 1.0000 0.0007
vn -0.0218 0.9997 0.0133
vn -0.0126 0.9994 0.0329
vn -0.0131 0.9994 0.0326
vn -0.0219 0.9997 0.0137
vn -0.0102 0.9999 -0.0006
vn -0.0107 0.9999 -0.0006
vn -0.3827 0.0063 0.9239
vn -0.9239 0.0063 0.3827
vn -0.3811 0.0859 0.9205
vn -0.9205 0.0859 0.3811
vn -0.9204 0.0859 0.3814
vn -0.3814 0.0859 0.9204
vn 0.9205 0.0859 -0.3811
vn 0.9205 0.0859 0.3811
vn 0.9204 0.0859 0.3814
vn 0.9204 0.0859 -0.3814
vn -0.3811 0.0859 -0.9205
vn 0.3811 0.0859 -0.9205
vn 0.3814 0.0859 -0.9204
vn -0.3814 0.0859 -0.9204
vn 0.3811 0.0859 0.9205
vn 0.3814 0.0859 0.9204
vn -0.9204 0.0859 -0.3814
vn -0.9205 0.0859 -0.3811
vn 0.0091 1.0000 -0.0001
vn 0.0099 1.0000 -0.0001
vn 0.0112 0.9994 0.0315
vn 0.0117 0.9994 0.0312
vn 0.0202 0.9997 0.0111
vn 0.0206 0.9997 0.0129
vn 0.3807 0.0348 -0.9241
vn 0.3819 0.0348 -0.9236
vn -0.9238 0.0117 0.3827
vn -0.9235 0.0092 -0.3834
vn -0.9240 0.0092 -0.3824
vn -0.9233 0.0117 0.3839
vn -0.3819 0.0153 0.9241
vn -0.3824 0.0153 0.9239
vn -0.8473 0.3970 -0.3528
vn -0.8476 0.3970 -0.3522
vn -0.3484 0.3961 -0.8495
vn -0.3509 0.3962 -0.8485
vn 0.9239 0.0063 -0.3827
vn 0.2589 0.7365 -0.6250
vn -0.2589 0.7365 -0.6250
vn 0.6250 0.7365 0.2589
vn 0.6250 0.7365 -0.2589
vn 0.2589 0.7365 0.6250
vn -0.2589 0.7365 0.6250
vn -0.6250 0.7365 0.2589
vn -0.6250 0.7365 -0.2589
vn -0.0000 1.0000 -0.0000
vn 0.3818 0.0096 -0.9242
vn 0.3826 0.0096 -0.9238
vn -0.3825 0.0093 -0.9239
vn -0.3821 0.0093 -0.9241
vn 0.8456 0.3997 0.3539
vn 0.8467 0.3997 0.3512
vn -0.8468 0.3991 0.3517
vn -0.8457 0.3991 0.3543
vn 0.3479 0.3964 -0.8496
vn 0.8471 0.3977 -0.3524
vn 0.8470 0.3977 -0.3527
vn 0.3509 0.3965 -0.8483
vn -0.6289 -0.7325 0.2605
vn -0.6289 -0.7325 -0.2605
vn 0.2605 -0.7325 -0.6289
vn 0.6289 -0.7325 -0.2605
vn -0.2605 -0.7325 -0.6289
vn 0.6289 -0.7325 0.2605
vn 0.2605 -0.7325 0.6289
vn -0.2605 -0.7325 0.6289
vt 0.873094 0.209877
vt 0.803788 0.213705
vt 0.789617 0.119421
vt 0.860254 0.107602
vt 0.651355 0.142148
vt 0.639230 0.057601
vt 0.698889 0.049678
vt 0.711485 0.133860
vt 0.565091 0.148325
vt 0.445030 0.232838
vt 0.388430 0.174668
vt 0.476329 0.057085
vt 0.320126 0.440881
vt 0.303315 0.582728
vt 0.219834 0.563648
vt 0.235318 0.444940
vt 0.722247 0.221142
vt 0.660550 0.225643
vt 0.663410 0.544095
vt 0.671111 0.473273
vt 0.726010 0.477230
vt 0.714855 0.552723
vt 0.000201 0.777257
vt 0.079144 0.725005
vt 0.108406 0.755102
vt 0.015642 0.824345
vt 0.139275 0.244071
vt 0.083971 0.170450
vt 0.112781 0.139808
vt 0.178517 0.222381
vt 0.188168 0.444666
vt 0.173292 0.343758
vt 0.221043 0.331615
vt 0.137584 0.643108
vt 0.175057 0.551359
vt 0.175907 0.665496
vt 0.013477 0.070092
vt 0.000201 0.114319
vt 0.875000 0.233969
vt 0.875000 0.000201
vt 0.941406 0.066608
vt 0.941406 0.167562
vt 0.874597 0.313976
vt 0.807719 0.311552
vt 0.672577 0.395272
vt 0.730384 0.394058
vt 0.251773 0.709397
vt 0.652256 0.614476
vt 0.699461 0.623056
vt 0.832466 0.582510
vt 0.778220 0.566576
vt 0.793131 0.488110
vt 0.852249 0.500188
vt 0.757659 0.217972
vt 0.779583 0.215837
vt 0.784098 0.311632
vt 0.766288 0.312036
vt 0.781943 0.398353
vt 0.761625 0.396961
vt 0.731620 0.312155
vt 0.731986 0.219811
vt 0.740204 0.312017
vt 0.683466 0.684286
vt 0.703896 0.624293
vt 0.688124 0.683523
vt 0.718651 0.132481
vt 0.741088 0.558055
vt 0.758807 0.561932
vt 0.739143 0.635999
vt 0.724912 0.631394
vt 0.746718 0.128493
vt 0.765737 0.124373
vt 0.771976 0.484769
vt 0.755906 0.482632
vt 0.756415 0.641993
vt 0.805522 0.661151
vt 0.775924 0.730456
vt 0.727269 0.709810
vt 0.702597 0.687425
vt 0.732202 0.478793
vt 0.737880 0.395005
vt 0.720447 0.553493
vt 0.723426 0.047066
vt 0.704754 0.050949
vt 0.738773 0.034070
vt 0.668982 0.314845
vt 0.067444 0.000201
vt 0.171239 0.086141
vt 0.066417 0.888367
vt 0.162088 0.812747
vt 0.481930 0.703669
vt 0.392023 0.588139
vt 0.445038 0.531984
vt 0.564937 0.616072
vt 0.713058 0.698110
vt 0.867268 0.408188
vt 0.804272 0.400238
vt 0.760376 0.019746
vt 0.834448 0.000201
vt 0.817239 0.981397
vt 0.714744 0.981397
vt 0.724057 0.958187
vt 0.807290 0.958654
vt 0.889537 0.810329
vt 0.886625 0.911996
vt 0.863804 0.902572
vt 0.866539 0.819319
vt 0.813361 0.760134
vt 0.729123 0.754370
vt 0.720813 0.730859
vt 0.823727 0.737536
vt 0.664568 0.809908
vt 0.668202 0.899875
vt 0.644994 0.910286
vt 0.639230 0.803777
vt 0.643581 0.796030
vt 0.386935 0.999799
vt 0.320528 0.933392
vt 0.320528 0.832438
vt 0.386935 0.766031
vt 0.487890 0.999799
vt 0.487890 0.766031
vt 0.299712 0.307535
vt 0.244488 0.184565
vt 0.619003 0.256273
vt 0.479671 0.301831
vt 0.320528 0.627842
vt 0.370420 0.765628
vt 0.639230 0.676294
vt 0.320528 0.138149
vt 0.369973 0.000201
vt 0.480721 0.458904
vt 0.492389 0.382580
vt 0.638827 0.382270
vt 0.620828 0.501599
s 1
usemtl 调味瓶类
f 49/1/1 73/2/1 79/3/2 52/4/2
f 81/5/3 84/6/4 18/7/5 20/8/6
f 64/9/7 85/10/8 86/11/9 63/12/10
f 62/13/11 58/14/12 10/15/13 16/16/14
f 81/5/3 20/8/6 21/17/15 87/18/15
f 85/19/16 83/20/17 23/21/18 19/22/19
f 3/23/20 1/24/21 2/25/22 4/26/23
f 7/27/24 5/28/25 6/29/26 8/30/27
f 15/31/28 13/32/29 14/33/30 16/16/31
f 11/34/32 9/35/33 10/15/34 12/36/35
f 4/37/23 6/29/26 5/28/25 3/38/20
f 8/30/27 14/33/30 13/32/29 7/27/24
f 16/16/31 10/15/34 9/35/33 15/31/28
f 12/36/35 2/25/22 1/24/21 11/34/32
f 3/39/36 9/40/36 11/41/36 1/42/36
f 73/2/1 49/1/1 48/43/37 76/44/37
f 83/20/17 82/45/38 24/46/39 23/21/18
f 10/15/13 58/14/12 64/47/40 12/36/41
f 86/48/42 85/19/16 19/22/19 17/49/43
f 41/50/44 77/51/44 72/52/45 44/53/45
f 34/54/36 74/55/36 75/56/36 35/57/36
f 35/57/36 75/56/36 70/58/36 30/59/36
f 22/60/46 21/17/47 33/61/48 36/62/49
f 18/63/50 17/49/51 25/64/52 28/65/53
f 21/17/47 20/8/54 39/66/55 33/61/48
f 38/67/36 78/68/36 66/69/36 26/70/36
f 40/71/36 80/72/36 74/55/36 34/54/36
f 30/59/36 70/58/36 71/73/36 31/74/36
f 65/75/56 56/76/56 53/77/57 68/78/57
f 26/70/58 27/79/59 28/65/60 25/64/61
f 30/59/62 31/74/63 32/80/64 29/81/65
f 34/54/66 35/57/67 36/62/68 33/61/69
f 38/67/70 26/70/58 25/64/61 37/82/71
f 37/82/71 32/80/64 31/74/63 38/67/70
f 33/61/69 39/66/72 40/71/73 34/54/66
f 29/81/65 36/62/68 35/57/67 30/59/62
f 27/83/59 40/71/73 39/66/72 28/84/60
f 24/46/74 22/60/46 36/62/49 29/81/75
f 31/74/36 71/73/36 78/68/36 38/67/36
f 27/83/36 67/85/36 80/72/36 40/71/36
f 17/49/51 19/22/76 37/82/77 25/64/52
f 23/21/78 24/46/74 29/81/75 32/80/79
f 19/22/76 23/21/78 32/80/79 37/82/77
f 20/8/54 18/7/50 28/84/53 39/66/55
f 24/46/39 82/45/38 88/86/80 22/60/81
f 57/87/82 59/88/83 6/29/84 4/37/85
f 57/89/82 4/26/85 2/25/86 63/90/87
f 59/91/88 81/92/89 87/93/90 61/94/91
f 26/70/36 66/69/36 67/95/36 27/79/36
f 45/96/92 69/97/92 76/44/37 48/43/37
f 77/51/44 41/50/44 56/76/56 65/75/56
f 69/97/92 45/96/92 44/53/45 72/52/45
f 68/98/57 53/99/57 52/4/2 79/3/2
f 48/100/93 49/101/94 50/102/94 47/103/93
f 44/104/95 45/105/96 46/106/96 43/107/95
f 42/108/97 55/109/98 56/110/98 41/111/97
f 54/112/99 51/113/100 52/114/100 53/115/99
f 43/107/95 42/108/97 41/111/97 44/104/95
f 47/103/93 46/106/96 45/105/96 48/100/93
f 51/113/100 50/102/94 49/101/94 52/114/100
f 55/109/98 54/112/99 53/116/99 56/110/98
f 43/107/101 54/112/101 55/109/101 42/108/101
f 51/113/101 54/112/101 43/107/101 46/106/101
f 50/102/101 51/113/101 46/106/101 47/103/101
f 5/117/36 7/118/36 13/119/36 15/120/36
f 3/121/36 5/117/36 15/120/36 9/122/36
f 60/123/102 14/33/103 8/30/104 61/124/105
f 60/123/102 62/13/11 16/16/14 14/33/103
f 58/125/106 83/126/107 85/10/8 64/9/7
f 84/127/108 81/92/89 59/91/88 57/128/109
f 84/129/4 86/48/42 17/49/43 18/63/5
f 12/36/41 64/47/40 63/90/87 2/25/86
f 84/130/108 57/131/109 63/12/10 86/11/9
f 6/29/84 59/88/83 61/124/105 8/30/104
f 88/132/110 82/133/111 62/134/112 60/135/113
f 68/98/114 79/3/115 80/72/115 67/85/114
f 76/44/116 69/97/117 70/58/117 75/56/116
f 79/3/115 73/2/118 74/55/118 80/72/115
f 72/52/119 77/51/120 78/68/120 71/73/119
f 77/51/120 65/75/121 66/69/121 78/68/120
f 73/2/118 76/44/116 75/56/116 74/55/118
f 69/97/117 72/52/119 71/73/119 70/58/117
f 65/75/121 68/78/114 67/95/114 66/69/121
f 88/132/110 60/135/113 61/94/91 87/93/90
f 82/133/111 83/126/107 58/125/106 62/134/112
f 22/60/81 88/86/80 87/18/15 21/17/15
