# Blender 4.3.2
# www.blender.org
mtllib 碗A.mtl
o 碗2
v -0.000000 0.000000 -0.164745
v 0.063045 0.000000 -0.152204
v 0.116492 0.000000 -0.116492
v 0.152204 0.000000 -0.063045
v 0.164745 0.000000 0.000000
v 0.152204 0.000000 0.063045
v 0.116492 0.000000 0.116492
v 0.063045 0.000000 0.152204
v -0.000000 0.000000 0.164745
v -0.063045 0.000000 0.152204
v -0.116492 0.000000 0.116492
v -0.152204 0.000000 0.063045
v -0.164745 0.000000 0.000000
v -0.152204 0.000000 -0.063045
v -0.116492 0.000000 -0.116492
v -0.063045 0.000000 -0.152204
v -0.000000 0.607125 -0.734135
v -0.000000 0.225375 -0.623561
v 0.238627 0.225375 -0.576095
v 0.280941 0.607125 -0.678253
v 0.440924 0.225375 -0.440924
v 0.519112 0.607125 -0.519112
v 0.576095 0.225375 -0.238627
v 0.678253 0.607125 -0.280941
v 0.623561 0.225375 0.000000
v 0.734135 0.607125 0.000000
v 0.576095 0.225375 0.238627
v 0.678253 0.607125 0.280941
v 0.440924 0.225375 0.440924
v 0.519112 0.607125 0.519112
v 0.238627 0.225375 0.576095
v 0.280941 0.607125 0.678253
v -0.000000 0.225375 0.623561
v -0.000000 0.607125 0.734135
v -0.238627 0.225375 0.576095
v -0.280941 0.607125 0.678253
v -0.440924 0.225375 0.440924
v -0.519112 0.607125 0.519112
v -0.576095 0.225375 0.238627
v -0.678253 0.607125 0.280941
v -0.623561 0.225375 0.000000
v -0.734135 0.607125 0.000000
v -0.576095 0.225375 -0.238627
v -0.678253 0.607125 -0.280941
v -0.440924 0.225375 -0.440924
v -0.519112 0.607125 -0.519112
v -0.238627 0.225375 -0.576095
v -0.280941 0.607125 -0.678253
v -0.270103 0.408182 -0.652087
v -0.000000 0.408182 -0.705814
v -0.499086 0.408182 -0.499086
v -0.652087 0.408182 -0.270103
v -0.705814 0.408182 0.000000
v -0.652087 0.408182 0.270103
v -0.499086 0.408182 0.499086
v -0.270103 0.408182 0.652087
v -0.000000 0.408182 0.705814
v 0.270103 0.408182 0.652087
v 0.499086 0.408182 0.499086
v 0.652087 0.408182 0.270103
v 0.705814 0.408182 0.000000
v 0.652087 0.408182 -0.270103
v 0.499086 0.408182 -0.499086
v 0.270103 0.408182 -0.652087
v -0.000000 0.094993 -0.456227
v 0.180774 0.095322 -0.422960
v -0.180774 0.095322 -0.422960
v 0.336733 0.096094 -0.326341
v 0.443353 0.096835 -0.177976
v 0.481358 0.097133 -0.000000
v 0.443353 0.096835 0.177976
v 0.336733 0.096094 0.326341
v 0.180774 0.095322 0.422960
v -0.000000 0.094993 0.456227
v -0.180774 0.095322 0.422960
v -0.336733 0.096094 0.326341
v -0.443353 0.096835 0.177976
v -0.481358 0.097133 -0.000000
v -0.443353 0.096835 -0.177976
v -0.336733 0.096094 -0.326341
v -0.000000 0.000000 0.000000
v -0.000000 0.000000 -0.286548
v 0.109657 0.000000 -0.264736
v 0.202620 0.000000 -0.202620
v 0.264736 0.000000 -0.109657
v 0.286548 0.000000 -0.000000
v 0.264736 0.000000 0.109657
v 0.202620 0.000000 0.202620
v 0.109657 0.000000 0.264736
v -0.000000 0.000000 0.286548
v -0.109657 0.000000 0.264736
v -0.202620 0.000000 0.202620
v -0.264736 0.000000 0.109657
v -0.286548 0.000000 -0.000000
v -0.264736 0.000000 -0.109657
v -0.202620 0.000000 -0.202620
v -0.109657 0.000000 -0.264736
v -0.000000 0.062000 -0.150834
v 0.057722 0.062000 -0.139353
v 0.106656 0.062000 -0.106656
v 0.139353 0.062000 -0.057722
v 0.150834 0.062000 0.000000
v 0.139353 0.062000 0.057722
v 0.106656 0.062000 0.106656
v 0.057722 0.062000 0.139353
v -0.000000 0.062000 0.150834
v -0.057722 0.062000 0.139353
v -0.106656 0.062000 0.106656
v -0.139353 0.062000 0.057722
v -0.150834 0.062000 0.000000
v -0.139353 0.062000 -0.057722
v -0.106656 0.062000 -0.106656
v -0.057722 0.062000 -0.139353
v -0.000000 0.607125 -0.671575
v -0.000000 0.264281 -0.571985
v 0.219031 0.264047 -0.528276
v 0.257001 0.607125 -0.620455
v 0.404401 0.263453 -0.403996
v 0.474875 0.607125 -0.474875
v 0.527927 0.262815 -0.218447
v 0.620455 0.607125 -0.257001
v 0.571211 0.262537 0.000000
v 0.671575 0.607125 0.000000
v 0.527927 0.262815 0.218448
v 0.620455 0.607125 0.257001
v 0.404401 0.263453 0.403996
v 0.474875 0.607125 0.474875
v 0.219031 0.264047 0.528276
v 0.257001 0.607125 0.620455
v -0.000000 0.264281 0.571985
v -0.000000 0.607125 0.671575
v -0.219031 0.264047 0.528276
v -0.257001 0.607125 0.620455
v -0.404401 0.263453 0.403996
v -0.474875 0.607125 0.474875
v -0.527927 0.262815 0.218448
v -0.620455 0.607125 0.257001
v -0.571211 0.262537 0.000000
v -0.671575 0.607125 0.000000
v -0.527927 0.262815 -0.218447
v -0.620455 0.607125 -0.257001
v -0.404401 0.263453 -0.403996
v -0.474875 0.607125 -0.474875
v -0.219031 0.264047 -0.528276
v -0.257001 0.607125 -0.620455
v -0.246647 0.425633 -0.595458
v -0.000000 0.425633 -0.644520
v -0.455744 0.425633 -0.455744
v -0.595458 0.425633 -0.246647
v -0.644520 0.425633 0.000000
v -0.595458 0.425633 0.246647
v -0.455744 0.425633 0.455744
v -0.246647 0.425633 0.595458
v -0.000000 0.425633 0.644520
v 0.246647 0.425633 0.595458
v 0.455744 0.425633 0.455744
v 0.595458 0.425633 0.246647
v 0.644520 0.425633 0.000000
v 0.595458 0.425633 -0.246647
v 0.455744 0.425633 -0.455744
v 0.246647 0.425633 -0.595458
v -0.000000 0.146809 -0.421197
v 0.167544 0.147118 -0.390396
v -0.167544 0.147118 -0.390396
v 0.311864 0.147819 -0.301010
v 0.410243 0.148458 -0.164018
v 0.445221 0.148705 -0.000000
v 0.410243 0.148458 0.164018
v 0.311864 0.147819 0.301010
v 0.167544 0.147118 0.390396
v -0.000000 0.146809 0.421197
v -0.167544 0.147118 0.390396
v -0.311864 0.147819 0.301010
v -0.410243 0.148458 0.164018
v -0.445221 0.148705 -0.000000
v -0.410243 0.148458 -0.164018
v -0.311864 0.147819 -0.301010
v -0.000000 0.062000 0.000000
v -0.000000 0.061692 -0.268523
v 0.103134 0.061702 -0.248197
v 0.190753 0.061726 -0.190172
v 0.249474 0.061750 -0.103034
v 0.270138 0.061759 -0.000000
v 0.249474 0.061750 0.103034
v 0.190753 0.061726 0.190172
v 0.103134 0.061702 0.248197
v -0.000000 0.061692 0.268523
v -0.103134 0.061702 0.248197
v -0.190753 0.061726 0.190172
v -0.249474 0.061750 0.103034
v -0.270138 0.061759 -0.000000
v -0.249474 0.061750 -0.103034
v -0.190753 0.061726 -0.190172
v -0.103134 0.061702 -0.248197
vn -0.2114 -0.8275 -0.5202
vn -0.3036 -0.5991 -0.7409
vn -0.0000 -0.6022 -0.7983
vn -0.0000 -0.8284 -0.5601
vn 0.3964 -0.8245 -0.4038
vn 0.5671 -0.5912 -0.5734
vn 0.7496 -0.5826 -0.3140
vn 0.5264 -0.8208 -0.2219
vn 0.8154 -0.5789 -0.0000
vn 0.5738 -0.8190 -0.0000
vn 0.7496 -0.5826 0.3140
vn 0.5264 -0.8208 0.2219
vn 0.5671 -0.5912 0.5734
vn 0.3964 -0.8245 0.4038
vn 0.3036 -0.5991 0.7409
vn 0.2114 -0.8275 0.5202
vn -0.0000 -0.6022 0.7983
vn -0.0000 -0.8284 0.5601
vn -0.3036 -0.5991 0.7409
vn -0.2114 -0.8275 0.5202
vn -0.5671 -0.5912 0.5734
vn -0.3964 -0.8245 0.4038
vn -0.7496 -0.5826 0.3140
vn -0.5264 -0.8208 0.2219
vn -0.8154 -0.5789 -0.0000
vn -0.5738 -0.8190 -0.0000
vn -0.7496 -0.5826 -0.3140
vn -0.5264 -0.8208 -0.2219
vn -0.5671 -0.5912 -0.5734
vn -0.3964 -0.8245 -0.4038
vn 0.3036 -0.5991 -0.7409
vn 0.2114 -0.8275 -0.5202
vn -0.0000 -1.0000 -0.0000
vn -0.3681 -0.2738 -0.8886
vn -0.0000 -0.2738 -0.9618
vn -0.6801 -0.2738 -0.6801
vn -0.8886 -0.2738 -0.3681
vn -0.9618 -0.2738 -0.0000
vn -0.8886 -0.2738 0.3681
vn -0.6801 -0.2738 0.6801
vn -0.3681 -0.2738 0.8886
vn -0.0000 -0.2738 0.9618
vn 0.3681 -0.2738 0.8886
vn 0.6801 -0.2738 0.6801
vn 0.8886 -0.2738 0.3681
vn 0.9618 -0.2738 -0.0000
vn 0.8886 -0.2738 -0.3681
vn 0.6801 -0.2738 -0.6801
vn 0.3681 -0.2738 -0.8886
vn -0.0000 -0.1409 -0.9900
vn 0.3789 -0.1409 -0.9147
vn 0.7000 -0.1409 -0.7000
vn 0.9147 -0.1409 -0.3789
vn 0.9900 -0.1409 -0.0000
vn 0.9147 -0.1409 0.3789
vn 0.7000 -0.1409 0.7000
vn 0.3789 -0.1409 0.9147
vn -0.0000 -0.1409 0.9900
vn -0.3789 -0.1409 0.9147
vn -0.7000 -0.1409 0.7000
vn -0.9147 -0.1409 0.3789
vn -0.9900 -0.1409 -0.0000
vn -0.9147 -0.1409 -0.3789
vn -0.7000 -0.1409 -0.7000
vn -0.3789 -0.1409 -0.9147
vn 0.1764 -0.8768 -0.4473
vn 0.3222 -0.8843 -0.3379
vn -0.0000 -0.8735 -0.4868
vn -0.3222 -0.8843 -0.3379
vn -0.1764 -0.8768 -0.4473
vn -0.4157 -0.8914 -0.1804
vn -0.4476 -0.8942 -0.0000
vn -0.4157 -0.8914 0.1804
vn -0.3222 -0.8843 0.3379
vn -0.1764 -0.8768 0.4473
vn -0.0000 -0.8735 0.4868
vn 0.1764 -0.8768 0.4473
vn 0.3222 -0.8843 0.3379
vn 0.4157 -0.8914 0.1804
vn 0.4476 -0.8942 -0.0000
vn 0.4157 -0.8914 -0.1804
vn 0.2109 0.8279 0.5198
vn -0.0000 0.8289 0.5594
vn -0.0000 0.6020 0.7985
vn 0.3035 0.5989 0.7411
vn -0.3959 0.8248 0.4037
vn -0.5261 0.8209 0.2220
vn -0.7498 0.5823 0.3143
vn -0.5671 0.5910 0.5737
vn -0.5736 0.8191 -0.0000
vn -0.8157 0.5784 -0.0000
vn -0.5261 0.8209 -0.2220
vn -0.7498 0.5823 -0.3143
vn -0.3959 0.8248 -0.4037
vn -0.5671 0.5910 -0.5737
vn -0.2109 0.8279 -0.5198
vn -0.3035 0.5989 -0.7411
vn -0.0000 0.8289 -0.5594
vn -0.0000 0.6020 -0.7985
vn 0.2109 0.8279 -0.5198
vn 0.3035 0.5989 -0.7411
vn 0.3959 0.8248 -0.4037
vn 0.5671 0.5910 -0.5737
vn 0.5261 0.8209 -0.2220
vn 0.7498 0.5823 -0.3143
vn 0.5736 0.8191 -0.0000
vn 0.8157 0.5784 -0.0000
vn 0.5261 0.8209 0.2220
vn 0.7498 0.5823 0.3143
vn 0.3959 0.8248 0.4037
vn 0.5671 0.5910 0.5737
vn -0.2109 0.8279 0.5198
vn -0.3035 0.5989 0.7411
vn -0.0000 1.0000 -0.0000
vn 0.0009 1.0000 0.0010
vn 0.0011 1.0000 0.0005
vn 0.0012 1.0000 -0.0000
vn 0.3677 0.2769 0.8878
vn -0.0000 0.2769 0.9609
vn 0.6795 0.2769 0.6795
vn 0.8878 0.2768 0.3677
vn 0.9609 0.2768 -0.0000
vn 0.8878 0.2768 -0.3677
vn 0.6795 0.2769 -0.6795
vn 0.3677 0.2769 -0.8878
vn -0.0000 0.2769 -0.9609
vn -0.3677 0.2769 -0.8878
vn -0.6795 0.2769 -0.6795
vn -0.8878 0.2768 -0.3677
vn -0.9609 0.2768 -0.0000
vn -0.8878 0.2768 0.3677
vn -0.6795 0.2769 0.6795
vn -0.3677 0.2769 0.8878
vn -0.0000 0.1474 0.9891
vn -0.3785 0.1474 0.9138
vn -0.6994 0.1474 0.6994
vn -0.9138 0.1474 0.3785
vn -0.9891 0.1474 -0.0000
vn -0.9138 0.1474 -0.3785
vn -0.6994 0.1474 -0.6994
vn -0.3785 0.1474 -0.9138
vn -0.0000 0.1474 -0.9891
vn 0.3785 0.1474 -0.9138
vn 0.6994 0.1474 -0.6994
vn 0.9138 0.1474 -0.3785
vn 0.9891 0.1474 -0.0000
vn 0.9138 0.1474 0.3785
vn 0.6994 0.1474 0.6994
vn 0.3785 0.1474 0.9138
vn -0.1752 0.8775 0.4464
vn -0.3204 0.8851 0.3376
vn -0.0000 0.8743 0.4854
vn 0.3204 0.8851 0.3376
vn 0.1752 0.8775 0.4464
vn 0.4141 0.8922 0.1805
vn 0.4461 0.8950 -0.0000
vn 0.4141 0.8922 -0.1805
vn 0.3204 0.8851 -0.3376
vn 0.1752 0.8775 -0.4464
vn -0.0000 0.8743 -0.4854
vn -0.1752 0.8775 -0.4464
vn -0.3204 0.8851 -0.3376
vn -0.4141 0.8922 -0.1805
vn -0.4461 0.8950 -0.0000
vn -0.4141 0.8922 0.1805
vn -0.0009 1.0000 0.0010
vn -0.0005 1.0000 0.0013
vn -0.0000 1.0000 0.0015
vn -0.0009 1.0000 -0.0010
vn -0.0011 1.0000 -0.0005
vn -0.0012 1.0000 -0.0000
vn 0.0011 1.0000 -0.0005
vn 0.0009 1.0000 -0.0010
vn -0.0005 1.0000 -0.0013
vn -0.0000 1.0000 -0.0015
vn 0.0005 1.0000 0.0013
vn -0.0011 1.0000 0.0005
vn 0.0005 1.0000 -0.0013
vn 0.0008 1.0000 -0.0024
vn -0.0000 1.0000 -0.0026
vn 0.0015 1.0000 -0.0018
vn 0.0019 1.0000 -0.0009
vn 0.0020 1.0000 -0.0000
vn 0.0019 1.0000 0.0009
vn 0.0015 1.0000 0.0018
vn 0.0008 1.0000 0.0024
vn -0.0000 1.0000 0.0026
vn -0.0008 1.0000 0.0024
vn -0.0015 1.0000 0.0018
vn -0.0019 1.0000 0.0009
vn -0.0020 1.0000 -0.0000
vn -0.0019 1.0000 -0.0009
vn -0.0015 1.0000 -0.0018
vn -0.0008 1.0000 -0.0024
vt 0.711210 0.267301
vt 0.753377 0.228692
vt 0.794193 0.277017
vt 0.743225 0.310736
vt 0.205258 0.422032
vt 0.134805 0.415344
vt 0.160698 0.343395
vt 0.214967 0.362250
vt 0.192221 0.286374
vt 0.236013 0.312701
vt 0.228733 0.238013
vt 0.266075 0.271874
vt 0.270946 0.197319
vt 0.302618 0.238160
vt 0.318608 0.164614
vt 0.344239 0.211295
vt 0.370146 0.139897
vt 0.389194 0.191283
vt 0.425360 0.124674
vt 0.436370 0.177209
vt 0.483191 0.118362
vt 0.485744 0.170418
vt 0.541893 0.122282
vt 0.535689 0.171958
vt 0.599762 0.135295
vt 0.584803 0.182195
vt 0.655165 0.157424
vt 0.631103 0.202467
vt 0.706872 0.188566
vt 0.673536 0.230992
vt 0.828043 0.336310
vt 0.768853 0.361361
vt 0.078767 0.078768
vt 0.116587 0.053496
vt 0.123379 0.069893
vt 0.123379 0.087641
vt 0.854969 0.411982
vt 0.783460 0.422032
vt 0.789831 0.192171
vt 0.837710 0.246039
vt 0.735532 0.147145
vt 0.676475 0.112692
vt 0.614314 0.088229
vt 0.548871 0.073860
vt 0.481782 0.069969
vt 0.416550 0.077646
vt 0.354236 0.095285
vt 0.294956 0.123054
vt 0.240219 0.160369
vt 0.192241 0.205746
vt 0.150076 0.257850
vt 0.111113 0.317968
vt 0.071280 0.391556
vt 0.880296 0.309447
vt 0.921672 0.386839
vt 0.880160 0.210246
vt 0.928097 0.275643
vt 0.983298 0.351676
vt 0.014250 0.356066
vt 0.064643 0.288744
vt 0.108345 0.227750
vt 0.154569 0.172661
vt 0.207398 0.122232
vt 0.269083 0.079595
vt 0.335802 0.048535
vt 0.405029 0.028787
vt 0.478368 0.019123
vt 0.554775 0.022454
vt 0.628344 0.038510
vt 0.697337 0.065210
vt 0.764076 0.102482
vt 0.826266 0.151976
vt 0.703171 0.378701
vt 0.708504 0.418367
vt 0.688455 0.342259
vt 0.634202 0.285225
vt 0.664160 0.311227
vt 0.599982 0.264962
vt 0.562453 0.251041
vt 0.524049 0.240173
vt 0.484956 0.236102
vt 0.446289 0.238466
vt 0.409301 0.246698
vt 0.375805 0.263948
vt 0.345199 0.286611
vt 0.318917 0.314301
vt 0.298282 0.346683
vt 0.282589 0.382217
vt 0.277658 0.421161
vt 0.104038 0.116588
vt 0.087641 0.123380
vt 0.069893 0.123380
vt 0.034154 0.069894
vt 0.040946 0.104039
vt 0.034154 0.087642
vt 0.087641 0.034155
vt 0.104038 0.040947
vt 0.040946 0.053497
vt 0.053496 0.040947
vt 0.116587 0.104038
vt 0.053496 0.116588
vt 0.069893 0.034155
vt 0.034812 0.012984
vt 0.063332 0.001171
vt 0.094202 0.001171
vt 0.122722 0.012984
vt 0.144550 0.034813
vt 0.156363 0.063333
vt 0.156363 0.094202
vt 0.144550 0.122722
vt 0.122722 0.144551
vt 0.094202 0.156364
vt 0.063332 0.156364
vt 0.034812 0.144551
vt 0.012984 0.122722
vt 0.001170 0.094202
vt 0.001170 0.063333
vt 0.012984 0.034813
vt 0.504169 0.574299
vt 0.517069 0.528382
vt 0.569592 0.537803
vt 0.550935 0.593828
vt 0.160316 0.433363
vt 0.145279 0.479591
vt 0.099275 0.472426
vt 0.111014 0.411447
vt 0.143707 0.524570
vt 0.100878 0.529362
vt 0.153979 0.567059
vt 0.113373 0.583110
vt 0.174667 0.605591
vt 0.137628 0.632155
vt 0.204229 0.638429
vt 0.172546 0.674250
vt 0.240664 0.664054
vt 0.216540 0.707279
vt 0.281901 0.681451
vt 0.267971 0.727772
vt 0.326123 0.689259
vt 0.323071 0.735590
vt 0.370704 0.686461
vt 0.378713 0.730420
vt 0.413077 0.672739
vt 0.431667 0.712057
vt 0.450750 0.648408
vt 0.479925 0.682888
vt 0.481660 0.615004
vt 0.520463 0.642835
vt 0.519193 0.479272
vt 0.573188 0.476373
vt 0.882804 0.073919
vt 0.906002 0.039332
vt 0.917472 0.050842
vt 0.923664 0.065866
vt 0.507871 0.428782
vt 0.561580 0.410292
vt 0.594306 0.613600
vt 0.616947 0.547850
vt 0.557848 0.671756
vt 0.509474 0.719577
vt 0.451674 0.754900
vt 0.387730 0.776432
vt 0.320982 0.781374
vt 0.255265 0.771494
vt 0.194521 0.746198
vt 0.142170 0.707328
vt 0.100349 0.657443
vt 0.071000 0.599344
vt 0.055015 0.535686
vt 0.051767 0.469060
vt 0.060700 0.399797
vt 0.624454 0.476016
vt 0.617574 0.398227
vt 0.670502 0.560826
vt 0.681491 0.478100
vt 0.677442 0.392634
vt 0.008118 0.392678
vt 0.001174 0.467938
vt 0.004994 0.542889
vt 0.023377 0.616656
vt 0.057608 0.685044
vt 0.106716 0.744175
vt 0.168510 0.790690
vt 0.240416 0.821689
vt 0.319084 0.835012
vt 0.398204 0.826991
vt 0.473302 0.802819
vt 0.541690 0.761736
vt 0.599178 0.705708
vt 0.642747 0.637629
vt 0.465463 0.488290
vt 0.455928 0.456597
vt 0.465743 0.521026
vt 0.439405 0.580415
vt 0.456319 0.552350
vt 0.416208 0.603564
vt 0.388036 0.620465
vt 0.357418 0.631987
vt 0.325354 0.635806
vt 0.293647 0.632012
vt 0.264153 0.621135
vt 0.239175 0.602440
vt 0.219220 0.578336
vt 0.205628 0.550158
vt 0.199438 0.519421
vt 0.200046 0.487933
vt 0.210227 0.458056
vt 0.848218 0.050721
vt 0.859728 0.039251
vt 0.874751 0.033059
vt 0.859606 0.108505
vt 0.848136 0.096995
vt 0.841944 0.081972
vt 0.923635 0.082115
vt 0.917391 0.097117
vt 0.874608 0.114750
vt 0.890857 0.114778
vt 0.891001 0.033087
vt 0.841973 0.065722
vt 0.905880 0.108586
vt 0.923993 0.135647
vt 0.897141 0.146659
vt 0.944631 0.115250
vt 0.955886 0.088510
vt 0.955982 0.059496
vt 0.944884 0.032688
vt 0.924324 0.012218
vt 0.897491 0.001178
vt 0.868468 0.001178
vt 0.841615 0.012190
vt 0.820978 0.032587
vt 0.809723 0.059327
vt 0.809626 0.088341
vt 0.820725 0.115149
vt 0.841284 0.135619
vt 0.868117 0.146659
vt 0.839847 0.137407
vt 0.893960 0.198830
vt 0.774519 0.087136
vt 0.705094 0.049095
vt 0.633321 0.022438
vt 0.557306 0.003488
vt 0.477737 0.001180
vt 0.401681 0.011733
vt 0.330211 0.033105
vt 0.259840 0.063324
vt 0.196397 0.108484
vt 0.142198 0.160819
vt 0.095548 0.217602
vt 0.049864 0.277769
vt 0.001517 0.341764
vt 0.944048 0.263762
vt 0.998506 0.334913
s 1
usemtl 碗
f 67/1/1 47/2/2 18/3/3 65/4/4
f 68/5/5 21/6/6 23/7/7 69/8/8
f 69/8/8 23/7/7 25/9/9 70/10/10
f 70/10/10 25/9/9 27/11/11 71/12/12
f 71/12/12 27/11/11 29/13/13 72/14/14
f 72/14/14 29/13/13 31/15/15 73/16/16
f 73/16/16 31/15/15 33/17/17 74/18/18
f 74/18/18 33/17/17 35/19/19 75/20/20
f 75/20/20 35/19/19 37/21/21 76/22/22
f 76/22/22 37/21/21 39/23/23 77/24/24
f 77/24/24 39/23/23 41/25/25 78/26/26
f 78/26/26 41/25/25 43/27/27 79/28/28
f 79/28/28 43/27/27 45/29/29 80/30/30
f 80/30/30 45/29/29 47/2/2 67/1/1
f 65/4/4 18/3/3 19/31/31 66/32/32
f 81/33/33 5/34/33 6/35/33 7/36/33
f 66/32/32 19/31/31 21/37/6 68/38/5
f 49/39/34 50/40/35 18/3/3 47/2/2
f 51/41/36 49/39/34 47/2/2 45/29/29
f 52/42/37 51/41/36 45/29/29 43/27/27
f 53/43/38 52/42/37 43/27/27 41/25/25
f 54/44/39 53/43/38 41/25/25 39/23/23
f 55/45/40 54/44/39 39/23/23 37/21/21
f 56/46/41 55/45/40 37/21/21 35/19/19
f 57/47/42 56/46/41 35/19/19 33/17/17
f 58/48/43 57/47/42 33/17/17 31/15/15
f 59/49/44 58/48/43 31/15/15 29/13/13
f 60/50/45 59/49/44 29/13/13 27/11/11
f 61/51/46 60/50/45 27/11/11 25/9/9
f 62/52/47 61/51/46 25/9/9 23/7/7
f 63/53/48 62/52/47 23/7/7 21/6/6
f 64/54/49 63/55/48 21/37/6 19/31/31
f 50/40/35 64/54/49 19/31/31 18/3/3
f 17/56/50 20/57/51 64/54/49 50/40/35
f 20/57/51 22/58/52 63/55/48 64/54/49
f 22/59/52 24/60/53 62/52/47 63/53/48
f 24/60/53 26/61/54 61/51/46 62/52/47
f 26/61/54 28/62/55 60/50/45 61/51/46
f 28/62/55 30/63/56 59/49/44 60/50/45
f 30/63/56 32/64/57 58/48/43 59/49/44
f 32/64/57 34/65/58 57/47/42 58/48/43
f 34/65/58 36/66/59 56/46/41 57/47/42
f 36/66/59 38/67/60 55/45/40 56/46/41
f 38/67/60 40/68/61 54/44/39 55/45/40
f 40/68/61 42/69/62 53/43/38 54/44/39
f 42/69/62 44/70/63 52/42/37 53/43/38
f 44/70/63 46/71/64 51/41/36 52/42/37
f 46/71/64 48/72/65 49/39/34 51/41/36
f 48/72/65 17/56/50 50/40/35 49/39/34
f 83/73/66 66/32/32 68/38/5 84/74/67
f 82/75/68 65/4/4 66/32/32 83/73/66
f 96/76/69 80/30/30 67/1/1 97/77/70
f 95/78/71 79/28/28 80/30/30 96/76/69
f 94/79/72 78/26/26 79/28/28 95/78/71
f 93/80/73 77/24/24 78/26/26 94/79/72
f 92/81/74 76/22/22 77/24/24 93/80/73
f 91/82/75 75/20/20 76/22/22 92/81/74
f 90/83/76 74/18/18 75/20/20 91/82/75
f 89/84/77 73/16/16 74/18/18 90/83/76
f 88/85/78 72/14/14 73/16/16 89/84/77
f 87/86/79 71/12/12 72/14/14 88/85/78
f 86/87/80 70/10/10 71/12/12 87/86/79
f 85/88/81 69/8/8 70/10/10 86/87/80
f 84/89/67 68/5/5 69/8/8 85/88/81
f 97/77/70 67/1/1 65/4/4 82/75/68
f 81/33/33 9/90/33 10/91/33 11/92/33
f 15/93/33 81/33/33 13/94/33 14/95/33
f 81/33/33 3/96/33 4/97/33 5/34/33
f 16/98/33 1/99/33 81/33/33 15/93/33
f 9/90/33 81/33/33 7/36/33 8/100/33
f 13/94/33 81/33/33 11/92/33 12/101/33
f 1/99/33 2/102/33 3/96/33 81/33/33
f 2/102/33 1/99/33 82/103/33 83/104/33
f 3/96/33 2/102/33 83/104/33 84/105/33
f 4/97/33 3/96/33 84/105/33 85/106/33
f 5/34/33 4/97/33 85/106/33 86/107/33
f 6/35/33 5/34/33 86/107/33 87/108/33
f 7/36/33 6/35/33 87/108/33 88/109/33
f 8/100/33 7/36/33 88/109/33 89/110/33
f 9/90/33 8/100/33 89/110/33 90/111/33
f 10/91/33 9/90/33 90/111/33 91/112/33
f 11/92/33 10/91/33 91/112/33 92/113/33
f 12/101/33 11/92/33 92/113/33 93/114/33
f 13/94/33 12/101/33 93/114/33 94/115/33
f 14/95/33 13/94/33 94/115/33 95/116/33
f 15/93/33 14/95/33 95/116/33 96/117/33
f 16/98/33 15/93/33 96/117/33 97/118/33
f 1/99/33 16/98/33 97/118/33 82/103/33
f 164/119/82 162/120/83 115/121/84 144/122/85
f 165/123/86 166/124/87 120/125/88 118/126/89
f 166/124/87 167/127/90 122/128/91 120/125/88
f 167/127/90 168/129/92 124/130/93 122/128/91
f 168/129/92 169/131/94 126/132/95 124/130/93
f 169/131/94 170/133/96 128/134/97 126/132/95
f 170/133/96 171/135/98 130/136/99 128/134/97
f 171/135/98 172/137/100 132/138/101 130/136/99
f 172/137/100 173/139/102 134/140/103 132/138/101
f 173/139/102 174/141/104 136/142/105 134/140/103
f 174/141/104 175/143/106 138/144/107 136/142/105
f 175/143/106 176/145/108 140/146/109 138/144/107
f 176/145/108 177/147/110 142/148/111 140/146/109
f 177/147/110 164/119/82 144/122/85 142/148/111
f 162/120/83 163/149/112 116/150/113 115/121/84
f 178/151/114 104/152/115 103/153/116 102/154/117
f 163/149/112 165/155/86 118/156/89 116/150/113
f 146/157/118 144/122/85 115/121/84 147/158/119
f 148/159/120 142/148/111 144/122/85 146/157/118
f 149/160/121 140/146/109 142/148/111 148/159/120
f 150/161/122 138/144/107 140/146/109 149/160/121
f 151/162/123 136/142/105 138/144/107 150/161/122
f 152/163/124 134/140/103 136/142/105 151/162/123
f 153/164/125 132/138/101 134/140/103 152/163/124
f 154/165/126 130/136/99 132/138/101 153/164/125
f 155/166/127 128/134/97 130/136/99 154/165/126
f 156/167/128 126/132/95 128/134/97 155/166/127
f 157/168/129 124/130/93 126/132/95 156/167/128
f 158/169/130 122/128/91 124/130/93 157/168/129
f 159/170/131 120/125/88 122/128/91 158/169/130
f 160/171/132 118/126/89 120/125/88 159/170/131
f 161/172/133 116/150/113 118/156/89 160/173/132
f 147/158/119 115/121/84 116/150/113 161/172/133
f 114/174/134 147/158/119 161/172/133 117/175/135
f 117/175/135 161/172/133 160/173/132 119/176/136
f 119/177/136 160/171/132 159/170/131 121/178/137
f 121/178/137 159/170/131 158/169/130 123/179/138
f 123/179/138 158/169/130 157/168/129 125/180/139
f 125/180/139 157/168/129 156/167/128 127/181/140
f 127/181/140 156/167/128 155/166/127 129/182/141
f 129/182/141 155/166/127 154/165/126 131/183/142
f 131/183/142 154/165/126 153/164/125 133/184/143
f 133/184/143 153/164/125 152/163/124 135/185/144
f 135/185/144 152/163/124 151/162/123 137/186/145
f 137/186/145 151/162/123 150/161/122 139/187/146
f 139/187/146 150/161/122 149/160/121 141/188/147
f 141/188/147 149/160/121 148/159/120 143/189/148
f 143/189/148 148/159/120 146/157/118 145/190/149
f 145/190/149 146/157/118 147/158/119 114/174/134
f 180/191/150 181/192/151 165/155/86 163/149/112
f 179/193/152 180/191/150 163/149/112 162/120/83
f 193/194/153 194/195/154 164/119/82 177/147/110
f 192/196/155 193/194/153 177/147/110 176/145/108
f 191/197/156 192/196/155 176/145/108 175/143/106
f 190/198/157 191/197/156 175/143/106 174/141/104
f 189/199/158 190/198/157 174/141/104 173/139/102
f 188/200/159 189/199/158 173/139/102 172/137/100
f 187/201/160 188/200/159 172/137/100 171/135/98
f 186/202/161 187/201/160 171/135/98 170/133/96
f 185/203/162 186/202/161 170/133/96 169/131/94
f 184/204/163 185/203/162 169/131/94 168/129/92
f 183/205/164 184/204/163 168/129/92 167/127/90
f 182/206/165 183/205/164 167/127/90 166/124/87
f 181/207/151 182/206/165 166/124/87 165/123/86
f 194/195/154 179/193/152 162/120/83 164/119/82
f 178/151/114 108/208/166 107/209/167 106/210/168
f 112/211/169 111/212/170 110/213/171 178/151/114
f 178/151/114 102/154/117 101/214/172 100/215/173
f 113/216/174 112/211/169 178/151/114 98/217/175
f 106/210/168 105/218/176 104/152/115 178/151/114
f 110/213/171 109/219/177 108/208/166 178/151/114
f 98/217/175 178/151/114 100/215/173 99/220/178
f 99/220/178 180/221/179 179/222/180 98/217/175
f 100/215/173 181/223/181 180/221/179 99/220/178
f 101/214/172 182/224/182 181/223/181 100/215/173
f 102/154/117 183/225/183 182/224/182 101/214/172
f 103/153/116 184/226/184 183/225/183 102/154/117
f 104/152/115 185/227/185 184/226/184 103/153/116
f 105/218/176 186/228/186 185/227/185 104/152/115
f 106/210/168 187/229/187 186/228/186 105/218/176
f 107/209/167 188/230/188 187/229/187 106/210/168
f 108/208/166 189/231/189 188/230/188 107/209/167
f 109/219/177 190/232/190 189/231/189 108/208/166
f 110/213/171 191/233/191 190/232/190 109/219/177
f 111/212/170 192/234/192 191/233/191 110/213/171
f 112/211/169 193/235/193 192/234/192 111/212/170
f 113/216/174 194/236/194 193/235/193 112/211/169
f 98/217/175 179/222/180 194/236/194 113/216/174
f 17/56/114 48/72/114 145/237/114 114/238/114
f 48/72/114 46/71/114 143/239/114 145/237/114
f 46/71/114 44/70/114 141/240/114 143/239/114
f 44/70/114 42/69/114 139/241/114 141/240/114
f 42/69/114 40/68/114 137/242/114 139/241/114
f 40/68/114 38/67/114 135/243/114 137/242/114
f 38/67/114 36/66/114 133/244/114 135/243/114
f 36/66/114 34/65/114 131/245/114 133/244/114
f 34/65/114 32/64/114 129/246/114 131/245/114
f 32/64/114 30/63/114 127/247/114 129/246/114
f 30/63/114 28/62/114 125/248/114 127/247/114
f 28/62/114 26/61/114 123/249/114 125/248/114
f 26/61/114 24/60/114 121/250/114 123/249/114
f 24/60/114 22/59/114 119/251/114 121/250/114
f 22/58/114 20/57/114 117/252/114 119/253/114
f 20/57/114 17/56/114 114/238/114 117/252/114
