# Blender 4.3.2
# www.blender.org
mtllib 黄瓜A.mtl
o Circle
v -0.001665 0.386744 1.053222
v -0.138626 0.483601 0.890141
v -0.000000 0.540014 0.884633
v -0.195978 0.347463 0.903463
v -0.138531 0.211387 0.916760
v -0.000000 0.155043 0.922246
v 0.138531 0.211387 0.916760
v 0.195978 0.347463 0.903463
v 0.138626 0.483601 0.890141
v -0.112453 0.480077 0.970929
v -0.000000 0.525730 0.966235
v -0.159016 0.369597 0.982300
v -0.112431 0.259365 0.993673
v -0.000000 0.213968 0.998387
v 0.112430 0.259365 0.993673
v 0.159016 0.369597 0.982300
v 0.112453 0.480077 0.970929
v -0.070414 0.453910 1.032171
v -0.000000 0.420286 1.050100
v -0.035166 0.386137 1.052897
v -0.070412 0.316000 1.046695
v -0.000000 0.353251 1.056013
v 0.070412 0.316000 1.046695
v 0.035166 0.386137 1.052897
v 0.070414 0.453910 1.032171
v -0.142110 0.405652 0.609059
v -0.133829 0.337646 0.296669
v -0.000000 0.424340 0.452700
v -0.137270 0.095410 0.466330
v -0.189101 0.204421 0.299640
v -0.200771 0.265424 0.617637
v 0.200770 0.265424 0.617637
v 0.189101 0.204421 0.299640
v 0.137270 0.095410 0.466330
v -0.000000 0.039111 0.468614
v 0.133829 0.337646 0.296669
v 0.142110 0.405652 0.609059
v -0.000000 0.067548 0.629579
v -0.000000 0.016371 0.303716
v 0.137526 0.367805 0.455079
v 0.194308 0.231489 0.460753
v 0.133604 0.071408 0.302536
v 0.141824 0.125452 0.626104
v -0.194308 0.231489 0.460753
v -0.133604 0.071408 0.302536
v -0.141825 0.125452 0.626104
v -0.000000 0.463812 0.605472
v -0.000000 0.392895 0.295416
v -0.137526 0.367805 0.455079
v -0.132193 0.319016 -0.055573
v -0.186887 0.186792 -0.056045
v 0.186887 0.186792 -0.056045
v 0.132193 0.319016 -0.055573
v -0.000000 0.000000 -0.056878
v 0.132094 0.054693 -0.056649
v -0.132094 0.054693 -0.056649
v -0.000000 0.373812 -0.055472
v 0.000000 0.357661 -1.045306
v -0.087692 0.428401 -0.972633
v 0.000000 0.464124 -0.970230
v -0.124015 0.341884 -0.978428
v -0.087692 0.255606 -0.984211
v 0.000000 0.220118 -0.986603
v 0.087692 0.255606 -0.984211
v 0.124015 0.341884 -0.978428
v 0.087692 0.428401 -0.972633
v -0.022531 0.378413 -1.043421
v 0.000000 0.387524 -1.042816
v -0.031864 0.356388 -1.044873
v -0.022531 0.334382 -1.046321
v 0.000000 0.325290 -1.046919
v 0.022532 0.334382 -1.046321
v 0.031864 0.356388 -1.044873
v 0.022532 0.378413 -1.043421
v -0.127712 0.416451 -0.778328
v 0.000000 0.440140 -0.624854
v -0.136177 0.346198 -0.418840
v -0.192209 0.210763 -0.421956
v -0.134504 0.117209 -0.635840
v -0.180552 0.290184 -0.785262
v 0.180552 0.290184 -0.785262
v 0.134504 0.117209 -0.635840
v 0.192209 0.210763 -0.421956
v 0.136177 0.346198 -0.418840
v 0.000000 0.062048 -0.637732
v 0.127713 0.416451 -0.778328
v 0.000000 0.111741 -0.795041
v 0.134937 0.384556 -0.626734
v 0.000000 0.020226 -0.426696
v 0.135601 0.075952 -0.425372
v 0.190520 0.250671 -0.631280
v 0.127627 0.163990 -0.792180
v -0.135601 0.075952 -0.425372
v -0.190520 0.250671 -0.631280
v -0.127627 0.163991 -0.792180
v 0.000000 0.468773 -0.775451
v -0.134937 0.384556 -0.626733
v 0.000000 0.402427 -0.417833
v -0.131881 0.321051 0.101933
v 0.186444 0.189227 0.102010
v -0.000000 0.002970 0.102078
v -0.000000 0.375680 0.101864
v -0.131785 0.057507 0.102046
v 0.131785 0.057507 0.102046
v 0.131881 0.321051 0.101933
v -0.186444 0.189227 0.102010
v -0.132965 0.060426 -0.211397
v 0.132965 0.060426 -0.211397
v 0.133143 0.326265 -0.208795
v -0.188170 0.193252 -0.210028
v -0.133143 0.326265 -0.208795
v 0.188170 0.193252 -0.210028
v 0.000000 0.005426 -0.211907
v -0.000000 0.381407 -0.208456
v 0.000000 0.427460 -1.023784
v -0.053690 0.405759 -1.025234
v -0.075929 0.352676 -1.028726
v -0.053690 0.300255 -1.032204
v 0.000000 0.279186 -1.033641
v 0.053690 0.300255 -1.032205
v 0.075929 0.352676 -1.028726
v 0.053690 0.405759 -1.025234
v -0.146389 0.446484 0.738828
v -0.144193 0.469180 0.823625
v -0.203846 0.327356 0.836081
v -0.206885 0.302695 0.751295
v 0.206885 0.302695 0.751295
v 0.203846 0.327356 0.836081
v 0.144192 0.469180 0.823625
v 0.146388 0.446484 0.738828
v -0.000000 0.099620 0.768830
v -0.000000 0.126899 0.853611
v 0.144093 0.185598 0.848491
v 0.146194 0.159068 0.763706
v -0.144093 0.185598 0.848491
v -0.146195 0.159068 0.763706
v -0.000000 0.506094 0.733648
v -0.000000 0.527948 0.818453
v -0.102794 0.432243 -0.928805
v -0.119915 0.428922 -0.852007
v 0.000000 0.478029 -0.849404
v 0.000000 0.474186 -0.926607
v -0.145653 0.330682 -0.934134
v -0.169570 0.310382 -0.858285
v -0.103175 0.228735 -0.939499
v -0.119893 0.191840 -0.864558
v 0.000000 0.186402 -0.941729
v 0.000000 0.142731 -0.867154
v 0.103175 0.228735 -0.939499
v 0.119893 0.191840 -0.864558
v 0.145653 0.330682 -0.934134
v 0.169570 0.310382 -0.858285
v 0.102794 0.432243 -0.928805
v 0.119915 0.428922 -0.852007
v -0.000000 0.482305 1.029163
v -0.025241 0.409996 1.050848
v -0.099579 0.384599 1.039435
v -0.025406 0.363228 1.055202
v -0.000000 0.288276 1.049700
v 0.025406 0.363228 1.055202
v 0.099579 0.384599 1.039435
v 0.025240 0.409996 1.050848
vn -0.0005 0.0902 0.9959
vn -0.6934 0.7171 0.0706
vn -0.0000 1.0000 -0.0077
vn -0.9666 0.0359 0.2538
vn -0.6625 -0.6173 0.4242
vn -0.0000 -0.8721 0.4892
vn 0.6625 -0.6173 0.4242
vn 0.9666 0.0359 0.2538
vn 0.6934 0.7171 0.0706
vn -0.6080 0.6766 0.4153
vn -0.0000 0.9343 0.3566
vn -0.8337 0.0726 0.5474
vn -0.5637 -0.4896 0.6652
vn -0.0000 -0.7052 0.7090
vn 0.5637 -0.4896 0.6652
vn 0.8337 0.0726 0.5474
vn 0.6080 0.6766 0.4153
vn -0.3815 0.4872 0.7856
vn -0.0000 0.2329 0.9725
vn -0.1346 0.0979 0.9860
vn -0.3557 -0.2571 0.8986
vn -0.0000 -0.0301 0.9995
vn 0.3557 -0.2571 0.8986
vn 0.1342 0.0979 0.9861
vn 0.3815 0.4872 0.7856
vn -0.7005 0.6812 -0.2129
vn -0.7097 0.6962 -0.1078
vn -0.0000 0.9745 -0.2244
vn -0.7008 -0.7062 0.1004
vn -0.9997 -0.0127 -0.0200
vn -0.9992 -0.0119 -0.0394
vn 0.9992 -0.0119 -0.0394
vn 0.9997 -0.0127 -0.0200
vn 0.7008 -0.7062 0.1004
vn -0.0000 -0.9880 0.1546
vn 0.7097 0.6962 -0.1078
vn 0.7005 0.6812 -0.2129
vn -0.0000 -0.9801 0.1985
vn -0.0000 -0.9949 0.1005
vn 0.7030 0.6907 -0.1694
vn 0.9994 -0.0091 -0.0340
vn 0.6997 -0.7113 0.0659
vn 0.6989 -0.7031 0.1310
vn -0.9994 -0.0091 -0.0340
vn -0.6997 -0.7113 0.0659
vn -0.6989 -0.7031 0.1310
vn -0.0000 0.9591 -0.2832
vn -0.0000 0.9895 -0.1443
vn -0.7030 0.6907 -0.1694
vn -0.7107 0.7033 0.0150
vn -1.0000 -0.0076 0.0054
vn 1.0000 -0.0076 0.0054
vn 0.7107 0.7033 0.0150
vn -0.0000 -1.0000 -0.0081
vn 0.7032 -0.7109 -0.0042
vn -0.7032 -0.7109 -0.0042
vn -0.0000 0.9998 0.0190
vn -0.0000 0.0664 -0.9978
vn -0.6102 0.6636 -0.4327
vn -0.0000 0.9241 -0.3823
vn -0.8367 0.0528 -0.5452
vn -0.5650 -0.5145 -0.6450
vn -0.0000 -0.7316 -0.6818
vn 0.5650 -0.5145 -0.6450
vn 0.8367 0.0528 -0.5452
vn 0.6102 0.6636 -0.4327
vn -0.1603 0.2316 -0.9595
vn -0.0000 0.3017 -0.9534
vn -0.2255 0.0683 -0.9718
vn -0.1530 -0.0895 -0.9842
vn -0.0000 -0.1532 -0.9882
vn 0.1530 -0.0894 -0.9842
vn 0.2255 0.0683 -0.9718
vn 0.1603 0.2316 -0.9595
vn -0.7062 0.7036 0.0789
vn -0.0000 0.9831 0.1832
vn -0.7116 0.6955 0.0998
vn -0.9999 -0.0149 0.0018
vn -0.6940 -0.6951 -0.1876
vn -0.9945 0.0060 -0.1045
vn 0.9945 0.0060 -0.1045
vn 0.6940 -0.6951 -0.1876
vn 0.9999 -0.0149 0.0018
vn 0.7116 0.6955 0.0998
vn -0.0000 -0.9693 -0.2458
vn 0.7062 0.7036 0.0789
vn -0.0000 -0.9384 -0.3455
vn 0.7082 0.6961 0.1179
vn -0.0000 -0.9915 -0.1299
vn 0.6975 -0.7106 -0.0924
vn 0.9992 -0.0066 -0.0387
vn 0.6859 -0.6723 -0.2784
vn -0.6975 -0.7106 -0.0924
vn -0.9992 -0.0066 -0.0387
vn -0.6859 -0.6723 -0.2784
vn -0.0000 0.9879 0.1550
vn -0.7082 0.6961 0.1179
vn -0.0000 0.9900 0.1409
vn -0.7105 0.7027 -0.0373
vn 1.0000 -0.0082 -0.0044
vn -0.0000 -0.9991 0.0420
vn -0.0000 0.9987 -0.0509
vn -0.7026 -0.7110 0.0285
vn 0.7026 -0.7110 0.0285
vn 0.7105 0.7027 -0.0373
vn -1.0000 -0.0082 -0.0044
vn -0.7035 -0.7100 -0.0325
vn 0.7035 -0.7100 -0.0325
vn 0.7089 0.7030 0.0572
vn -0.9999 -0.0064 0.0127
vn -0.7089 0.7030 0.0572
vn 0.9999 -0.0064 0.0127
vn -0.0000 -0.9987 -0.0513
vn -0.0000 0.9972 0.0754
vn -0.0000 0.6860 -0.7276
vn -0.4293 0.5014 -0.7512
vn -0.5901 0.0667 -0.8046
vn -0.3995 -0.3386 -0.8519
vn -0.0000 -0.4935 -0.8697
vn 0.3995 -0.3386 -0.8519
vn 0.5901 0.0667 -0.8046
vn 0.4293 0.5014 -0.7512
vn -0.6998 0.6857 -0.2004
vn -0.7040 0.6982 -0.1299
vn -0.9973 0.0077 0.0725
vn -1.0000 -0.0024 -0.0046
vn 1.0000 -0.0024 -0.0046
vn 0.9973 0.0077 0.0725
vn 0.7040 0.6982 -0.1299
vn 0.6998 0.6857 -0.2004
vn -0.0000 -0.9644 0.2643
vn -0.0000 -0.9399 0.3416
vn 0.6914 -0.6716 0.2664
vn 0.6989 -0.6901 0.1882
vn -0.6914 -0.6716 0.2664
vn -0.6989 -0.6901 0.1882
vn -0.0000 0.9601 -0.2796
vn -0.0000 0.9770 -0.2133
vn -0.6785 0.7066 -0.2009
vn -0.7006 0.7126 -0.0372
vn -0.0000 0.9993 0.0383
vn -0.0000 0.9912 -0.1324
vn -0.9337 0.0338 -0.3565
vn -0.9762 0.0208 -0.2158
vn -0.6321 -0.5953 -0.4960
vn -0.6671 -0.6394 -0.3822
vn -0.0000 -0.8365 -0.5479
vn -0.0000 -0.8952 -0.4458
vn 0.6321 -0.5953 -0.4960
vn 0.6671 -0.6394 -0.3822
vn 0.9337 0.0338 -0.3565
vn 0.9762 0.0208 -0.2158
vn 0.6785 0.7066 -0.2009
vn 0.7006 0.7126 -0.0372
vn -0.0000 0.6499 0.7600
vn -0.0968 0.1922 0.9766
vn -0.5254 0.1026 0.8446
vn -0.0910 0.0068 0.9958
vn -0.0000 -0.3938 0.9192
vn 0.0909 0.0069 0.9958
vn 0.5254 0.1026 0.8446
vn 0.0967 0.1922 0.9766
vt 0.323377 0.606786
vt 0.367824 0.614829
vt 0.358235 0.636193
vt 0.317367 0.624082
vt 0.201641 0.613814
vt 0.246008 0.608800
vt 0.248374 0.625799
vt 0.207365 0.634563
vt 0.337167 0.543722
vt 0.384546 0.543115
vt 0.376301 0.587642
vt 0.329575 0.583487
vt 0.291228 0.545444
vt 0.287143 0.583427
vt 0.196905 0.542700
vt 0.244607 0.545861
vt 0.244447 0.585347
vt 0.197678 0.586192
vt 0.050372 0.151798
vt 0.001493 0.144272
vt 0.002433 0.098002
vt 0.049325 0.110679
vt 0.141764 0.155125
vt 0.096024 0.156766
vt 0.092147 0.116894
vt 0.135619 0.113716
vt 0.280294 0.640598
vt 0.252991 0.645087
vt 0.282650 0.621649
vt 0.308318 0.644728
vt 0.339640 0.661813
vt 0.115985 0.047173
vt 0.144004 0.025278
vt 0.163462 0.049356
vt 0.124859 0.070552
vt 0.086560 0.052718
vt 0.088276 0.075284
vt 0.058138 0.045388
vt 0.052884 0.067560
vt 0.030337 0.023515
vt 0.014177 0.047266
vt 0.221197 0.658957
vt 0.278329 0.659015
vt 0.259783 0.662629
vt 0.297371 0.663937
vt 0.314901 0.680472
vt 0.104945 0.025683
vt 0.120260 0.009200
vt 0.085634 0.030834
vt 0.066635 0.025223
vt 0.051532 0.008068
vt 0.241299 0.676903
vt 0.125293 0.008896
vt 0.122650 0.001580
vt 0.133056 0.001941
vt 0.132622 0.012257
vt 0.028590 0.009139
vt 0.026037 0.001491
vt 0.037122 0.001491
vt 0.035579 0.012555
vt 0.144135 0.001580
vt 0.140560 0.009271
vt 0.043586 0.009723
vt 0.047511 0.002191
vt 0.056571 0.321661
vt 0.103623 0.323520
vt 0.103128 0.375245
vt 0.055893 0.374430
vt 0.194397 0.199537
vt 0.146293 0.205624
vt 0.189718 0.145350
vt 0.130306 0.089509
vt 0.089975 0.093550
vt 0.250424 0.377211
vt 0.202816 0.376387
vt 0.202193 0.324833
vt 0.250050 0.323837
vt 0.097343 0.493036
vt 0.051488 0.494841
vt 0.053989 0.425648
vt 0.101083 0.425447
vt 0.099607 0.206160
vt 0.052768 0.202482
vt 0.050572 0.086206
vt 0.007347 0.069094
vt 0.299002 0.376805
vt 0.298441 0.323118
vt 0.197629 0.205960
vt 0.245502 0.202439
vt 0.248574 0.272207
vt 0.200958 0.274666
vt 0.199115 0.491879
vt 0.246769 0.496160
vt 0.173320 0.071177
vt 0.102589 0.258533
vt 0.148986 0.258768
vt 0.150161 0.324272
vt 0.293717 0.201629
vt 0.296863 0.271311
vt 0.294965 0.496317
vt 0.284608 0.605576
vt 0.008412 0.319752
vt 0.007351 0.253151
vt 0.055742 0.255815
vt 0.341117 0.202283
vt 0.388187 0.202093
vt 0.391843 0.271455
vt 0.344789 0.271435
vt 0.342379 0.493823
vt 0.389513 0.491478
vt 0.347088 0.375170
vt 0.346025 0.440904
vt 0.298003 0.443188
vt 0.147691 0.426836
vt 0.142705 0.495059
vt 0.181949 0.098925
vt 0.196537 0.255216
vt 0.197804 0.323227
vt 0.003208 0.498014
vt 0.005516 0.426148
vt 0.003810 0.198288
vt 0.297389 0.037689
vt 0.303642 0.049771
vt 0.275760 0.053022
vt 0.274129 0.041696
vt 0.053981 0.665484
vt 0.050748 0.652200
vt 0.079061 0.646116
vt 0.077470 0.660130
vt 0.101627 0.665810
vt 0.108166 0.651755
vt 0.135570 0.671539
vt 0.123271 0.684413
vt 0.251279 0.038297
vt 0.248399 0.049570
vt 0.217450 0.040063
vt 0.225803 0.027450
vt 0.321834 0.023098
vt 0.334217 0.036401
vt 0.031732 0.682218
vt 0.022903 0.669740
vt 0.281449 0.092071
vt 0.278609 0.072409
vt 0.312434 0.070273
vt 0.319606 0.090659
vt 0.243256 0.090160
vt 0.245061 0.069544
vt 0.349970 0.060086
vt 0.361053 0.083093
vt 0.162388 0.625143
vt 0.151454 0.648410
vt 0.116678 0.629206
vt 0.123202 0.607717
vt 0.081831 0.623975
vt 0.084662 0.602936
vt 0.047691 0.630041
vt 0.046530 0.608333
vt 0.011908 0.645936
vt 0.006013 0.621548
vt 0.201661 0.087457
vt 0.207329 0.063859
vt 0.272120 0.025085
vt 0.257047 0.022430
vt 0.287377 0.020962
vt 0.300800 0.007976
vt 0.091161 0.684236
vt 0.102915 0.697479
vt 0.075809 0.679381
vt 0.060776 0.683167
vt 0.048904 0.695714
vt 0.242384 0.011780
vt 0.152766 0.011695
vt 0.153104 0.001619
vt 0.160013 0.004687
vt 0.162848 0.011695
vt 0.171450 0.001832
vt 0.181528 0.001561
vt 0.178802 0.008492
vt 0.171924 0.011366
vt 0.146154 0.004300
vt 0.143235 0.011158
vt 0.178218 0.573252
vt 0.133736 0.560328
vt 0.090661 0.557035
vt 0.047517 0.561204
vt 0.201417 0.439980
vt 0.249114 0.443039
vt 0.196905 0.137470
vt 0.242726 0.135448
vt 0.189731 0.502669
vt 0.287284 0.135834
vt 0.393965 0.373523
vt 0.392866 0.438552
vt 0.331320 0.136262
vt 0.376878 0.133813
vt 0.149559 0.376257
vt 0.007439 0.373626
vt 0.001493 0.569450
vt 0.346645 0.322481
vt 0.195571 0.430480
vt 0.197635 0.377525
vt 0.393767 0.321806
vt 0.262771 0.010225
vt 0.270921 0.011199
vt 0.278664 0.008342
vt 0.284046 0.001771
vt 0.087776 0.702856
vt 0.082638 0.696618
vt 0.075228 0.693878
vt 0.067640 0.695522
vt 0.062520 0.701429
vt 0.256775 0.004578
vt 0.164930 0.008493
vt 0.161908 0.001561
vt 0.277912 0.678943
vt 0.268846 0.680125
vt 0.286136 0.682080
vt 0.292323 0.688822
vt 0.094255 0.009438
vt 0.099478 0.002496
vt 0.085679 0.011427
vt 0.078171 0.008533
vt 0.072720 0.001720
vt 0.262608 0.686797
s 1
usemtl 黄瓜
f 125/1/125 135/2/135 5/3/5 4/4/4
f 129/5/129 138/6/138 3/7/3 9/8/9
f 31/9/31 46/10/46 136/11/136 126/12/126
f 26/13/26 31/9/31 126/12/126 123/14/123
f 37/15/37 47/16/47 137/17/137 130/18/130
f 32/19/32 37/20/37 130/21/130 127/22/127
f 38/23/38 43/24/43 134/25/134 131/26/131
f 10/27/10 11/28/11 3/7/3 2/29/2
f 12/30/12 10/27/10 2/29/2 4/4/4
f 13/31/13 12/30/12 4/4/4 5/3/5
f 14/32/14 13/33/13 5/34/5 6/35/6
f 15/36/15 14/32/14 6/35/6 7/37/7
f 16/38/16 15/36/15 7/37/7 8/39/8
f 17/40/17 16/38/16 8/39/8 9/41/9
f 11/28/11 17/42/17 9/8/9 3/7/3
f 18/43/18 155/44/155 11/28/11 10/27/10
f 157/45/157 18/43/18 10/27/10 12/30/12
f 21/46/21 157/45/157 12/30/12 13/31/13
f 159/47/159 21/48/21 13/33/13 14/32/14
f 23/49/23 159/47/159 14/32/14 15/36/15
f 161/50/161 23/49/23 15/36/15 16/38/16
f 25/51/25 161/50/161 16/38/16 17/40/17
f 155/44/155 25/52/25 17/42/17 11/28/11
f 20/53/20 158/54/158 1/55/1 156/56/156
f 24/57/24 162/58/162 1/59/1 160/60/160
f 1/55/1 162/61/162 19/62/19 156/56/156
f 22/63/22 160/60/160 1/59/1 158/64/158
f 100/65/100 104/66/104 55/67/55 52/68/52
f 29/69/29 35/70/35 38/23/38 46/71/46
f 132/72/132 133/73/133 7/37/7 6/35/6
f 102/74/102 105/75/105 53/76/53 57/77/57
f 90/78/90 83/79/83 112/80/112 108/81/108
f 34/82/34 41/83/41 32/19/32 43/24/43
f 128/84/128 129/85/129 9/41/9 8/39/8
f 99/86/99 102/74/102 57/77/57 50/87/50
f 84/88/84 98/89/98 114/90/114 109/91/109
f 40/92/40 28/93/28 47/16/47 37/15/37
f 135/94/135 132/72/132 6/35/6 5/34/5
f 104/66/104 42/95/42 39/96/39 101/97/101
f 77/98/77 111/99/111 114/90/114 98/89/98
f 28/93/28 49/100/49 26/13/26 47/16/47
f 124/101/124 125/1/125 4/4/4 2/29/2
f 105/102/105 36/103/36 33/104/33 100/65/100
f 78/105/78 93/106/93 107/107/107 110/108/110
f 44/109/44 29/110/29 46/10/46 31/9/31
f 133/73/133 128/84/128 8/39/8 7/37/7
f 106/111/106 30/112/30 27/113/27 99/86/99
f 90/78/90 108/81/108 113/114/113 89/115/89
f 35/70/35 34/82/34 43/24/43 38/23/38
f 46/71/46 38/23/38 131/26/131 136/116/136
f 45/117/45 103/118/103 101/97/101 39/96/39
f 84/119/84 109/120/109 112/80/112 83/79/83
f 41/83/41 40/121/40 37/20/37 32/19/32
f 43/24/43 32/19/32 127/22/127 134/25/134
f 78/105/78 110/108/110 111/99/111 77/98/77
f 49/100/49 44/109/44 31/9/31 26/13/26
f 47/16/47 26/13/26 123/14/123 137/17/137
f 61/122/61 143/123/143 139/124/139 59/125/59
f 65/126/65 151/127/151 149/128/149 64/129/64
f 63/130/63 147/131/147 145/132/145 62/133/62
f 60/134/60 142/135/142 153/136/153 66/137/66
f 62/138/62 145/139/145 143/123/143 61/122/61
f 66/140/66 153/141/153 151/127/151 65/126/65
f 64/129/64 149/128/149 147/131/147 63/130/63
f 75/142/75 140/143/140 144/144/144 80/145/80
f 96/146/96 141/147/141 140/143/140 75/142/75
f 80/145/80 144/144/144 146/148/146 95/149/95
f 95/150/95 146/151/146 148/152/148 87/153/87
f 87/153/87 148/152/148 150/154/150 92/155/92
f 92/155/92 150/154/150 152/156/152 81/157/81
f 81/157/81 152/156/152 154/158/154 86/159/86
f 86/160/86 154/161/154 141/147/141 96/146/96
f 116/162/116 59/125/59 60/134/60 115/163/115
f 117/164/117 61/122/61 59/125/59 116/162/116
f 118/165/118 62/138/62 61/122/61 117/164/117
f 119/166/119 63/130/63 62/133/62 118/167/118
f 120/168/120 64/129/64 63/130/63 119/166/119
f 121/169/121 65/126/65 64/129/64 120/168/120
f 122/170/122 66/140/66 65/126/65 121/169/121
f 115/163/115 60/134/60 66/137/66 122/171/122
f 58/172/58 72/173/72 71/174/71 70/175/70
f 58/176/58 70/177/70 69/178/69 67/179/67
f 73/180/73 72/173/72 58/172/58 74/181/74
f 45/117/45 39/96/39 35/70/35 29/69/29
f 79/182/79 95/150/95 87/153/87 85/183/85
f 82/184/82 92/155/92 81/157/81 91/185/91
f 27/113/27 30/112/30 44/109/44 49/100/49
f 42/95/42 33/104/33 41/83/41 34/82/34
f 36/186/36 105/75/105 102/74/102 48/187/48
f 88/188/88 86/160/86 96/146/96 76/189/76
f 93/190/93 79/182/79 85/183/85 89/115/89
f 114/90/114 111/99/111 50/87/50 57/77/57
f 48/187/48 102/74/102 99/86/99 27/113/27
f 76/189/76 97/191/97 77/98/77 98/89/98
f 90/78/90 82/184/82 91/185/91 83/79/83
f 48/187/48 27/113/27 49/100/49 28/93/28
f 103/192/103 45/193/45 30/112/30 106/111/106
f 94/194/94 80/145/80 95/149/95 79/195/79
f 84/88/84 88/188/88 76/189/76 98/89/98
f 113/114/113 108/81/108 55/67/55 54/196/54
f 85/183/85 82/184/82 90/78/90 89/115/89
f 96/146/96 75/142/75 97/191/97 76/189/76
f 112/80/112 109/120/109 53/197/53 52/68/52
f 91/185/91 88/198/88 84/119/84 83/79/83
f 78/105/78 94/194/94 79/195/79 93/106/93
f 111/99/111 110/108/110 51/199/51 50/87/50
f 97/191/97 94/194/94 78/105/78 77/98/77
f 87/153/87 92/155/92 82/184/82 85/183/85
f 93/190/93 89/115/89 113/114/113 107/200/107
f 75/142/75 80/145/80 94/194/94 97/191/97
f 81/157/81 86/159/86 88/198/88 91/185/91
f 101/97/101 103/118/103 56/201/56 54/196/54
f 51/199/51 106/111/106 99/86/99 50/87/50
f 53/197/53 105/102/105 100/65/100 52/68/52
f 55/67/55 104/66/104 101/97/101 54/196/54
f 56/202/56 103/192/103 106/111/106 51/199/51
f 33/104/33 36/103/36 40/121/40 41/83/41
f 39/96/39 42/95/42 34/82/34 35/70/35
f 30/112/30 45/193/45 29/110/29 44/109/44
f 36/186/36 48/187/48 28/93/28 40/92/40
f 51/199/51 110/108/110 107/107/107 56/202/56
f 53/76/53 109/91/109 114/90/114 57/77/57
f 55/67/55 108/81/108 112/80/112 52/68/52
f 56/201/56 107/200/107 113/114/113 54/196/54
f 68/203/68 67/204/67 116/162/116 115/163/115
f 67/204/67 69/205/69 117/164/117 116/162/116
f 69/205/69 70/206/70 118/165/118 117/164/117
f 70/207/70 71/208/71 119/166/119 118/167/118
f 71/208/71 72/209/72 120/168/120 119/166/119
f 72/209/72 73/210/73 121/169/121 120/168/120
f 73/210/73 74/211/74 122/170/122 121/169/121
f 74/212/74 68/203/68 115/163/115 122/171/122
f 68/213/68 74/214/74 58/176/58 67/179/67
f 42/95/42 104/66/104 100/65/100 33/104/33
f 132/72/132 135/94/135 136/116/136 131/26/131
f 128/84/128 133/73/133 134/25/134 127/22/127
f 138/6/138 129/5/129 130/18/130 137/17/137
f 124/101/124 138/6/138 137/17/137 123/14/123
f 135/2/135 125/1/125 126/12/126 136/11/136
f 133/73/133 132/72/132 131/26/131 134/25/134
f 129/85/129 128/84/128 127/22/127 130/21/130
f 125/1/125 124/101/124 123/14/123 126/12/126
f 138/6/138 124/101/124 2/29/2 3/7/3
f 140/143/140 141/147/141 142/135/142 139/124/139
f 144/144/144 140/143/140 139/124/139 143/123/143
f 146/148/146 144/144/144 143/123/143 145/139/145
f 148/152/148 146/151/146 145/132/145 147/131/147
f 150/154/150 148/152/148 147/131/147 149/128/149
f 152/156/152 150/154/150 149/128/149 151/127/151
f 154/158/154 152/156/152 151/127/151 153/141/153
f 141/147/141 154/161/154 153/136/153 142/135/142
f 59/125/59 139/124/139 142/135/142 60/134/60
f 156/215/156 19/216/19 155/44/155 18/43/18
f 20/217/20 156/215/156 18/43/18 157/45/157
f 158/218/158 20/217/20 157/45/157 21/46/21
f 22/219/22 158/220/158 21/48/21 159/47/159
f 160/221/160 22/219/22 159/47/159 23/49/23
f 24/222/24 160/221/160 23/49/23 161/50/161
f 162/223/162 24/222/24 161/50/161 25/51/25
f 19/216/19 162/224/162 25/52/25 155/44/155
