# Blender 4.3.2
# www.blender.org
mtllib 番茄B.mtl
o 番茄2
v -0.068604 0.083209 0.130965
v -0.068604 0.306878 0.130965
v -0.126744 0.083209 -0.072902
v -0.126744 0.306878 -0.072902
v 0.135263 0.083209 0.072824
v 0.135263 0.306878 0.072824
v 0.077122 0.083209 -0.131042
v 0.077122 0.306878 -0.131042
v -0.120583 0.058075 0.035565
v -0.084979 0.195043 0.160407
v -0.120583 0.332012 0.035565
v -0.156187 0.195043 -0.089277
v -0.031345 0.058075 -0.124881
v -0.031345 0.332012 -0.124881
v 0.093498 0.195043 -0.160485
v 0.129101 0.058075 -0.035643
v 0.129101 0.332012 -0.035643
v 0.164705 0.195043 0.089199
v 0.039863 0.058075 0.124803
v 0.039863 0.332012 0.124803
v 0.004259 0.000000 -0.000039
v 0.054611 0.195043 0.176514
v 0.180813 0.195043 -0.050390
v -0.046092 0.195043 -0.176592
v -0.172294 0.195043 0.050312
v -0.096659 0.065908 0.092380
v -0.079875 0.259611 0.151231
v -0.130227 0.324178 -0.025323
v -0.147011 0.130476 -0.084174
v -0.088160 0.065908 -0.100957
v 0.029543 0.324178 -0.134525
v 0.088394 0.130476 -0.151309
v 0.105178 0.065908 -0.092458
v 0.138745 0.324178 0.025245
v 0.155529 0.130476 0.084096
v 0.096678 0.065908 0.100880
v -0.021024 0.324178 0.134447
v -0.130227 0.065908 -0.025322
v -0.079875 0.130476 0.151231
v -0.096659 0.324178 0.092380
v -0.147011 0.259611 -0.084174
v 0.029543 0.065908 -0.134525
v -0.088160 0.324178 -0.100957
v 0.088394 0.259611 -0.151309
v 0.138745 0.065908 0.025245
v 0.105178 0.324178 -0.092458
v 0.155529 0.259611 0.084096
v -0.021024 0.065908 0.134447
v 0.096678 0.324178 0.100880
v 0.024695 0.360718 0.071617
v -0.016176 0.360718 -0.071695
v 0.075915 0.360718 -0.020475
v -0.067397 0.360718 0.020397
v 0.026777 0.021790 0.078918
v -0.018259 0.021790 -0.078996
v -0.074698 0.021790 0.022479
v 0.083216 0.021790 -0.022557
v -0.029662 0.195043 0.180393
v 0.128252 0.195043 0.135357
v 0.049295 0.108417 0.157875
v 0.049295 0.281670 0.157875
v 0.184691 0.195043 0.033883
v 0.139656 0.195043 -0.124032
v 0.162173 0.108417 -0.045075
v 0.162173 0.281670 -0.045075
v 0.038181 0.195043 -0.180471
v -0.119733 0.195043 -0.135435
v -0.040776 0.108417 -0.157953
v -0.040776 0.281670 -0.157953
v -0.176173 0.195043 -0.033960
v -0.131137 0.195043 0.123954
v -0.153655 0.108417 0.044997
v -0.153655 0.281670 0.044997
v -0.119340 0.274122 0.113150
v -0.119340 0.115965 0.113150
v -0.160452 0.115965 -0.031005
v -0.108930 0.274122 -0.123638
v -0.108930 0.115965 -0.123638
v 0.035225 0.115965 -0.164750
v 0.127859 0.274122 -0.113228
v 0.127859 0.115965 -0.113228
v 0.168970 0.115965 0.030927
v 0.117449 0.274122 0.123560
v 0.117449 0.115965 0.123560
v -0.026707 0.115965 0.164672
v 0.055781 0.036886 -0.092672
v -0.088374 0.036886 -0.051561
v -0.047263 0.036886 0.092595
v -0.081769 0.353201 -0.047887
v 0.052107 0.353201 -0.086067
v 0.090287 0.353201 0.047809
v -0.043589 0.353201 0.085989
v 0.096893 0.036886 0.051483
v -0.026707 0.274122 0.164672
v 0.168970 0.274122 0.030927
v 0.035225 0.274122 -0.164750
v -0.160452 0.274122 -0.031005
v -0.007338 0.366686 -0.040953
v 0.039341 0.366686 -0.023888
v 0.037535 0.366686 0.025780
v -0.010260 0.366686 0.039410
v -0.037993 0.366686 -0.001833
v 0.005655 0.369489 -0.020092
v -0.007372 0.369489 -0.016377
v 0.023515 0.369489 -0.005084
v 0.015956 0.369489 -0.016326
v 0.014761 0.369489 0.016540
v 0.023117 0.369489 0.005877
v -0.008509 0.369489 0.014896
v 0.004213 0.369489 0.019548
v -0.014138 0.369489 -0.007743
v -0.014630 0.369489 0.005794
v -0.001251 0.369489 -0.003032
v 0.010231 0.369489 0.001166
vn -0.4038 -0.5567 0.7260
vn -0.3966 0.5782 0.7130
vn -0.7260 -0.5567 -0.4038
vn -0.7130 0.5782 -0.3966
vn 0.7260 -0.5567 0.4038
vn 0.7130 0.5782 0.3966
vn 0.4038 -0.5567 -0.7260
vn 0.3966 0.5782 -0.7130
vn -0.6961 -0.6900 0.1985
vn -0.4861 -0.0000 0.8739
vn -0.6541 0.7330 0.1865
vn -0.8739 -0.0000 -0.4861
vn -0.1985 -0.6900 -0.6961
vn -0.1866 0.7330 -0.6541
vn 0.4861 -0.0000 -0.8739
vn 0.6961 -0.6900 -0.1985
vn 0.6541 0.7330 -0.1866
vn 0.8739 -0.0000 0.4861
vn 0.1985 -0.6900 0.6961
vn 0.1866 0.7330 0.6541
vn -0.0000 -1.0000 -0.0000
vn 0.2743 -0.0000 0.9617
vn 0.9617 -0.0000 -0.2743
vn -0.2743 -0.0000 -0.9617
vn -0.9617 -0.0000 0.2743
vn -0.5672 -0.6510 0.5045
vn -0.4627 0.3066 0.8318
vn -0.7134 0.6899 -0.1230
vn -0.8318 -0.3066 -0.4627
vn -0.5045 -0.6510 -0.5672
vn 0.1230 0.6899 -0.7134
vn 0.4627 -0.3066 -0.8318
vn 0.5672 -0.6510 -0.5045
vn 0.7134 0.6899 0.1230
vn 0.8318 -0.3066 0.4627
vn 0.5045 -0.6510 0.5672
vn -0.1230 0.6899 0.7134
vn -0.7480 -0.6510 -0.1294
vn -0.4627 -0.3066 0.8318
vn -0.5412 0.6899 0.4808
vn -0.8318 0.3066 -0.4627
vn 0.1294 -0.6510 -0.7480
vn -0.4808 0.6899 -0.5412
vn 0.4627 0.3066 -0.8318
vn 0.7480 -0.6510 0.1294
vn 0.5412 0.6899 -0.4808
vn 0.8318 0.3066 0.4627
vn -0.1294 -0.6510 0.7480
vn 0.4808 0.6899 0.5412
vn 0.0939 0.9395 0.3293
vn -0.0929 0.9409 -0.3256
vn 0.3301 0.9396 -0.0909
vn -0.3281 0.9397 0.0968
vn 0.1153 -0.9074 0.4041
vn -0.1153 -0.9074 -0.4041
vn -0.4041 -0.9074 0.1153
vn 0.4041 -0.9074 -0.1153
vn -0.1336 -0.0000 0.9910
vn 0.6363 -0.0000 0.7715
vn 0.2531 -0.3847 0.8876
vn 0.2531 0.3847 0.8876
vn 0.9910 -0.0000 0.1336
vn 0.7715 -0.0000 -0.6363
vn 0.8876 -0.3847 -0.2531
vn 0.8876 0.3847 -0.2531
vn 0.1336 -0.0000 -0.9910
vn -0.6363 -0.0000 -0.7715
vn -0.2531 -0.3847 -0.8876
vn -0.2531 0.3847 -0.8876
vn -0.9910 -0.0000 -0.1336
vn -0.7715 -0.0000 0.6363
vn -0.8876 -0.3847 0.2531
vn -0.8876 0.3847 0.2531
vn -0.7164 0.3603 0.5975
vn -0.7164 -0.3603 0.5975
vn -0.9238 -0.3603 -0.1297
vn -0.5975 0.3603 -0.7164
vn -0.5975 -0.3603 -0.7164
vn 0.1297 -0.3603 -0.9238
vn 0.7164 0.3603 -0.5975
vn 0.7164 -0.3603 -0.5975
vn 0.9238 -0.3603 0.1297
vn 0.5975 0.3603 0.7164
vn 0.5975 -0.3603 0.7164
vn -0.1297 -0.3603 0.9238
vn 0.2684 -0.8337 -0.4826
vn -0.4826 -0.8337 -0.2684
vn -0.2684 -0.8337 0.4826
vn -0.3937 0.8925 -0.2201
vn 0.2184 0.8925 -0.3947
vn 0.3972 0.8909 0.2203
vn -0.2212 0.8910 0.3966
vn 0.4826 -0.8337 0.2684
vn -0.1297 0.3603 0.9238
vn 0.9238 0.3603 0.1297
vn 0.1297 0.3603 -0.9238
vn -0.9238 0.3603 -0.1297
vn -0.0455 0.9861 -0.1598
vn 0.1305 0.9856 -0.1072
vn 0.1418 0.9847 0.1017
vn -0.0666 0.9847 0.1610
vn -0.1671 0.9857 -0.0223
vn 0.0180 0.9957 -0.0910
vn -0.0633 0.9957 -0.0678
vn 0.0921 0.9957 -0.0110
vn 0.0449 0.9957 -0.0812
vn 0.0389 0.9957 0.0842
vn 0.0911 0.9957 0.0176
vn -0.0681 0.9957 0.0630
vn 0.0114 0.9957 0.0921
vn -0.0810 0.9957 -0.0453
vn -0.0841 0.9957 0.0393
vn -0.0000 1.0000 -0.0000
vt 0.402308 0.884869
vt 0.430505 0.893753
vt 0.413606 0.915372
vt 0.386246 0.908269
vt 0.707182 0.941153
vt 0.670279 0.944654
vt 0.680555 0.915914
vt 0.708008 0.908858
vt 0.661526 0.819909
vt 0.636461 0.835938
vt 0.630668 0.808880
vt 0.653908 0.792374
vt 0.465762 0.771942
vt 0.492409 0.798032
vt 0.463626 0.808733
vt 0.440479 0.792213
vt 0.778782 0.755557
vt 0.758161 0.780382
vt 0.742095 0.758627
vt 0.753193 0.730405
vt 0.493389 0.837479
vt 0.457781 0.835714
vt 0.600767 0.837615
vt 0.547046 0.832883
vt 0.559171 0.781073
vt 0.601847 0.798091
vt 0.454279 0.919943
vt 0.446082 0.865651
vt 0.480235 0.881653
vt 0.316010 0.755231
vt 0.281126 0.711654
vt 0.325447 0.688105
vt 0.341578 0.730200
vt 0.278021 0.837063
vt 0.222274 0.838575
vt 0.234422 0.767117
vt 0.292323 0.793980
vt 0.816704 0.837703
vt 0.784461 0.837301
vt 0.772910 0.808111
vt 0.802456 0.794465
vt 0.378318 0.732636
vt 0.424152 0.747334
vt 0.410845 0.776809
vt 0.379901 0.764737
vt 0.716350 0.732775
vt 0.670370 0.747420
vt 0.644368 0.688883
vt 0.719418 0.676698
vt 0.628609 0.772002
vt 0.584825 0.736258
vt 0.730178 0.788602
vt 0.695166 0.802437
vt 0.683648 0.776995
vt 0.714698 0.764957
vt 0.760092 0.853276
vt 0.726938 0.870990
vt 0.710929 0.836784
vt 0.746890 0.820138
vt 0.691958 0.885355
vt 0.663662 0.894195
vt 0.648114 0.865978
vt 0.674735 0.853585
vt 0.793584 0.899901
vt 0.752743 0.925340
vt 0.738857 0.896172
vt 0.768066 0.880342
vt 0.300931 0.899134
vt 0.341597 0.924598
vt 0.313987 0.981898
vt 0.256444 0.932910
vt 0.386992 0.940476
vt 0.423784 0.944057
vt 0.438285 0.986895
vt 0.388104 0.996415
vt 0.334437 0.852718
vt 0.367458 0.870460
vt 0.355513 0.895545
vt 0.326423 0.879690
vt 0.364412 0.788286
vt 0.399301 0.802161
vt 0.383502 0.836383
vt 0.347676 0.819702
vt 0.432817 0.819664
vt 0.419561 0.853225
vt 0.336522 0.780030
vt 0.321755 0.807651
vt 0.352589 0.758367
vt 0.310172 0.836733
vt 0.303987 0.862952
vt 0.275412 0.872700
vt 0.232937 0.887554
vt 0.819239 0.873450
vt 0.790604 0.863608
vt 0.861804 0.888447
vt 0.838119 0.933881
vt 0.780290 0.982869
vt 0.769449 0.688225
vt 0.375364 0.676697
vt 0.450203 0.688988
vt 0.872613 0.839344
vt 0.860586 0.767645
vt 0.484650 0.962779
vt 0.639758 0.920398
vt 0.613824 0.881929
vt 0.655634 0.987573
vt 0.609205 0.963276
vt 0.535039 0.781135
vt 0.813854 0.711925
vt 0.509520 0.736364
vt 0.705929 0.997244
vt 0.792544 0.307351
vt 0.799276 0.307368
vt 0.811277 0.316800
vt 0.780577 0.316800
vt 0.808054 0.296073
vt 0.820719 0.287600
vt 0.805998 0.302478
vt 0.791755 0.284233
vt 0.786329 0.288205
vt 0.771104 0.287616
vt 0.795905 0.269548
vt 0.805495 0.288199
vt 0.800065 0.284229
vt 0.785831 0.302476
vt 0.594936 0.903021
vt 0.568911 0.868970
vt 0.525208 0.868891
vt 0.499113 0.902798
vt 0.588441 0.945434
vt 0.505474 0.945122
vt 0.783772 0.296077
vt 0.797463 0.292233
vt 0.795150 0.299361
s 1
usemtl 番茄
f 97/1/97 28/2/28 4/3/4 41/4/41
f 96/5/96 31/6/31 8/7/8 44/8/44
f 95/9/95 34/10/34 6/11/6 47/12/47
f 94/13/94 37/14/37 2/15/2 27/16/27
f 93/17/93 45/18/45 5/19/5 36/20/36
f 92/21/92 40/22/40 2/15/2 37/14/37
f 91/23/91 50/24/50 20/25/20 49/26/49
f 89/27/89 28/2/28 11/28/11 53/29/53
f 88/30/88 54/31/54 19/32/19 48/33/48
f 87/34/87 55/35/55 21/36/21 56/37/56
f 86/38/86 33/39/33 16/40/16 57/41/57
f 85/42/85 58/43/58 10/44/10 39/45/39
f 84/46/84 59/47/59 22/48/22 60/49/60
f 83/50/83 49/26/49 20/25/20 61/51/61
f 82/52/82 62/53/62 18/54/18 35/55/35
f 81/56/81 63/57/63 23/58/23 64/59/64
f 80/60/80 46/61/46 17/62/17 65/63/65
f 79/64/79 66/65/66 15/66/15 32/67/32
f 78/68/78 67/69/67 24/70/24 68/71/68
f 77/72/77 43/73/43 14/74/14 69/75/69
f 76/76/76 70/77/70 12/78/12 29/79/29
f 75/80/75 71/81/71 25/82/25 72/83/72
f 74/84/74 40/22/40 11/28/11 73/85/73
f 71/81/71 74/84/74 73/85/73 25/82/25
f 10/44/10 27/16/27 74/84/74 71/81/71
f 27/16/27 2/15/2 40/22/40 74/84/74
f 26/86/26 75/80/75 72/83/72 9/87/9
f 1/88/1 39/45/39 75/80/75 26/86/26
f 39/45/39 10/44/10 71/81/71 75/80/75
f 38/89/38 76/76/76 29/79/29 3/90/3
f 9/87/9 72/83/72 76/76/76 38/89/38
f 72/83/72 25/82/25 70/77/70 76/76/76
f 67/69/67 77/72/77 69/75/69 24/70/24
f 12/78/12 41/4/41 77/72/77 67/69/67
f 41/4/41 4/3/4 43/73/43 77/72/77
f 30/91/30 78/68/78 68/71/68 13/92/13
f 3/90/3 29/79/29 78/68/78 30/91/30
f 29/79/29 12/78/12 67/69/67 78/68/78
f 42/93/42 79/64/79 32/67/32 7/94/7
f 13/95/13 68/96/68 79/64/79 42/93/42
f 68/96/68 24/97/24 66/65/66 79/64/79
f 63/57/63 80/60/80 65/63/65 23/58/23
f 15/66/15 44/8/44 80/60/80 63/57/63
f 44/8/44 8/7/8 46/61/46 80/60/80
f 33/39/33 81/56/81 64/59/64 16/40/16
f 7/94/7 32/67/32 81/56/81 33/39/33
f 32/67/32 15/66/15 63/57/63 81/56/81
f 45/18/45 82/52/82 35/55/35 5/19/5
f 16/40/16 64/59/64 82/52/82 45/18/45
f 64/59/64 23/58/23 62/53/62 82/52/82
f 59/47/59 83/50/83 61/51/61 22/48/22
f 18/54/18 47/12/47 83/50/83 59/47/59
f 47/12/47 6/11/6 49/26/49 83/50/83
f 36/20/36 84/46/84 60/49/60 19/98/19
f 5/19/5 35/55/35 84/46/84 36/20/36
f 35/55/35 18/54/18 59/47/59 84/46/84
f 48/33/48 85/42/85 39/45/39 1/88/1
f 19/32/19 60/99/60 85/42/85 48/33/48
f 60/99/60 22/100/22 58/43/58 85/42/85
f 55/101/55 86/38/86 57/41/57 21/102/21
f 13/95/13 42/93/42 86/38/86 55/101/55
f 42/93/42 7/94/7 33/39/33 86/38/86
f 38/89/38 87/34/87 56/37/56 9/87/9
f 3/90/3 30/91/30 87/34/87 38/89/38
f 30/91/30 13/92/13 55/35/55 87/34/87
f 26/86/26 88/30/88 48/33/48 1/88/1
f 9/87/9 56/37/56 88/30/88 26/86/26
f 56/37/56 21/36/21 54/31/54 88/30/88
f 14/74/14 43/73/43 89/27/89 51/103/51
f 43/73/43 4/3/4 28/2/28 89/27/89
f 46/61/46 90/104/90 52/105/52 17/62/17
f 8/7/8 31/6/31 90/104/90 46/61/46
f 31/6/31 14/106/14 51/107/51 90/104/90
f 34/10/34 91/23/91 49/26/49 6/11/6
f 17/62/17 52/105/52 91/23/91 34/10/34
f 50/24/50 92/21/92 37/14/37 20/108/20
f 53/29/53 11/28/11 40/22/40 92/21/92
f 54/109/54 93/17/93 36/20/36 19/98/19
f 21/102/21 57/41/57 93/17/93 54/109/54
f 57/41/57 16/40/16 45/18/45 93/17/93
f 58/43/58 94/13/94 27/16/27 10/44/10
f 22/100/22 61/110/61 94/13/94 58/43/58
f 61/110/61 20/108/20 37/14/37 94/13/94
f 62/53/62 95/9/95 47/12/47 18/54/18
f 23/58/23 65/63/65 95/9/95 62/53/62
f 65/63/65 17/62/17 34/10/34 95/9/95
f 66/65/66 96/5/96 44/8/44 15/66/15
f 24/97/24 69/111/69 96/5/96 66/65/66
f 69/111/69 14/106/14 31/6/31 96/5/96
f 70/77/70 97/1/97 41/4/41 12/78/12
f 25/82/25 73/85/73 97/1/97 70/77/70
f 73/85/73 11/28/11 28/2/28 97/1/97
f 111/112/111 104/113/104 98/114/98 102/115/102
f 106/116/106 99/117/99 98/114/98 103/118/103
f 107/119/107 110/120/110 101/121/101 100/122/100
f 106/116/106 105/123/105 99/117/99
f 98/114/98 104/113/104 103/118/103
f 100/122/100 108/124/108 107/119/107
f 102/115/102 112/125/112 111/112/111
f 99/126/99 52/105/52 90/104/90
f 100/127/100 52/105/52 99/126/99
f 100/127/100 50/24/50 91/23/91
f 101/128/101 92/21/92 50/24/50
f 101/128/101 53/29/53 92/21/92
f 102/129/102 89/27/89 53/29/53
f 98/130/98 99/126/99 90/104/90
f 100/127/100 91/23/91 52/105/52
f 100/127/100 101/128/101 50/24/50
f 101/128/101 102/129/102 53/29/53
f 102/129/102 98/131/98 89/27/89
f 99/117/99 105/123/105 108/124/108 100/122/100
f 110/120/110 109/132/109 101/121/101
f 101/121/101 109/132/109 112/125/112 102/115/102
f 114/133/113 108/124/108 105/123/105 106/116/106
f 113/134/113 109/132/109 110/120/110 114/133/113
f 111/112/111 112/125/112 109/132/109 113/134/113
f 103/118/103 113/134/113 114/133/113 106/116/106
f 104/113/104 111/112/111 113/134/113 103/118/103
f 110/120/110 107/119/107 108/124/108 114/133/113
f 51/103/51 89/27/89 98/131/98
f 90/104/90 51/107/51 98/130/98
