# Blender 4.3.2
# www.blender.org
mtllib 番茄C.mtl
o 番茄3
v 0.121018 0.101674 -0.119077
v 0.121018 0.374976 -0.119077
v 0.123800 0.101674 0.116423
v 0.123800 0.374976 0.116423
v -0.114481 0.101674 -0.116294
v -0.114481 0.374976 -0.116294
v -0.111699 0.101674 0.119205
v -0.111699 0.374976 0.119205
v 0.148873 0.070962 -0.001639
v 0.147169 0.238325 -0.145853
v 0.148873 0.405687 -0.001639
v 0.150576 0.238325 0.142574
v 0.006363 0.070962 0.144277
v 0.006363 0.405687 0.144278
v -0.137850 0.238325 0.145981
v -0.139554 0.070962 0.001768
v -0.139554 0.405687 0.001768
v -0.141258 0.238325 -0.142445
v 0.002956 0.070962 -0.144149
v 0.002956 0.405687 -0.144149
v 0.004659 0.000000 0.000064
v 0.002250 0.238325 -0.203884
v -0.199289 0.238325 0.002474
v 0.007069 0.238325 0.204013
v 0.208608 0.238325 -0.002345
v 0.139822 0.080534 -0.069525
v 0.139019 0.317220 -0.137508
v 0.141428 0.396116 0.066441
v 0.142231 0.159429 0.134424
v 0.074249 0.080534 0.135227
v -0.061717 0.396116 0.136833
v -0.129700 0.159429 0.137636
v -0.130503 0.080534 0.069653
v -0.132109 0.396116 -0.066312
v -0.132912 0.159429 -0.134295
v -0.064930 0.080534 -0.135098
v 0.071036 0.396116 -0.136705
v 0.141428 0.080534 0.066441
v 0.139019 0.159429 -0.137508
v 0.139822 0.396116 -0.069525
v 0.142231 0.317220 0.134424
v -0.061717 0.080534 0.136833
v 0.074249 0.396116 0.135227
v -0.129700 0.317220 0.137636
v -0.132109 0.080534 -0.066312
v -0.130503 0.396116 0.069653
v -0.132912 0.317220 -0.134295
v 0.071036 0.080534 -0.136705
v -0.064930 0.396116 -0.135098
v 0.003682 0.440763 -0.082710
v 0.005637 0.440763 0.082839
v -0.078115 0.440763 0.001042
v 0.087434 0.440763 -0.000914
v 0.003582 0.026626 -0.091144
v 0.005737 0.026626 0.091273
v 0.095868 0.026626 -0.001013
v -0.086549 0.026626 0.001142
v 0.093713 0.238325 -0.183430
v -0.088704 0.238325 -0.181275
v 0.002504 0.132475 -0.182353
v 0.002504 0.344174 -0.182353
v -0.178835 0.238325 -0.088989
v -0.176680 0.238325 0.093428
v -0.177758 0.132475 0.002219
v -0.177758 0.344174 0.002219
v -0.084394 0.238325 0.183559
v 0.098023 0.238325 0.181404
v 0.006814 0.132475 0.182481
v 0.006814 0.344174 0.182481
v 0.188154 0.238325 0.089118
v 0.185999 0.238325 -0.093299
v 0.187076 0.132475 -0.002091
v 0.187076 0.344174 -0.002091
v 0.170199 0.334951 -0.085165
v 0.170199 0.141698 -0.085165
v 0.172166 0.141698 0.081359
v 0.089888 0.334951 0.165604
v 0.089888 0.141698 0.165604
v -0.076635 0.141698 0.167571
v -0.160880 0.334951 0.085293
v -0.160880 0.141698 0.085293
v -0.162847 0.141698 -0.081230
v -0.080569 0.334951 -0.165475
v -0.080569 0.141698 -0.165475
v 0.085954 0.141698 -0.167443
v -0.077618 0.045071 0.084309
v 0.088905 0.045071 0.082342
v 0.086937 0.045071 -0.084181
v 0.082897 0.431578 0.076475
v -0.071751 0.431578 0.078302
v -0.073578 0.431578 -0.076346
v 0.081070 0.431578 -0.078173
v -0.079586 0.045071 -0.082214
v 0.085954 0.334951 -0.167443
v -0.162847 0.334951 -0.081230
v -0.076635 0.334951 0.167571
v 0.172166 0.334951 0.081359
v 0.005141 0.448056 0.047306
v -0.039908 0.448056 0.015382
v -0.023468 0.448056 -0.037328
v 0.031743 0.448056 -0.037980
v 0.049425 0.448056 0.014327
v -0.002693 0.451481 0.021151
v 0.012356 0.451481 0.020973
v -0.017454 0.451481 -0.000151
v -0.012635 0.451481 0.014106
v -0.001756 0.451481 -0.020773
v -0.013826 0.451481 -0.011784
v 0.022707 0.451481 -0.012216
v 0.010429 0.451481 -0.020917
v 0.022129 0.451481 0.013695
v 0.026610 0.451481 -0.000672
v 0.009692 0.451481 0.004882
v -0.001389 0.451481 -0.002971
vn 0.5968 -0.5200 -0.6111
vn 0.5873 0.5417 -0.6014
vn 0.6111 -0.5200 0.5968
vn 0.6014 0.5417 0.5873
vn -0.6111 -0.5200 -0.5968
vn -0.6014 0.5417 -0.5873
vn -0.5968 -0.5200 0.6111
vn -0.5873 0.5417 0.6014
vn 0.7523 -0.6588 -0.0089
vn 0.6987 -0.0000 -0.7154
vn 0.7085 0.7057 -0.0084
vn 0.7154 -0.0000 0.6987
vn 0.0089 -0.6588 0.7523
vn 0.0084 0.7057 0.7085
vn -0.6987 -0.0000 0.7154
vn -0.7523 -0.6588 0.0089
vn -0.7085 0.7057 0.0084
vn -0.7154 -0.0000 -0.6987
vn -0.0089 -0.6588 -0.7523
vn -0.0084 0.7057 -0.7085
vn -0.0000 -1.0000 -0.0000
vn -0.0118 -0.0000 -0.9999
vn -0.9999 -0.0000 0.0118
vn 0.0118 -0.0000 0.9999
vn 0.9999 -0.0000 -0.0118
vn 0.7038 -0.6176 -0.3512
vn 0.6707 0.2804 -0.6867
vn 0.6810 0.6591 0.3191
vn 0.6867 -0.2804 0.6707
vn 0.3512 -0.6176 0.7038
vn -0.3191 0.6591 0.6810
vn -0.6707 -0.2804 0.6867
vn -0.7038 -0.6176 0.3512
vn -0.6810 0.6591 -0.3191
vn -0.6867 -0.2804 -0.6707
vn -0.3512 -0.6176 -0.7038
vn 0.3191 0.6591 -0.6810
vn 0.7119 -0.6176 0.3345
vn 0.6707 -0.2804 -0.6867
vn 0.6732 0.6591 -0.3351
vn 0.6867 0.2804 0.6707
vn -0.3345 -0.6176 0.7119
vn 0.3351 0.6591 0.6732
vn -0.6707 0.2804 0.6867
vn -0.7119 -0.6176 -0.3345
vn -0.6732 0.6591 0.3351
vn -0.6867 0.2804 -0.6707
vn 0.3345 -0.6176 -0.7119
vn -0.3351 0.6591 -0.6732
vn -0.0043 0.9291 -0.3698
vn 0.0044 0.9290 0.3699
vn -0.3697 0.9291 0.0009
vn 0.3694 0.9293 -0.0077
vn -0.0053 -0.8933 -0.4495
vn 0.0053 -0.8933 0.4495
vn 0.4495 -0.8933 -0.0053
vn -0.4495 -0.8933 0.0053
vn 0.3893 -0.0000 -0.9211
vn -0.4110 -0.0000 -0.9116
vn -0.0110 -0.3577 -0.9338
vn -0.0110 0.3577 -0.9338
vn -0.9211 -0.0000 -0.3893
vn -0.9116 -0.0000 0.4110
vn -0.9338 -0.3577 0.0110
vn -0.9338 0.3577 0.0110
vn -0.3893 -0.0000 0.9211
vn 0.4110 -0.0000 0.9116
vn 0.0110 -0.3577 0.9338
vn 0.0110 0.3577 0.9338
vn 0.9211 -0.0000 0.3893
vn 0.9116 -0.0000 -0.4110
vn 0.9338 -0.3577 -0.0110
vn 0.9338 0.3577 -0.0110
vn 0.8572 0.3339 -0.3921
vn 0.8572 -0.3339 -0.3921
vn 0.8662 -0.3339 0.3718
vn 0.3921 0.3339 0.8572
vn 0.3921 -0.3339 0.8572
vn -0.3718 -0.3339 0.8662
vn -0.8572 0.3339 0.3921
vn -0.8572 -0.3339 0.3921
vn -0.8662 -0.3339 -0.3718
vn -0.3921 0.3339 -0.8572
vn -0.3921 -0.3339 -0.8572
vn 0.3718 -0.3339 -0.8662
vn -0.4088 -0.8110 0.4186
vn 0.4186 -0.8110 0.4088
vn 0.4088 -0.8110 -0.4186
vn 0.3349 0.8794 0.3384
vn -0.3269 0.8794 0.3462
vn -0.3473 0.8746 -0.3383
vn 0.3392 0.8746 -0.3464
vn -0.4186 -0.8110 -0.4088
vn 0.3718 0.3339 -0.8662
vn -0.8662 0.3339 -0.3718
vn -0.3718 0.3339 0.8662
vn 0.8662 0.3339 0.3718
vn 0.0021 0.9833 0.1821
vn -0.1689 0.9827 0.0757
vn -0.1205 0.9816 -0.1483
vn 0.1167 0.9816 -0.1510
vn 0.1702 0.9828 0.0716
vn -0.0453 0.9948 0.0912
vn 0.0474 0.9948 0.0901
vn -0.1007 0.9948 -0.0149
vn -0.0710 0.9948 0.0729
vn -0.0169 0.9948 -0.1004
vn -0.0913 0.9948 -0.0450
vn 0.0902 0.9948 -0.0471
vn 0.0146 0.9948 -0.1007
vn 0.0727 0.9948 0.0712
vn 0.1003 0.9948 -0.0173
vn -0.0000 1.0000 -0.0000
vt 0.151793 0.234841
vt 0.158117 0.265544
vt 0.128192 0.261927
vt 0.119939 0.232459
vt 0.088729 0.465774
vt 0.106669 0.428894
vt 0.128497 0.455331
vt 0.120339 0.484771
vt 0.232204 0.484935
vt 0.227865 0.453626
vt 0.257905 0.459254
vt 0.264105 0.489648
vt 0.297489 0.244066
vt 0.281994 0.283124
vt 0.257793 0.257678
vt 0.263940 0.227224
vt 0.240584 0.633704
vt 0.224786 0.599152
vt 0.256150 0.593858
vt 0.280935 0.620003
vt 0.241368 0.299151
vt 0.227722 0.263379
vt 0.241405 0.417856
vt 0.264103 0.358527
vt 0.319103 0.393117
vt 0.282023 0.433803
vt 0.146683 0.301426
vt 0.192866 0.265812
vt 0.193965 0.303512
vt 0.240050 0.082939
vt 0.268819 0.021140
vt 0.318311 0.056495
vt 0.280519 0.096577
vt 0.131813 0.087631
vt 0.097789 0.028806
vt 0.182198 0.001530
vt 0.185618 0.079031
vt 0.132564 0.629284
vt 0.151052 0.596218
vt 0.187808 0.599735
vt 0.186276 0.637733
vt 0.296474 0.136191
vt 0.303382 0.190225
vt 0.265444 0.190699
vt 0.262802 0.153882
vt 0.296769 0.580437
vt 0.303549 0.526499
vt 0.381368 0.526912
vt 0.356877 0.612574
vt 0.297562 0.472770
vt 0.357829 0.440710
vt 0.230457 0.566716
vt 0.233626 0.525587
vt 0.265684 0.526104
vt 0.263127 0.562856
vt 0.147954 0.563540
vt 0.147883 0.522478
vt 0.190688 0.524427
vt 0.189074 0.567472
vt 0.152131 0.482308
vt 0.158365 0.451639
vt 0.193060 0.451281
vt 0.192134 0.482016
vt 0.081176 0.571925
vt 0.078746 0.518122
vt 0.116114 0.520615
vt 0.115851 0.557188
vt 0.080468 0.145243
vt 0.078179 0.199160
vt 0.001525 0.205255
vt 0.018247 0.118575
vt 0.088326 0.251579
vt 0.106403 0.288470
vt 0.074098 0.330684
vt 0.032180 0.287883
vt 0.147402 0.153471
vt 0.147434 0.194612
vt 0.115611 0.196561
vt 0.115251 0.159918
vt 0.230058 0.150089
vt 0.233329 0.191288
vt 0.190314 0.192551
vt 0.188592 0.149430
vt 0.231996 0.232013
vt 0.191864 0.235032
vt 0.224301 0.117600
vt 0.187245 0.117105
vt 0.255741 0.122833
vt 0.150423 0.120720
vt 0.119657 0.128566
vt 0.092853 0.104670
vt 0.051884 0.068327
vt 0.093642 0.612382
vt 0.120330 0.588466
vt 0.052857 0.648754
vt 0.019158 0.598704
vt 0.002232 0.512254
vt 0.318733 0.659912
vt 0.356645 0.103855
vt 0.381369 0.189659
vt 0.098763 0.688069
vt 0.183053 0.715072
vt 0.129667 0.358692
vt 0.146854 0.415845
vt 0.194070 0.413626
vt 0.074280 0.386850
vt 0.319178 0.323837
vt 0.269433 0.695300
vt 0.357927 0.276095
vt 0.032579 0.429706
vt 0.412511 0.319312
vt 0.419637 0.317013
vt 0.429044 0.302918
vt 0.396584 0.313480
vt 0.432806 0.325932
vt 0.449114 0.330524
vt 0.428419 0.319866
vt 0.419636 0.344052
vt 0.412507 0.341761
vt 0.396591 0.347622
vt 0.429060 0.358124
vt 0.432809 0.335162
vt 0.428397 0.341204
vt 0.407085 0.326786
vt 0.185204 0.386961
vt 0.219071 0.376896
vt 0.219223 0.340225
vt 0.185156 0.330377
vt 0.162619 0.358705
vt 0.407070 0.334280
vt 0.422910 0.333638
vt 0.418012 0.326890
s 1
usemtl 番茄
f 97/1/97 28/2/28 4/3/4 41/4/41
f 96/5/96 31/6/31 8/7/8 44/8/44
f 95/9/95 34/10/34 6/11/6 47/12/47
f 94/13/94 37/14/37 2/15/2 27/16/27
f 93/17/93 45/18/45 5/19/5 36/20/36
f 92/21/92 40/22/40 2/15/2 37/14/37
f 91/23/91 50/24/50 20/25/20 49/26/49
f 89/27/89 28/2/28 11/28/11 53/29/53
f 88/30/88 54/31/54 19/32/19 48/33/48
f 87/34/87 55/35/55 21/36/21 56/37/56
f 86/38/86 33/39/33 16/40/16 57/41/57
f 85/42/85 58/43/58 10/44/10 39/45/39
f 84/46/84 59/47/59 22/48/22 60/49/60
f 83/50/83 49/26/49 20/25/20 61/51/61
f 82/52/82 62/53/62 18/54/18 35/55/35
f 81/56/81 63/57/63 23/58/23 64/59/64
f 80/60/80 46/61/46 17/62/17 65/63/65
f 79/64/79 66/65/66 15/66/15 32/67/32
f 78/68/78 67/69/67 24/70/24 68/71/68
f 77/72/77 43/73/43 14/74/14 69/75/69
f 76/76/76 70/77/70 12/78/12 29/79/29
f 75/80/75 71/81/71 25/82/25 72/83/72
f 74/84/74 40/22/40 11/28/11 73/85/73
f 71/81/71 74/84/74 73/85/73 25/82/25
f 10/44/10 27/16/27 74/84/74 71/81/71
f 27/16/27 2/15/2 40/22/40 74/84/74
f 26/86/26 75/80/75 72/83/72 9/87/9
f 1/88/1 39/45/39 75/80/75 26/86/26
f 39/45/39 10/44/10 71/81/71 75/80/75
f 38/89/38 76/76/76 29/79/29 3/90/3
f 9/87/9 72/83/72 76/76/76 38/89/38
f 72/83/72 25/82/25 70/77/70 76/76/76
f 67/69/67 77/72/77 69/75/69 24/70/24
f 12/78/12 41/4/41 77/72/77 67/69/67
f 41/4/41 4/3/4 43/73/43 77/72/77
f 30/91/30 78/68/78 68/71/68 13/92/13
f 3/90/3 29/79/29 78/68/78 30/91/30
f 29/79/29 12/78/12 67/69/67 78/68/78
f 42/93/42 79/64/79 32/67/32 7/94/7
f 13/95/13 68/96/68 79/64/79 42/93/42
f 68/96/68 24/97/24 66/65/66 79/64/79
f 63/57/63 80/60/80 65/63/65 23/58/23
f 15/66/15 44/8/44 80/60/80 63/57/63
f 44/8/44 8/7/8 46/61/46 80/60/80
f 33/39/33 81/56/81 64/59/64 16/40/16
f 7/94/7 32/67/32 81/56/81 33/39/33
f 32/67/32 15/66/15 63/57/63 81/56/81
f 45/18/45 82/52/82 35/55/35 5/19/5
f 16/40/16 64/59/64 82/52/82 45/18/45
f 64/59/64 23/58/23 62/53/62 82/52/82
f 59/47/59 83/50/83 61/51/61 22/48/22
f 18/54/18 47/12/47 83/50/83 59/47/59
f 47/12/47 6/11/6 49/26/49 83/50/83
f 36/20/36 84/46/84 60/49/60 19/98/19
f 5/19/5 35/55/35 84/46/84 36/20/36
f 35/55/35 18/54/18 59/47/59 84/46/84
f 48/33/48 85/42/85 39/45/39 1/88/1
f 19/32/19 60/99/60 85/42/85 48/33/48
f 60/99/60 22/100/22 58/43/58 85/42/85
f 55/101/55 86/38/86 57/41/57 21/102/21
f 13/95/13 42/93/42 86/38/86 55/101/55
f 42/93/42 7/94/7 33/39/33 86/38/86
f 38/89/38 87/34/87 56/37/56 9/87/9
f 3/90/3 30/91/30 87/34/87 38/89/38
f 30/91/30 13/92/13 55/35/55 87/34/87
f 26/86/26 88/30/88 48/33/48 1/88/1
f 9/87/9 56/37/56 88/30/88 26/86/26
f 56/37/56 21/36/21 54/31/54 88/30/88
f 14/74/14 43/73/43 89/27/89 51/103/51
f 43/73/43 4/3/4 28/2/28 89/27/89
f 46/61/46 90/104/90 52/105/52 17/62/17
f 8/7/8 31/6/31 90/104/90 46/61/46
f 31/6/31 14/106/14 51/103/51 90/104/90
f 34/10/34 91/23/91 49/26/49 6/11/6
f 17/62/17 52/105/52 91/23/91 34/10/34
f 50/24/50 92/21/92 37/14/37 20/107/20
f 53/29/53 11/28/11 40/22/40 92/21/92
f 54/108/54 93/17/93 36/20/36 19/98/19
f 21/102/21 57/41/57 93/17/93 54/108/54
f 57/41/57 16/40/16 45/18/45 93/17/93
f 58/43/58 94/13/94 27/16/27 10/44/10
f 22/100/22 61/109/61 94/13/94 58/43/58
f 61/109/61 20/107/20 37/14/37 94/13/94
f 62/53/62 95/9/95 47/12/47 18/54/18
f 23/58/23 65/63/65 95/9/95 62/53/62
f 65/63/65 17/62/17 34/10/34 95/9/95
f 66/65/66 96/5/96 44/8/44 15/66/15
f 24/97/24 69/110/69 96/5/96 66/65/66
f 69/110/69 14/106/14 31/6/31 96/5/96
f 70/77/70 97/1/97 41/4/41 12/78/12
f 25/82/25 73/85/73 97/1/97 70/77/70
f 73/85/73 11/28/11 28/2/28 97/1/97
f 111/111/111 104/112/104 98/113/98 102/114/102
f 106/115/106 99/116/99 98/113/98 103/117/103
f 107/118/107 110/119/110 101/120/101 100/121/100
f 106/115/106 105/122/105 99/116/99
f 98/113/98 104/112/104 103/117/103
f 100/121/100 108/123/108 107/118/107
f 102/114/102 112/124/112 111/111/111
f 99/125/99 52/105/52 90/104/90
f 100/126/100 52/105/52 99/125/99
f 100/126/100 50/24/50 91/23/91
f 101/127/101 92/21/92 50/24/50
f 101/127/101 53/29/53 92/21/92
f 102/128/102 89/27/89 53/29/53
f 98/129/98 99/125/99 90/104/90
f 100/126/100 91/23/91 52/105/52
f 100/126/100 101/127/101 50/24/50
f 101/127/101 102/128/102 53/29/53
f 102/128/102 98/129/98 89/27/89
f 99/116/99 105/122/105 108/123/108 100/121/100
f 110/119/110 109/130/109 101/120/101
f 101/120/101 109/130/109 112/124/112 102/114/102
f 114/131/113 108/123/108 105/122/105 106/115/106
f 113/132/113 109/130/109 110/119/110 114/131/113
f 111/111/111 112/124/112 109/130/109 113/132/113
f 103/117/103 113/132/113 114/131/113 106/115/106
f 104/112/104 111/111/111 113/132/113 103/117/103
f 110/119/110 107/118/107 108/123/108 114/131/113
f 51/103/51 89/27/89 98/129/98 90/104/90
