# Blender 4.3.2
# www.blender.org
mtllib 砧板mesh.mtl
o 砧板mesh
v -0.927847 0.043457 -0.430282
v -0.927847 0.093965 -0.000000
v 0.921050 0.093965 -0.253427
v -0.420923 0.093965 -0.000000
v 0.702744 0.043457 -0.613519
v 0.920723 0.093965 -0.112989
v 0.987136 0.093965 -0.091410
v 1.028182 0.093965 -0.034915
v 0.813264 0.093965 -0.034915
v 0.854309 0.093965 -0.091410
v 1.069684 0.093965 -0.205027
v 0.679699 0.093965 0.000000
v 1.161747 0.093965 -0.078313
v 0.813264 0.093965 0.000000
v 0.679699 0.093965 -0.078313
v 0.771762 0.093965 -0.205027
v 1.028182 0.093965 0.000000
v 1.161747 0.093965 0.000000
v 0.812558 0.043457 -0.613519
v 0.920723 0.043457 -0.112989
v 0.813264 0.043457 0.000000
v -0.927847 0.093965 -0.430282
v -0.927847 0.043457 -0.000000
v 0.592925 0.093965 -0.613519
v 0.086001 0.093965 0.000000
v 0.592926 0.043457 -0.613519
v 1.069684 0.043457 -0.205027
v 1.161747 0.043457 -0.078313
v 1.161747 0.043457 0.000000
v 0.592925 0.093965 -0.430282
v 0.592925 0.093965 -0.098873
v 0.854309 0.043457 -0.091410
v 0.813264 0.043457 -0.034915
v 1.028182 0.043457 -0.034915
v 0.987136 0.043457 -0.091410
v 1.028182 0.043457 0.000000
v 0.996721 0.093965 -0.315902
v 0.996721 0.043457 -0.315902
v 0.953086 0.093965 -0.433473
v 0.953086 0.043457 -0.433473
v -0.420923 0.093965 -0.098873
v 0.086001 0.093965 -0.098873
v -0.927847 0.093965 -0.098873
v -0.927847 0.043457 -0.098873
v -0.420923 0.093965 -0.430282
v 0.086001 0.093965 -0.430282
v 0.721413 0.093965 -0.270580
v 0.592925 0.093965 0.000000
v 0.845813 0.093965 -0.430281
v -0.420923 0.043457 -0.613519
v 0.086002 0.043457 -0.613519
v 0.875825 0.093965 -0.311852
v 0.812555 0.093965 -0.613519
v 0.702740 0.093965 -0.613519
v 0.712717 0.093965 -0.430281
v -0.420923 0.093965 -0.613519
v -0.927847 0.093965 -0.613519
v 0.919605 0.093965 -0.613519
v 0.086001 0.093965 -0.613519
v -0.927847 0.043457 -0.613519
v 0.919605 0.043457 -0.613519
v -0.927848 0.043457 0.430281
v 0.921050 0.093965 0.253428
v 0.702744 0.043457 0.613519
v 0.920723 0.093965 0.112989
v 0.987136 0.093965 0.091410
v 1.028182 0.093965 0.034916
v 0.813264 0.093965 0.034916
v 0.854309 0.093965 0.091410
v 1.069684 0.093965 0.205028
v 1.161747 0.093965 0.078314
v 0.679699 0.093965 0.078314
v 0.771762 0.093965 0.205027
v 0.812558 0.043457 0.613519
v 0.920723 0.043457 0.112989
v -0.927848 0.093965 0.430281
v 0.592925 0.093965 0.613519
v 0.592926 0.043457 0.613519
v 1.069684 0.043457 0.205028
v 1.161747 0.043457 0.078314
v 0.592925 0.093965 0.430282
v 0.592925 0.093965 0.098874
v 0.854309 0.043457 0.091410
v 0.813264 0.043457 0.034916
v 1.028182 0.043457 0.034916
v 0.987136 0.043457 0.091410
v 0.996721 0.093965 0.315902
v 0.996721 0.043457 0.315902
v 0.953086 0.093965 0.433474
v 0.953086 0.043457 0.433474
v -0.420923 0.093965 0.098873
v 0.086001 0.093965 0.098873
v -0.927848 0.093965 0.098873
v -0.927848 0.043457 0.098873
v -0.420924 0.093965 0.430281
v 0.086001 0.093965 0.430282
v 0.721413 0.093965 0.270580
v 0.845812 0.093965 0.430282
v -0.420923 0.043457 0.613519
v 0.086001 0.043457 0.613519
v 0.875825 0.093965 0.311852
v 0.812555 0.093965 0.613519
v 0.702740 0.093965 0.613519
v 0.712717 0.093965 0.430282
v -0.420924 0.093965 0.613519
v -0.927848 0.093965 0.613519
v 0.919605 0.093965 0.613519
v 0.086001 0.093965 0.613519
v -0.927848 0.043457 0.613519
v 0.919605 0.043457 0.613519
v -0.927848 0.000000 -0.000000
v 0.921050 0.000000 -0.253427
v -0.420923 0.000000 -0.000000
v 0.920723 0.000000 -0.112989
v 0.987136 0.000000 -0.091410
v 1.028182 0.000000 -0.034915
v 0.813264 0.000000 -0.034915
v 0.854309 0.000000 -0.091410
v 1.069684 0.000000 -0.205027
v 0.679699 0.000000 0.000000
v 1.161747 0.000000 -0.078313
v 0.813264 0.000000 0.000000
v 0.679699 0.000000 -0.078313
v 0.771762 0.000000 -0.205027
v 1.028182 0.000000 0.000000
v 1.161747 0.000000 0.000000
v -0.927847 0.000000 -0.430282
v 0.592925 0.000000 -0.613519
v 0.086001 0.000000 0.000000
v 0.592925 0.000000 -0.430282
v 0.592925 0.000000 -0.098873
v 0.996721 0.000000 -0.315902
v 0.953086 0.000000 -0.433473
v -0.420923 0.000000 -0.098873
v 0.086001 0.000000 -0.098873
v -0.927847 0.000000 -0.098873
v -0.420923 0.000000 -0.430282
v 0.086001 0.000000 -0.430282
v 0.721413 0.000000 -0.270580
v 0.592925 0.000000 0.000000
v 0.845813 0.000000 -0.430281
v 0.875826 0.000000 -0.311852
v 0.812555 0.000000 -0.613519
v 0.702740 0.000000 -0.613519
v 0.712717 0.000000 -0.430281
v -0.420923 0.000000 -0.613519
v -0.927847 0.000000 -0.613519
v 0.919605 0.000000 -0.613519
v 0.086001 0.000000 -0.613519
v 0.921050 0.000000 0.253428
v 0.920723 0.000000 0.112989
v 0.987136 0.000000 0.091410
v 1.028182 0.000000 0.034916
v 0.813264 0.000000 0.034916
v 0.854309 0.000000 0.091410
v 1.069684 0.000000 0.205028
v 1.161747 0.000000 0.078314
v 0.679699 0.000000 0.078314
v 0.771762 0.000000 0.205027
v -0.927848 0.000000 0.430281
v 0.592925 0.000000 0.613519
v 0.592925 0.000000 0.430282
v 0.592925 0.000000 0.098874
v 0.996721 0.000000 0.315903
v 0.953086 0.000000 0.433474
v -0.420923 0.000000 0.098873
v 0.086001 0.000000 0.098873
v -0.927848 0.000000 0.098873
v -0.420924 0.000000 0.430281
v 0.086001 0.000000 0.430282
v 0.721413 0.000000 0.270580
v 0.845812 0.000000 0.430282
v 0.875825 0.000000 0.311852
v 0.812555 0.000000 0.613519
v 0.702740 0.000000 0.613519
v 0.712717 0.000000 0.430282
v -0.420924 0.000000 0.613519
v -0.927848 0.000000 0.613519
v 0.919605 0.000000 0.613519
v 0.086001 0.000000 0.613519
vn -0.0000 1.0000 -0.0000
vn -0.0000 -0.0000 -1.0000
vn 0.8090 -0.0000 -0.5878
vn 1.0000 -0.0000 -0.0000
vn -1.0000 -0.0000 -0.0000
vn -0.8090 -0.0000 0.5878
vn -0.3090 -0.0000 0.9511
vn 0.3090 -0.0000 0.9511
vn 0.8090 -0.0000 0.5878
vn 0.8354 -0.0000 -0.5497
vn 0.9375 -0.0000 -0.3479
vn 0.9831 -0.0000 -0.1828
vn -0.0000 -0.0000 1.0000
vn -0.8090 -0.0000 -0.5878
vn -0.3090 -0.0000 -0.9511
vn 0.3090 -0.0000 -0.9511
vn 0.8354 -0.0000 0.5497
vn 0.9375 -0.0000 0.3479
vn 0.9831 -0.0000 0.1828
vn -0.0000 -1.0000 -0.0000
vt 0.021746 0.324164
vt 0.160729 0.361234
vt 0.067804 0.270242
vt 0.021746 0.250000
vt 0.853303 0.860785
vt 0.661068 0.740003
vt 0.720490 0.820690
vt 0.851952 0.884918
vt 0.500000 0.455793
vt 0.625000 0.455793
vt 0.625000 0.470654
vt 0.500000 0.470654
vt 0.250000 0.490000
vt 0.501582 0.670463
vt 0.330465 0.539807
vt 0.108932 0.444164
vt 0.391068 0.444164
vt 0.478254 0.324164
vt 0.900000 0.750000
vt 0.900000 1.000000
vt 0.800000 1.000000
vt 0.800000 0.750000
vt 0.750000 1.000000
vt 0.750000 0.750000
vt 0.478254 0.250000
vt 0.625000 0.485514
vt 0.500000 0.485514
vt 0.728254 0.324164
vt 0.728254 0.250000
vt 0.641068 0.444164
vt 0.850635 0.908444
vt 0.271746 0.250000
vt 0.271746 0.324164
vt 0.500000 0.490000
vt 0.358932 0.444164
vt 0.500000 0.212667
vt 0.500000 0.145145
vt 0.625000 0.145145
vt 0.625000 0.212667
vt 0.500000 0.125000
vt 0.625000 0.125000
vt 0.500000 0.250000
vt 0.625000 0.250000
vt 0.625000 0.500000
vt 0.500000 0.500000
vt 0.500000 0.387196
vt 0.625000 0.387195
vt 0.696341 0.624602
vt 0.607585 0.667381
vt 0.854654 0.836651
vt 0.860891 0.725248
vt 0.605935 0.506747
vt 0.636734 0.523911
vt 0.874737 0.605249
vt 0.875000 0.625000
vt 0.785097 0.581824
vt 0.873853 0.539045
vt 0.398731 0.442572
vt 0.336870 0.388495
vt 0.867128 0.613844
vt 0.873365 0.502441
vt 0.625000 0.318598
vt 0.500000 0.318598
s 0
f 15/1/1 31/2/1 48/3/1 12/4/1
f 54/5/1 55/6/1 49/7/1 53/8/1
f 26/9/2 24/10/2 54/11/2 5/12/2
f 3/13/1 52/14/1 47/15/1 16/16/1
f 10/16/1 6/13/1 3/13/1 16/16/1
f 7/17/1 8/18/1 13/18/1 11/17/1
f 27/19/3 11/20/3 13/21/3 28/22/3
f 14/4/1 9/1/1 15/1/1 12/4/1
f 6/13/1 7/17/1 11/17/1 3/13/1
f 9/1/1 10/16/1 16/16/1 15/1/1
f 28/22/4 13/21/4 18/23/4 29/24/4
f 8/18/1 17/25/1 18/25/1 13/18/1
f 5/12/2 54/11/2 53/26/2 19/27/2
f 17/25/5 8/18/5 34/28/5 36/29/5
f 16/16/1 47/15/1 31/2/1 15/1/1
f 8/18/6 7/17/6 35/30/6 34/28/6
f 39/20/1 58/31/1 53/8/1 49/7/1
f 9/1/4 14/4/4 21/32/4 33/33/4
f 7/17/7 6/13/7 20/34/7 35/30/7
f 6/13/8 10/16/8 32/35/8 20/34/8
f 10/16/9 9/1/9 33/33/9 32/35/9
f 11/20/10 27/19/10 38/19/10 37/20/10
f 37/20/11 38/19/11 40/19/11 39/20/11
f 40/19/12 61/19/12 58/20/12 39/20/12
f 1/36/5 44/37/5 43/38/5 22/39/5
f 55/6/1 47/15/1 52/14/1 49/7/1
f 11/17/1 37/20/1 52/14/1 3/13/1
f 44/37/5 23/40/5 2/41/5 43/38/5
f 60/42/5 1/36/5 22/39/5 57/43/5
f 19/27/2 53/26/2 58/44/2 61/45/2
f 37/20/1 39/20/1 49/7/1 52/14/1
f 51/46/2 59/47/2 24/10/2 26/9/2
f 46/48/1 30/49/1 24/50/1 59/51/1
f 24/50/1 30/49/1 55/6/1 54/5/1
f 4/52/1 41/53/1 43/54/1 2/55/1
f 30/49/1 31/2/1 47/15/1 55/6/1
f 41/53/1 45/56/1 22/57/1 43/54/1
f 31/2/1 30/49/1 46/48/1 42/58/1
f 42/58/1 46/48/1 45/56/1 41/53/1
f 48/3/1 31/2/1 42/58/1 25/59/1
f 25/59/1 42/58/1 41/53/1 4/52/1
f 22/57/1 45/56/1 56/60/1 57/61/1
f 45/56/1 46/48/1 59/51/1 56/60/1
f 60/42/2 57/43/2 56/62/2 50/63/2
f 50/63/2 56/62/2 59/47/2 51/46/2
f 72/1/1 12/4/1 48/3/1 82/2/1
f 103/5/1 102/8/1 98/7/1 104/6/1
f 78/9/13 64/12/13 103/11/13 77/10/13
f 63/13/1 73/16/1 97/15/1 101/14/1
f 69/16/1 73/16/1 63/13/1 65/13/1
f 66/17/1 70/17/1 71/18/1 67/18/1
f 79/19/9 80/22/9 71/21/9 70/20/9
f 14/4/1 12/4/1 72/1/1 68/1/1
f 65/13/1 63/13/1 70/17/1 66/17/1
f 68/1/1 72/1/1 73/16/1 69/16/1
f 80/22/4 29/24/4 18/23/4 71/21/4
f 67/18/1 71/18/1 18/25/1 17/25/1
f 64/12/13 74/27/13 102/26/13 103/11/13
f 17/25/5 36/29/5 85/28/5 67/18/5
f 73/16/1 72/1/1 82/2/1 97/15/1
f 67/18/14 85/28/14 86/30/14 66/17/14
f 89/20/1 98/7/1 102/8/1 107/31/1
f 68/1/4 84/33/4 21/32/4 14/4/4
f 66/17/15 86/30/15 75/34/15 65/13/15
f 65/13/16 75/34/16 83/35/16 69/16/16
f 69/16/3 83/35/3 84/33/3 68/1/3
f 70/20/17 87/20/17 88/19/17 79/19/17
f 87/20/18 89/20/18 90/19/18 88/19/18
f 90/19/19 89/20/19 107/20/19 110/19/19
f 62/36/5 76/39/5 93/38/5 94/37/5
f 104/6/1 98/7/1 101/14/1 97/15/1
f 70/17/1 63/13/1 101/14/1 87/20/1
f 94/37/5 93/38/5 2/41/5 23/40/5
f 109/42/5 106/43/5 76/39/5 62/36/5
f 74/27/13 110/45/13 107/44/13 102/26/13
f 87/20/1 101/14/1 98/7/1 89/20/1
f 100/46/13 78/9/13 77/10/13 108/47/13
f 96/48/1 108/51/1 77/50/1 81/49/1
f 77/50/1 103/5/1 104/6/1 81/49/1
f 4/52/1 2/55/1 93/54/1 91/53/1
f 81/49/1 104/6/1 97/15/1 82/2/1
f 91/53/1 93/54/1 76/57/1 95/56/1
f 82/2/1 92/58/1 96/48/1 81/49/1
f 92/58/1 91/53/1 95/56/1 96/48/1
f 48/3/1 25/59/1 92/58/1 82/2/1
f 25/59/1 4/52/1 91/53/1 92/58/1
f 76/57/1 106/61/1 105/60/1 95/56/1
f 95/56/1 105/60/1 108/51/1 96/48/1
f 109/42/13 99/63/13 105/62/13 106/43/13
f 99/63/13 100/46/13 108/47/13 105/62/13
f 123/1/20 120/4/20 140/3/20 131/2/20
f 144/5/20 143/8/20 141/7/20 145/6/20
f 26/9/2 5/12/2 144/11/2 128/10/2
f 112/13/20 124/16/20 139/15/20 142/14/20
f 118/16/20 124/16/20 112/13/20 114/13/20
f 115/17/20 119/17/20 121/18/20 116/18/20
f 27/19/3 28/22/3 121/21/3 119/20/3
f 122/4/20 120/4/20 123/1/20 117/1/20
f 114/13/20 112/13/20 119/17/20 115/17/20
f 117/1/20 123/1/20 124/16/20 118/16/20
f 28/22/4 29/24/4 126/23/4 121/21/4
f 116/18/20 121/18/20 126/25/20 125/25/20
f 5/12/2 19/27/2 143/26/2 144/11/2
f 125/25/5 36/29/5 34/28/5 116/18/5
f 124/16/20 123/1/20 131/2/20 139/15/20
f 116/18/6 34/28/6 35/30/6 115/17/6
f 133/20/20 141/7/20 143/8/20 148/31/20
f 117/1/4 33/33/4 21/32/4 122/4/4
f 115/17/7 35/30/7 20/34/7 114/13/7
f 114/13/8 20/34/8 32/35/8 118/16/8
f 118/16/9 32/35/9 33/33/9 117/1/9
f 119/20/10 132/20/10 38/19/10 27/19/10
f 132/20/11 133/20/11 40/19/11 38/19/11
f 40/19/12 133/20/12 148/20/12 61/19/12
f 1/36/5 127/39/5 136/38/5 44/37/5
f 145/6/20 141/7/20 142/14/20 139/15/20
f 119/17/20 112/13/20 142/14/20 132/20/20
f 44/37/5 136/38/5 111/41/5 23/40/5
f 60/42/5 147/43/5 127/39/5 1/36/5
f 19/27/2 61/45/2 148/44/2 143/26/2
f 132/20/20 142/14/20 141/7/20 133/20/20
f 51/46/2 26/9/2 128/10/2 149/47/2
f 138/48/20 149/51/20 128/50/20 130/49/20
f 128/50/20 144/5/20 145/6/20 130/49/20
f 113/52/20 111/55/20 136/54/20 134/53/20
f 130/49/20 145/6/20 139/15/20 131/2/20
f 134/53/20 136/54/20 127/57/20 137/56/20
f 131/2/20 135/58/20 138/48/20 130/49/20
f 135/58/20 134/53/20 137/56/20 138/48/20
f 140/3/20 129/59/20 135/58/20 131/2/20
f 129/59/20 113/52/20 134/53/20 135/58/20
f 127/57/20 147/61/20 146/60/20 137/56/20
f 137/56/20 146/60/20 149/51/20 138/48/20
f 60/42/2 50/63/2 146/62/2 147/43/2
f 50/63/2 51/46/2 149/47/2 146/62/2
f 158/1/20 163/2/20 140/3/20 120/4/20
f 175/5/20 176/6/20 172/7/20 174/8/20
f 78/9/13 161/10/13 175/11/13 64/12/13
f 150/13/20 173/14/20 171/15/20 159/16/20
f 155/16/20 151/13/20 150/13/20 159/16/20
f 152/17/20 153/18/20 157/18/20 156/17/20
f 79/19/9 156/20/9 157/21/9 80/22/9
f 122/4/20 154/1/20 158/1/20 120/4/20
f 151/13/20 152/17/20 156/17/20 150/13/20
f 154/1/20 155/16/20 159/16/20 158/1/20
f 80/22/4 157/21/4 126/23/4 29/24/4
f 153/18/20 125/25/20 126/25/20 157/18/20
f 64/12/13 175/11/13 174/26/13 74/27/13
f 125/25/5 153/18/5 85/28/5 36/29/5
f 159/16/20 171/15/20 163/2/20 158/1/20
f 153/18/14 152/17/14 86/30/14 85/28/14
f 165/20/20 179/31/20 174/8/20 172/7/20
f 154/1/4 122/4/4 21/32/4 84/33/4
f 152/17/15 151/13/15 75/34/15 86/30/15
f 151/13/16 155/16/16 83/35/16 75/34/16
f 155/16/3 154/1/3 84/33/3 83/35/3
f 156/20/17 79/19/17 88/19/17 164/20/17
f 164/20/18 88/19/18 90/19/18 165/20/18
f 90/19/19 110/19/19 179/20/19 165/20/19
f 62/36/5 94/37/5 168/38/5 160/39/5
f 176/6/20 171/15/20 173/14/20 172/7/20
f 156/17/20 164/20/20 173/14/20 150/13/20
f 94/37/5 23/40/5 111/41/5 168/38/5
f 109/42/5 62/36/5 160/39/5 178/43/5
f 74/27/13 174/26/13 179/44/13 110/45/13
f 164/20/20 165/20/20 172/7/20 173/14/20
f 100/46/13 180/47/13 161/10/13 78/9/13
f 170/48/20 162/49/20 161/50/20 180/51/20
f 161/50/20 162/49/20 176/6/20 175/5/20
f 113/52/20 166/53/20 168/54/20 111/55/20
f 162/49/20 163/2/20 171/15/20 176/6/20
f 166/53/20 169/56/20 160/57/20 168/54/20
f 163/2/20 162/49/20 170/48/20 167/58/20
f 167/58/20 170/48/20 169/56/20 166/53/20
f 140/3/20 163/2/20 167/58/20 129/59/20
f 129/59/20 167/58/20 166/53/20 113/52/20
f 160/57/20 169/56/20 177/60/20 178/61/20
f 169/56/20 170/48/20 180/51/20 177/60/20
f 109/42/13 178/43/13 177/62/13 99/63/13
f 99/63/13 177/62/13 180/47/13 100/46/13
