# Blender 4.3.2
# www.blender.org
mtllib 柠檬A.mtl
o 柠檬1
v 0.243829 0.276424 -0.189261
v 0.124000 0.276424 -0.256752
v 0.243829 0.143310 -0.133828
v 0.124001 0.095841 -0.181551
v -0.026130 0.080963 -0.196509
v -0.166043 0.095841 -0.181551
v -0.261257 0.138212 -0.138953
v 0.243829 0.088172 0.000000
v 0.124002 0.021042 0.000000
v -0.026129 0.000000 0.000000
v -0.166043 0.021042 0.000000
v -0.261266 0.080963 0.000000
v 0.311564 0.218338 0.058398
v 0.243829 0.143310 0.133828
v 0.124001 0.095841 0.181551
v -0.026130 0.080963 0.196509
v -0.166043 0.095841 0.181551
v -0.261257 0.138212 0.138953
v 0.311634 0.276424 0.082587
v 0.243829 0.276424 0.189261
v 0.124000 0.276424 0.256752
v -0.026130 0.276424 0.277906
v -0.166043 0.276424 0.256752
v -0.261249 0.276424 0.196509
v 0.243829 0.409538 0.133828
v 0.124001 0.457007 0.181551
v -0.026130 0.471885 0.196509
v -0.166043 0.457007 0.181551
v -0.261257 0.414636 0.138953
v 0.243829 0.464676 -0.000000
v 0.124002 0.531806 -0.000000
v -0.026130 0.552848 -0.000000
v -0.166043 0.531806 -0.000000
v -0.261266 0.471885 -0.000000
v 0.312624 0.334510 -0.058398
v 0.243829 0.409538 -0.133828
v 0.124001 0.457007 -0.181551
v -0.026130 0.471885 -0.196510
v -0.166043 0.457007 -0.181551
v -0.261257 0.414636 -0.138953
v -0.026130 0.276424 -0.277906
v -0.166043 0.276424 -0.256752
v -0.261249 0.276424 -0.196509
v -0.312929 0.191501 -0.085530
v -0.313592 0.191519 0.087136
v -0.313847 0.276424 0.122558
v -0.312812 0.362419 -0.085137
v 0.312614 0.276424 -0.082587
v 0.351208 0.287999 -0.012037
v 0.310181 0.218338 -0.058398
v 0.351208 0.292950 -0.000000
v 0.312031 0.194278 0.000000
v 0.351208 0.287999 0.012037
v 0.351208 0.276424 0.016865
v 0.351208 0.264850 0.012037
v 0.311170 0.334510 0.058398
v 0.351208 0.259898 -0.000000
v 0.311652 0.358570 -0.000000
v 0.351208 0.264850 -0.012037
v 0.351208 0.276424 -0.016865
v -0.312825 0.277013 -0.121005
v -0.313380 0.155831 0.000611
v -0.313644 0.361615 0.086892
v -0.313903 0.397931 0.000310
v -0.371195 0.276604 -0.044453
v -0.370494 0.241555 -0.029989
v -0.368776 0.226415 0.005377
v -0.367029 0.241535 0.041453
v -0.366271 0.276424 0.056277
v -0.367034 0.311482 0.041512
v -0.368756 0.327609 0.005130
v -0.370509 0.311606 -0.029802
v -0.374022 0.276561 -0.024722
v -0.373633 0.255475 -0.016068
v -0.372613 0.246210 0.005419
v -0.371533 0.255467 0.027397
v -0.371004 0.276599 0.036228
v -0.371552 0.297663 0.027499
v -0.372540 0.307491 0.005236
v -0.373673 0.297884 -0.015892
v -0.362770 0.276585 0.004941
v -0.361844 0.261365 -0.010596
v -0.362124 0.276589 -0.016837
v -0.361108 0.254673 0.004899
v -0.360329 0.261344 0.020751
v -0.359946 0.276614 0.027123
v -0.360342 0.291821 0.020839
v -0.361054 0.298907 0.004758
v -0.361873 0.291971 -0.010485
v 0.344129 0.302730 -0.026723
v 0.343931 0.313728 -0.000000
v 0.343832 0.302730 0.026723
v 0.343927 0.276424 0.037691
v 0.343912 0.250118 0.026723
v 0.344008 0.239120 -0.000000
v 0.343630 0.250118 -0.026723
v 0.344127 0.276424 -0.037691
v 0.344379 0.276424 -0.012338
v 0.344379 0.276424 -0.000000
v 0.344379 0.284923 -0.008809
v 0.344379 0.267925 0.008809
v 0.344379 0.264285 -0.000000
v 0.344379 0.288563 -0.000000
v 0.344379 0.267925 -0.008809
v 0.344379 0.284923 0.008809
v 0.344379 0.276424 0.012338
vn -0.3341 -0.0000 0.9426
vn -0.6653 -0.0000 0.7466
vn -0.6657 -0.5294 0.5260
vn -0.3334 -0.6678 0.6655
vn -0.6694 -0.5263 -0.5244
vn -0.3334 -0.6678 -0.6655
vn -0.3328 -0.9430 -0.0000
vn -0.6673 -0.7448 -0.0006
vn 0.3077 -0.0000 -0.9515
vn -0.0049 -0.0000 -1.0000
vn -0.0049 0.7083 -0.7059
vn 0.3071 0.6741 -0.6717
vn 0.6583 -0.5332 0.5313
vn 0.6597 0.0002 0.7516
vn 0.3077 -0.0000 0.9515
vn 0.3071 -0.6741 0.6717
vn 0.8318 0.0013 0.5551
vn 0.8305 0.3949 0.3929
vn 0.6588 0.5331 0.5308
vn 0.3071 0.6741 0.6717
vn 0.8303 0.5573 0.0046
vn 0.6575 0.7535 0.0008
vn -0.0049 -0.0000 1.0000
vn -0.0049 0.7083 0.7059
vn 0.3065 0.9519 -0.0000
vn 0.8319 0.3956 -0.3892
vn 0.6572 0.5345 -0.5314
vn -0.0048 1.0000 -0.0000
vn -0.3334 0.6678 0.6655
vn -0.3328 0.9430 -0.0000
vn -0.3334 0.6678 -0.6655
vn -0.6678 0.5268 -0.5258
vn -0.6655 0.7464 -0.0004
vn -0.3341 -0.0000 -0.9426
vn 0.6590 -0.0014 -0.7521
vn 0.6585 -0.5335 -0.5308
vn 0.6587 -0.7524 -0.0008
vn 0.3065 -0.9519 -0.0000
vn 0.3071 -0.6741 -0.6717
vn -0.6647 0.5296 0.5270
vn -0.0049 -0.7083 -0.7059
vn -0.0048 -1.0000 -0.0000
vn -0.0049 -0.7083 0.7059
vn -0.8021 0.4214 0.4231
vn -0.8024 -0.0000 0.5967
vn 0.8317 -0.5552 -0.0044
vn 0.8308 -0.3938 0.3934
vn -0.8106 0.4142 -0.4140
vn -0.8072 0.5903 -0.0008
vn -0.6705 -0.0001 -0.7419
vn -0.8036 -0.4211 0.4206
vn -0.8148 0.0019 -0.5798
vn 0.8330 -0.0078 -0.5532
vn 0.8286 -0.3982 -0.3935
vn -0.8081 -0.5891 -0.0005
vn -0.8124 -0.4120 -0.4127
vn -0.8868 -0.4614 0.0258
vn -0.8794 -0.3238 0.3490
vn -0.9775 0.1704 -0.1241
vn -0.9707 0.2356 0.0475
vn -0.8759 -0.0004 0.4824
vn -0.9816 0.0004 -0.1910
vn -0.8795 0.3202 0.3520
vn -0.9771 -0.1704 -0.1277
vn -0.8872 0.4607 0.0258
vn -0.9725 -0.2280 0.0484
vn -0.9004 0.0008 -0.4350
vn -0.9585 -0.0007 0.2852
vn -0.9600 -0.1705 0.2222
vn -0.8974 0.3222 -0.3013
vn -0.5914 0.8058 0.0321
vn -0.5625 0.5662 0.6025
vn -0.9613 0.1689 0.2177
vn -0.9996 -0.0010 -0.0297
vn -0.9988 -0.0002 0.0480
vn -0.9986 0.0531 -0.0051
vn -0.9986 -0.0531 -0.0075
vn -0.9960 -0.0757 0.0479
vn -0.9933 -0.0513 0.1039
vn -0.9920 -0.0007 0.1263
vn -0.9934 0.0515 0.1024
vn -0.9959 0.0770 0.0484
vn 0.8767 0.3440 -0.3362
vn 0.8725 0.4886 0.0068
vn 0.9843 -0.1763 0.0032
vn 0.9842 -0.1229 0.1275
vn 0.8704 0.3488 0.3475
vn 0.9853 -0.1200 -0.1215
vn 0.8721 0.0018 0.4894
vn 0.8722 -0.3454 0.3465
vn 0.9850 0.1219 -0.1222
vn 0.9856 0.0009 -0.1689
vn 0.8729 -0.4879 -0.0064
vn 0.8671 -0.3549 -0.3495
vn 0.9858 0.1171 0.1205
vn 0.9843 0.1762 -0.0031
vn 0.8760 -0.0114 -0.4822
vn 0.9850 -0.0055 0.1727
vn 1.0000 -0.0000 -0.0000
vn -0.8964 -0.3261 -0.3003
vn -0.5521 -0.0023 0.8338
vn 0.5465 0.5958 0.5885
vn 0.5413 0.8408 -0.0000
vn -0.5974 -0.8013 0.0330
vn -0.6191 -0.5650 -0.5454
vn -0.5605 -0.5601 0.6100
vn 0.5413 -0.8408 -0.0000
vn 0.5465 -0.5958 0.5885
vn -0.6353 0.0010 -0.7723
vn 0.5465 0.5958 -0.5885
vn 0.5518 -0.0000 -0.8340
vn -0.6194 0.5716 -0.5382
vn 0.5465 -0.5958 -0.5885
vn 0.5518 -0.0000 0.8340
vt 0.590829 0.150130
vt 0.623252 0.125042
vt 0.665806 0.165102
vt 0.638592 0.200434
vt 0.296817 0.196777
vt 0.270480 0.161396
vt 0.351169 0.109202
vt 0.366383 0.172482
vt 0.145936 0.153038
vt 0.186024 0.183180
vt 0.142892 0.241489
vt 0.099170 0.204411
vt 0.500997 0.288343
vt 0.475896 0.239188
vt 0.514285 0.209420
vt 0.550805 0.268204
vt 0.433921 0.271779
vt 0.411085 0.253302
vt 0.434495 0.202624
vt 0.466437 0.159360
vt 0.378526 0.249725
vt 0.368608 0.181306
vt 0.553777 0.178822
vt 0.509208 0.120975
vt 0.388044 0.105886
vt 0.001483 0.186125
vt 0.006749 0.114874
vt 0.039854 0.110612
vt 0.065566 0.161941
vt 0.444667 0.035525
vt 0.023466 0.260072
vt 0.081773 0.328140
vt 0.554068 0.091248
vt 0.522311 0.002336
vt 0.159972 0.358415
vt 0.187996 0.269701
vt 0.228525 0.285701
vt 0.222998 0.356424
vt 0.733278 0.192061
vt 0.716552 0.253334
vt 0.222992 0.211189
vt 0.106382 0.123589
vt 0.131427 0.073375
vt 0.135195 0.001468
vt 0.215244 0.001468
vt 0.182295 0.093267
vt 0.595134 0.073752
vt 0.230666 0.125187
vt 0.299378 0.039938
vt 0.665102 0.320100
vt 0.598617 0.236398
vt 0.582968 0.357299
vt 0.634630 0.063280
vt 0.651987 0.102828
vt 0.505219 0.357299
vt 0.441474 0.330686
vt 0.446125 0.298503
vt 0.265884 0.294559
vt 0.269452 0.340674
vt 0.254769 0.235521
vt 0.685693 0.129487
vt 0.585949 0.001474
vt 0.636564 0.013911
vt 0.283518 0.257520
vt 0.063149 0.090749
vt 0.074248 0.062470
vt 0.363011 0.223795
vt 0.316119 0.232161
vt 0.068467 0.029314
vt 0.733595 0.139844
vt 0.722478 0.089423
vt 0.701525 0.088520
vt 0.705032 0.078135
vt 0.718794 0.079090
vt 0.685308 0.077118
vt 0.694391 0.069959
vt 0.678318 0.058534
vt 0.689121 0.057627
vt 0.682665 0.037280
vt 0.692132 0.044070
vt 0.318242 0.285255
vt 0.326320 0.291435
vt 0.320878 0.303243
vt 0.310927 0.302161
vt 0.313814 0.321557
vt 0.322891 0.315468
vt 0.348497 0.291089
vt 0.339562 0.291669
vt 0.337040 0.284288
vt 0.349893 0.283791
vt 0.019840 0.011067
vt 0.019749 0.001471
vt 0.026592 0.008211
vt 0.013106 0.008386
vt 0.010071 0.001592
vt 0.008463 0.005121
vt 0.011313 0.011831
vt 0.001464 0.011883
vt 0.008589 0.018549
vt 0.001531 0.021744
vt 0.001464 0.002203
vt 0.029611 0.001471
vt 0.029145 0.084029
vt 0.013700 0.084965
vt 0.017267 0.073358
vt 0.024934 0.072365
vt 0.385938 0.279060
vt 0.401038 0.279494
vt 0.397411 0.291029
vt 0.389884 0.290389
vt 0.412859 0.287889
vt 0.418411 0.301410
vt 0.406265 0.302251
vt 0.403230 0.295532
vt 0.041474 0.045243
vt 0.045623 0.060511
vt 0.032966 0.060122
vt 0.031289 0.052605
vt 0.040793 0.074771
vt 0.030725 0.067337
vt 0.415146 0.316242
vt 0.405105 0.309726
vt 0.084297 0.005349
vt 0.080554 0.006903
vt 0.080554 0.001469
vt 0.095876 0.003141
vt 0.097480 0.007021
vt 0.092133 0.007021
vt 0.088389 0.003141
vt 0.092133 0.001586
vt 0.085900 0.001469
vt 0.076810 0.005349
vt 0.075207 0.001469
vt 0.086786 0.007021
vt 0.333448 0.274243
vt 0.353937 0.273232
vt 0.332304 0.296603
vt 0.028200 0.059883
vt 0.027029 0.054524
vt 0.699048 0.047348
vt 0.697391 0.056761
vt 0.328501 0.304392
vt 0.329486 0.312809
vt 0.017545 0.068768
vt 0.022885 0.067975
vt 0.700640 0.065124
vt 0.401580 0.302930
vt 0.399697 0.298320
vt 0.707977 0.070410
vt 0.717573 0.071191
vt 0.395656 0.295416
vt 0.400849 0.308192
vt 0.026804 0.064770
vt 0.390371 0.294886
s 1
usemtl 柠檬
f 23/1/1 24/2/2 18/3/3 17/4/4
f 7/5/5 6/6/6 11/7/7 12/8/8
f 2/9/9 41/10/10 38/11/11 37/12/12
f 14/13/13 20/14/14 21/15/15 15/16/16
f 20/14/14 19/17/17 56/18/18 25/19/19
f 20/14/14 25/19/19 26/20/20 21/15/15
f 25/19/19 56/18/18 58/21/21 30/22/22
f 22/23/23 21/15/15 26/20/20 27/24/24
f 25/19/19 30/22/22 31/25/25 26/20/20
f 30/26/22 58/27/21 35/28/26 36/29/27
f 27/24/24 26/20/20 31/25/25 32/30/28
f 30/26/22 36/29/27 37/12/12 31/31/25
f 32/32/28 31/31/25 37/12/12 38/11/11
f 28/33/29 27/24/24 32/30/28 33/34/30
f 27/24/24 28/33/29 23/1/1 22/23/23
f 33/35/30 32/32/28 38/11/11 39/36/31
f 40/37/32 34/38/33 33/35/30 39/36/31
f 18/3/3 12/39/8 11/40/7 17/4/4
f 42/41/34 39/36/31 38/11/11 41/10/10
f 36/29/27 1/42/35 2/9/9 37/12/12
f 3/43/36 8/44/37 9/45/38 4/46/39
f 29/47/40 24/2/2 23/1/1 28/33/29
f 5/48/41 4/46/39 9/45/38 10/49/42
f 17/4/4 11/40/7 10/50/42 16/51/43
f 15/16/16 16/51/43 10/50/42 9/52/38
f 24/2/2 29/47/40 63/53/44 46/54/45
f 8/55/37 52/56/46 13/57/47 14/13/13
f 19/17/17 20/14/14 14/13/13 13/57/47
f 34/38/33 40/37/32 47/58/48 64/59/49
f 43/60/50 40/37/32 39/36/31 42/41/34
f 18/3/3 24/2/2 46/54/45 45/61/51
f 29/47/40 34/62/33 64/63/49 63/53/44
f 40/37/32 43/60/50 61/64/52 47/58/48
f 1/42/35 36/29/27 35/28/26 48/65/53
f 3/43/36 1/42/35 48/65/53 50/66/54
f 7/5/5 12/8/8 62/67/55 44/68/56
f 4/46/39 2/9/9 1/42/35 3/43/36
f 42/41/34 6/6/6 7/5/5 43/60/50
f 8/55/37 14/13/13 15/16/16 9/52/38
f 43/60/50 7/5/5 44/68/56 61/64/52
f 3/43/36 50/66/54 52/69/46 8/44/37
f 21/15/15 22/23/23 16/51/43 15/16/16
f 12/39/8 18/3/3 45/61/51 62/70/55
f 5/48/41 10/49/42 11/7/7 6/6/6
f 41/10/10 2/9/9 4/46/39 5/48/41
f 41/10/10 5/48/41 6/6/6 42/41/34
f 22/23/23 23/1/1 17/4/4 16/51/43
f 33/34/30 34/62/33 29/47/40 28/33/29
f 67/71/57 68/72/58 76/73/59 75/74/60
f 68/72/58 69/75/61 77/76/62 76/73/59
f 69/75/61 70/77/63 78/78/64 77/76/62
f 70/77/63 71/79/65 79/80/66 78/78/64
f 65/81/67 73/82/68 80/83/69 72/84/70
f 71/85/65 72/84/70 80/83/69 79/86/66
f 84/87/71 82/88/72 74/89/73 75/90/60
f 83/91/74 81/92/75 89/93/76
f 82/94/77 84/95/78 81/92/75
f 85/96/79 86/97/80 81/98/75
f 87/99/81 88/100/82 81/98/75
f 86/97/80 87/99/81 81/98/75
f 82/94/77 81/92/75 83/91/74
f 84/101/78 85/96/79 81/98/75
f 88/102/82 89/93/76 81/92/75
f 90/103/83 91/104/84 51/105/85 49/106/86
f 91/107/84 92/108/87 53/109/88 51/110/85
f 93/111/89 94/112/90 55/113/91 54/114/92
f 95/115/93 96/116/94 59/117/95 57/118/96
f 96/116/94 97/119/97 60/120/98 59/117/95
f 97/119/97 90/103/83 49/106/86 60/120/98
f 94/112/90 95/121/93 57/122/96 55/113/91
f 92/108/87 93/111/89 54/114/92 53/109/88
f 104/123/99 98/124/99 99/125/99
f 101/126/99 102/127/99 99/128/99
f 105/129/99 106/130/99 99/128/99
f 102/131/99 104/123/99 99/125/99
f 106/130/99 101/126/99 99/128/99
f 100/132/99 103/133/99 99/125/99
f 103/134/99 105/129/99 99/128/99
f 99/125/99 98/124/99 100/132/99
f 75/90/60 74/89/73 66/135/100 67/136/57
f 50/66/54 48/65/53 97/119/97 96/116/94
f 92/108/87 91/107/84 58/21/21 56/18/18
f 91/104/84 90/103/83 35/28/26 58/27/21
f 65/81/67 72/84/70 47/58/48 61/64/52
f 83/137/101 73/82/68 74/89/73 82/88/72
f 66/135/100 44/68/56 62/67/55 67/136/57
f 104/138/102 102/139/103 57/118/96 59/117/95
f 79/80/66 88/140/104 87/141/105 78/78/64
f 89/142/106 88/143/104 79/86/66 80/83/69
f 51/105/85 103/144/107 100/145/108 49/106/86
f 87/141/105 86/146/109 77/76/62 78/78/64
f 55/113/91 101/147/110 106/148/111 54/114/92
f 85/149/112 84/150/71 75/74/60 76/73/59
f 106/148/111 105/151/113 53/109/88 54/114/92
f 93/111/89 19/17/17 13/57/47 94/112/90
f 67/71/57 62/70/55 45/61/51 68/72/58
f 77/76/62 86/146/109 85/149/112 76/73/59
f 71/85/65 64/59/49 47/58/48 72/84/70
f 70/77/63 63/53/44 64/63/49 71/79/65
f 55/113/91 57/122/96 102/152/103 101/147/110
f 69/75/61 46/54/45 63/53/44 70/77/63
f 98/153/114 60/120/98 49/106/86 100/145/108
f 68/72/58 45/61/51 46/54/45 69/75/61
f 105/151/113 103/154/107 51/110/85 53/109/88
f 92/108/87 56/18/18 19/17/17 93/111/89
f 52/69/46 50/66/54 96/116/94 95/115/93
f 48/65/53 35/28/26 90/103/83 97/119/97
f 13/57/47 52/56/46 95/121/93 94/112/90
f 66/135/100 65/81/67 61/64/52 44/68/56
f 65/81/67 66/135/100 74/89/73 73/82/68
f 59/117/95 60/120/98 98/153/114 104/138/102
f 73/82/68 83/137/101 89/142/106 80/83/69
