# Blender 4.3.2
# www.blender.org
mtllib èœåˆ€.mtl
o Plane.006
v -0.799690 0.027433 0.129137
v 0.382024 0.027433 0.157486
v 0.399004 0.027433 -0.040319
v 0.399126 0.027433 -0.186474
v -0.533458 0.027433 0.136027
v -0.535890 0.027433 -0.177041
v -0.636051 0.027433 -0.172602
v -0.756330 0.027433 -0.045963
v -0.721463 0.027433 -0.133286
v -0.535315 0.027433 -0.045963
v -0.639746 0.027433 0.133953
v 0.462967 0.030587 -0.046212
v 0.464285 0.030587 -0.186474
v 0.947206 0.030587 -0.046212
v 0.488884 0.030587 -0.007354
v 0.916206 0.030587 -0.186474
v 0.947678 0.030587 -0.154733
v 0.914887 0.030587 -0.003124
v -0.679538 0.027433 -0.070731
v -0.636051 0.027433 -0.027243
v -0.592563 0.027433 -0.070731
v -0.636051 0.027433 -0.114218
v -0.799690 0.054830 0.129137
v 0.382024 0.054830 0.157486
v 0.399004 0.054830 -0.040319
v 0.399126 0.054830 -0.186474
v -0.533458 0.054830 0.136027
v -0.535890 0.054830 -0.177041
v -0.636051 0.054830 -0.172602
v -0.756330 0.054830 -0.045963
v -0.721463 0.054830 -0.133286
v -0.535315 0.054830 -0.045963
v -0.639746 0.054830 0.133953
v 0.462967 0.051677 -0.046212
v 0.464285 0.051677 -0.186474
v 0.947206 0.051677 -0.046212
v 0.488884 0.051677 -0.007354
v 0.916206 0.051677 -0.186474
v 0.947678 0.051677 -0.154733
v 0.914887 0.051677 -0.003124
v -0.679538 0.054830 -0.070731
v -0.636051 0.054830 -0.027243
v -0.592563 0.054830 -0.070731
v -0.636051 0.054830 -0.114218
v 0.406988 0.015936 -0.040319
v 0.407110 0.015936 -0.186474
v 0.462967 0.015936 -0.046212
v 0.464285 0.015936 -0.186474
v 0.406988 0.066327 -0.040319
v 0.407110 0.066327 -0.186474
v 0.462967 0.066327 -0.046212
v 0.464285 0.066327 -0.186474
v 0.915163 0.082264 -0.046212
v 0.915163 0.000000 -0.046212
v 0.947442 0.030587 -0.106725
v 0.947442 0.051677 -0.106725
v 0.890861 0.082264 -0.134306
v 0.863100 0.082264 -0.106725
v 0.890444 0.082264 -0.079145
v 0.918262 0.082264 -0.106725
v 0.890444 0.000000 -0.079145
v 0.863100 0.000000 -0.106725
v 0.890861 0.000000 -0.134306
v 0.918263 0.000000 -0.106725
v 0.918262 0.072018 -0.106725
v 0.890861 0.072018 -0.134306
v 0.863100 0.072018 -0.106725
v 0.890444 0.072018 -0.079145
v 0.918263 0.010589 -0.106725
v 0.890444 0.010589 -0.079145
v 0.863100 0.010589 -0.106725
v 0.890861 0.010589 -0.134306
v 0.474321 0.000000 -0.046212
v 0.462967 0.010929 -0.046212
v 0.475492 0.000000 -0.175802
v 0.464254 0.010929 -0.186474
v 0.936209 0.000000 -0.046212
v 0.947206 0.010929 -0.046212
v 0.493559 0.000000 -0.020044
v 0.488884 0.010929 -0.007354
v 0.916206 0.010929 -0.186474
v 0.911026 0.000000 -0.175813
v 0.936667 0.000000 -0.149967
v 0.947678 0.010929 -0.154733
v 0.914981 0.000000 -0.015732
v 0.914887 0.010929 -0.003124
v 0.474321 0.082264 -0.046212
v 0.462936 0.071334 -0.046212
v 0.475492 0.082264 -0.175802
v 0.464285 0.071334 -0.186474
v 0.947206 0.071334 -0.046212
v 0.936209 0.082264 -0.046212
v 0.488884 0.071334 -0.007354
v 0.493559 0.082264 -0.020044
v 0.911026 0.082264 -0.175813
v 0.916206 0.071334 -0.186474
v 0.947678 0.071334 -0.154733
v 0.936667 0.082264 -0.149967
v 0.914887 0.071334 -0.003124
v 0.914981 0.082264 -0.015732
v 0.474935 0.000000 -0.106725
v 0.463595 0.010929 -0.106725
v 0.947442 0.010929 -0.106725
v 0.936452 0.000000 -0.106725
v 0.463595 0.071334 -0.106725
v 0.474935 0.082264 -0.106725
v 0.936452 0.082264 -0.106725
v 0.947442 0.071334 -0.106725
v 0.399065 0.027433 -0.107311
v -0.535602 0.027433 -0.107311
v 0.407049 0.015936 -0.107311
v 0.463541 0.015936 -0.107311
v 0.399065 0.054830 -0.107310
v -0.535602 0.054830 -0.107310
v 0.407049 0.066327 -0.107310
v 0.463541 0.066327 -0.107310
v 0.488884 0.066327 -0.007354
v 0.916206 0.066327 -0.186474
v 0.488884 0.015936 -0.007354
v 0.947206 0.066327 -0.046212
v 0.914887 0.066327 -0.003124
v 0.947442 0.066327 -0.106725
v 0.947678 0.066327 -0.154733
v 0.916206 0.015936 -0.186474
v 0.947206 0.015936 -0.046212
v 0.914887 0.015936 -0.003124
v 0.947442 0.015936 -0.106725
v 0.947678 0.015936 -0.154733
v 0.547946 0.082264 -0.134306
v 0.520185 0.082264 -0.106725
v 0.547529 0.082264 -0.079145
v 0.575347 0.082264 -0.106725
v 0.547529 0.000000 -0.079145
v 0.520185 0.000000 -0.106725
v 0.547946 0.000000 -0.134306
v 0.575348 0.000000 -0.106725
v 0.575347 0.072018 -0.106725
v 0.547946 0.072018 -0.134306
v 0.520185 0.072018 -0.106725
v 0.547529 0.072018 -0.079145
v 0.575348 0.010589 -0.106725
v 0.547529 0.010589 -0.079145
v 0.520185 0.010589 -0.106725
v 0.547946 0.010589 -0.134306
v 0.548156 0.030587 -0.006651
v 0.548156 0.051677 -0.006651
v 0.548324 0.000000 -0.019327
v 0.548156 0.010929 -0.006651
v 0.548156 0.071334 -0.006651
v 0.548324 0.082264 -0.019327
v 0.547633 0.000000 -0.046212
v 0.547633 0.082264 -0.046212
v 0.548156 0.066327 -0.006651
v 0.548156 0.015936 -0.006651
v 0.510977 0.010929 -0.007003
v 0.510977 0.082264 -0.019686
v 0.510977 0.082264 -0.046212
v 0.510977 0.066327 -0.007003
v 0.510977 0.030587 -0.007003
v 0.510977 0.051677 -0.007003
v 0.510977 0.000000 -0.019686
v 0.510977 0.071334 -0.007003
v 0.510977 0.000000 -0.046212
v 0.510977 0.015936 -0.007003
vn -0.0000 -1.0000 -0.0000
vn -0.0000 -0.0000 -1.0000
vn -0.0039 -0.0000 -1.0000
vn -0.0127 -0.0000 0.9999
vn -0.0159 -0.0000 0.9999
vn -0.0000 1.0000 -0.0000
vn 0.0943 0.0143 0.9954
vn 0.0938 0.0119 0.9955
vn 0.0970 0.0296 0.9948
vn 0.8000 -0.0000 0.6000
vn 0.9481 -0.0000 0.3181
vn -0.8319 -0.0000 0.5549
vn -0.7251 -0.0000 -0.6887
vn -0.9519 -0.0000 -0.3063
vn 1.0000 -0.0000 -0.0000
vn 0.9963 -0.0000 0.0855
vn 0.3846 -0.0000 -0.9231
vn -1.0000 -0.0000 -0.0000
vn -0.0248 -0.0000 0.9997
vn -0.0215 -0.0000 0.9998
vn 1.0000 -0.0000 0.0044
vn 0.9256 -0.0000 -0.3784
vn -0.7967 -0.0000 0.6044
vn -0.0000 -0.0000 1.0000
vn -0.0272 -0.0000 -0.9996
vn -0.0095 -0.0000 1.0000
vn -0.0096 -0.0000 1.0000
vn 0.0943 -0.0143 0.9954
vn 0.0938 -0.0119 0.9955
vn -0.2356 -0.0000 -0.9718
vn -0.0234 -0.0000 0.9997
vn -0.8319 -0.0013 0.5550
vn -0.8318 -0.0026 0.5551
vn -0.9999 0.0043 -0.0096
vn -0.9999 0.0059 -0.0090
vn -0.9999 0.0045 -0.0095
vn -0.9999 -0.0043 -0.0093
vn -1.0000 -0.0028 -0.0088
vn -0.9999 -0.0045 -0.0094
vn -0.8214 -0.5704 -0.0007
vn -0.8214 -0.5704 -0.0006
vn 1.0000 -0.0000 0.0094
vn 0.0970 -0.0296 0.9948
vn -0.8214 0.5704 -0.0007
vn -0.7041 -0.0000 -0.7101
vn 0.7048 -0.0000 0.7094
vn 0.7101 -0.0000 -0.7041
vn -0.7094 -0.0000 0.7048
vn -0.6939 -0.7200 -0.0064
vn -0.4087 -0.8172 -0.4064
vn -0.3960 -0.8168 -0.4195
vn -0.6570 -0.7160 0.2361
vn -0.3380 -0.7582 0.5576
vn -0.2950 -0.7635 0.5745
vn -0.6697 -0.7211 0.1776
vn 0.2523 -0.7343 -0.6302
vn 0.2661 -0.7348 -0.6240
vn 0.7051 -0.7091 0.0031
vn 0.6246 -0.7393 -0.2517
vn 0.6225 -0.7393 -0.2566
vn -0.0063 -0.7570 0.6534
vn 0.4036 -0.7053 0.5828
vn 0.2501 -0.7408 0.6235
vn 0.6943 -0.6657 0.2734
vn 0.7021 -0.6819 0.2052
vn -0.6939 0.7200 -0.0066
vn -0.3965 0.8167 -0.4194
vn -0.4086 0.8170 -0.4069
vn -0.6692 0.7216 0.1775
vn -0.2948 0.7637 0.5744
vn -0.3377 0.7584 0.5575
vn -0.6565 0.7165 0.2360
vn 0.2661 0.7348 -0.6240
vn 0.2523 0.7343 -0.6302
vn 0.7051 0.7091 0.0031
vn 0.6225 0.7393 -0.2566
vn 0.6246 0.7393 -0.2517
vn -0.0063 0.7570 0.6534
vn 0.2501 0.7408 0.6235
vn 0.4036 0.7053 0.5828
vn 0.7021 0.6819 0.2052
vn 0.6943 0.6657 0.2734
vn -0.9999 -0.0060 -0.0099
vn -0.8214 0.5704 -0.0006
vn -0.9999 0.0029 -0.0101
vn 0.5020 0.7073 -0.4977
vn 0.0035 0.5774 -0.8165
vn -0.4980 0.7069 -0.5023
vn -0.0089 0.7581 0.6521
vn -0.0090 0.7581 0.6521
vn -0.0090 -0.7581 0.6521
vn -0.0089 -0.7581 0.6521
vt 0.336616 0.216726
vt 0.337294 0.241685
vt 0.002660 0.252771
vt 0.002029 0.224432
vt 0.333842 0.129635
vt 0.336007 0.194767
vt 0.001499 0.200450
vt 0.005946 0.129501
vt 0.371908 0.129501
vt 0.371914 0.187235
vt 0.356705 0.203161
vt 0.372631 0.218370
vt 0.373112 0.239270
vt 0.429203 0.129906
vt 0.415125 0.192945
vt 0.387840 0.202444
vt 0.424661 0.085519
vt 0.446555 0.086578
vt 0.442953 0.090015
vt 0.424833 0.091192
vt 0.208620 0.341069
vt 0.200273 0.340617
vt 0.200375 0.338705
vt 0.208706 0.339213
vt 0.403363 0.224492
vt 0.336621 0.037598
vt 0.002034 0.029892
vt 0.002665 0.001553
vt 0.337299 0.012638
vt 0.333847 0.124688
vt 0.005951 0.124822
vt 0.001504 0.053873
vt 0.336012 0.059556
vt 0.371912 0.124822
vt 0.356710 0.051162
vt 0.371919 0.067088
vt 0.372636 0.035953
vt 0.429208 0.124417
vt 0.387845 0.051879
vt 0.415130 0.061378
vt 0.576589 0.026758
vt 0.553589 0.025629
vt 0.556436 0.021504
vt 0.576591 0.021513
vt 0.347895 0.311719
vt 0.365947 0.306685
vt 0.372377 0.311734
vt 0.357710 0.328766
vt 0.351495 0.325005
vt 0.348745 0.345667
vt 0.365356 0.337629
vt 0.369340 0.344312
vt 0.350814 0.352775
vt 0.373117 0.015053
vt 0.403368 0.029832
vt 0.487548 0.036087
vt 0.470823 0.036087
vt 0.470823 0.028535
vt 0.487548 0.028535
vt 0.405889 0.365495
vt 0.439557 0.365495
vt 0.439557 0.375305
vt 0.405889 0.375305
vt 0.540779 0.087569
vt 0.540779 0.065547
vt 0.550588 0.065547
vt 0.550588 0.087569
vt 0.927407 0.365495
vt 0.998495 0.365495
vt 0.998495 0.375305
vt 0.927407 0.375305
vt 0.350450 0.263683
vt 0.193125 0.263918
vt 0.193106 0.256447
vt 0.351616 0.256586
vt 0.540779 0.109590
vt 0.550588 0.109590
vt 0.561446 0.365495
vt 0.599512 0.365495
vt 0.599512 0.375305
vt 0.561446 0.375305
vt 0.379955 0.276666
vt 0.364544 0.267722
vt 0.367170 0.260788
vt 0.384125 0.268947
vt 0.504149 0.365495
vt 0.504149 0.375305
vt 0.540779 0.043526
vt 0.540779 0.021504
vt 0.550588 0.021504
vt 0.550588 0.043526
vt 0.001505 0.365495
vt 0.336322 0.365495
vt 0.336322 0.375305
vt 0.001505 0.375305
vt 0.378716 0.317981
vt 0.362524 0.333375
vt 0.361543 0.332030
vt 0.377379 0.316589
vt 0.424661 0.078432
vt 0.446555 0.077373
vt 0.222189 0.346866
vt 0.222039 0.354515
vt 0.576589 0.034310
vt 0.553589 0.035439
vt 0.372221 0.365495
vt 0.372221 0.375305
vt 0.487548 0.023289
vt 0.470823 0.023289
vt 0.470823 0.021496
vt 0.487554 0.021496
vt 0.509223 0.021572
vt 0.537779 0.021672
vt 0.537773 0.023465
vt 0.509426 0.023365
vt 0.362641 0.272105
vt 0.376778 0.281596
vt 0.375631 0.283255
vt 0.361957 0.273519
vt 0.014255 0.286506
vt 0.025419 0.296215
vt 0.017142 0.308300
vt 0.009717 0.308850
vt 0.007382 0.287127
vt 0.348895 0.275097
vt 0.359680 0.278054
vt 0.371466 0.288402
vt 0.365991 0.294084
vt 0.347935 0.291347
vt 0.386661 0.263483
vt 0.369021 0.255537
vt 0.369669 0.253658
vt 0.387492 0.261626
vt 0.209116 0.323501
vt 0.208971 0.333076
vt 0.202826 0.332769
vt 0.196071 0.323593
vt 0.019718 0.261126
vt 0.025586 0.276278
vt 0.014092 0.285153
vt 0.007414 0.284068
vt 0.009979 0.268941
vt 0.509426 0.041332
vt 0.537773 0.041332
vt 0.537773 0.043125
vt 0.509217 0.043125
vt 0.453837 0.050917
vt 0.433255 0.043591
vt 0.442075 0.021814
vt 0.462973 0.027836
vt 0.453838 0.113035
vt 0.462974 0.136116
vt 0.442075 0.142138
vt 0.433255 0.120360
vt 0.458395 0.052884
vt 0.442953 0.073936
vt 0.584839 0.021502
vt 0.584839 0.071728
vt 0.579593 0.071728
vt 0.579593 0.049849
vt 0.579593 0.021502
vt 0.576591 0.039556
vt 0.556436 0.039564
vt 0.424833 0.072759
vt 0.593084 0.021502
vt 0.593084 0.071728
vt 0.587838 0.071728
vt 0.587838 0.043380
vt 0.587838 0.021502
vt 0.458395 0.111068
vt 0.467798 0.134153
vt 0.372265 0.349420
vt 0.373300 0.351233
vt 0.352576 0.359880
vt 0.352143 0.358003
vt 0.347543 0.341042
vt 0.347139 0.339397
vt 0.349751 0.268383
vt 0.349536 0.270044
vt 0.347695 0.334332
vt 0.222015 0.359828
vt 0.222024 0.361644
vt 0.352395 0.251374
vt 0.193100 0.251266
vt 0.193101 0.249498
vt 0.352638 0.249536
vt 0.193140 0.269077
vt 0.193136 0.270994
vt 0.382787 0.322509
vt 0.388445 0.329560
vt 0.161895 0.308676
vt 0.174669 0.308381
vt 0.168409 0.317569
vt 0.162327 0.318151
vt 0.602881 0.077370
vt 0.602880 0.063344
vt 0.606672 0.063344
vt 0.606672 0.077370
vt 0.602880 0.049437
vt 0.602880 0.035425
vt 0.606672 0.035425
vt 0.606672 0.049437
vt 0.413861 0.015517
vt 0.413876 0.001505
vt 0.427782 0.001505
vt 0.427782 0.015532
vt 0.396953 0.001504
vt 0.410859 0.001519
vt 0.410859 0.015531
vt 0.396938 0.015531
vt 0.424333 0.021495
vt 0.424333 0.035402
vt 0.420664 0.035402
vt 0.420664 0.021495
vt 0.417672 0.021498
vt 0.417672 0.035419
vt 0.414003 0.035419
vt 0.414003 0.021498
vt 0.602880 0.021504
vt 0.606672 0.021504
vt 0.424333 0.049429
vt 0.420664 0.049429
vt 0.417672 0.049432
vt 0.414003 0.049432
vt 0.392168 0.334487
vt 0.393416 0.336152
vt 0.189537 0.301009
vt 0.198222 0.276683
vt 0.195721 0.301224
vt 0.190177 0.324488
vt 0.222549 0.333367
vt 0.222373 0.339707
vt 0.174612 0.286732
vt 0.172296 0.263054
vt 0.177122 0.257824
vt 0.180555 0.286472
vt 0.180391 0.309061
vt 0.171118 0.323182
vt 0.017472 0.255505
vt 0.001753 0.283028
vt 0.005013 0.265928
vt 0.148965 0.324932
vt 0.016665 0.324935
vt 0.017529 0.318916
vt 0.148778 0.318830
vt 0.004068 0.310034
vt 0.001666 0.287726
vt 0.470823 0.041332
vt 0.487548 0.041332
vt 0.487548 0.043125
vt 0.470823 0.043125
vt 0.467798 0.029798
vt 0.208426 0.346495
vt 0.200110 0.346238
vt 0.596083 0.077367
vt 0.596083 0.063340
vt 0.599875 0.063340
vt 0.599875 0.077367
vt 0.596083 0.049434
vt 0.596083 0.035422
vt 0.599875 0.035422
vt 0.599875 0.049434
vt 0.444790 0.015419
vt 0.430778 0.015405
vt 0.430778 0.001498
vt 0.444804 0.001498
vt 0.380030 0.001503
vt 0.393936 0.001517
vt 0.393936 0.015530
vt 0.380015 0.015530
vt 0.637602 0.025167
vt 0.623696 0.025167
vt 0.623696 0.021498
vt 0.637602 0.021498
vt 0.665536 0.025167
vt 0.651615 0.025167
vt 0.651615 0.021498
vt 0.665536 0.021498
vt 0.596083 0.021501
vt 0.599875 0.021501
vt 0.609669 0.025167
vt 0.609669 0.021498
vt 0.222331 0.341592
vt 0.208287 0.354327
vt 0.208243 0.359778
vt 0.162834 0.324335
vt 0.208236 0.361644
vt 0.222372 0.323624
vt 0.035439 0.286326
vt 0.138587 0.287351
vt 0.148625 0.297272
vt 0.148220 0.277658
vt 0.148799 0.309089
vt 0.158259 0.287270
vt 0.199992 0.354215
vt 0.199957 0.359717
vt 0.199946 0.361595
vt 0.222418 0.311698
vt 0.232604 0.301698
vt 0.337767 0.301537
vt 0.222780 0.291741
vt 0.212537 0.301607
s 1
usemtl èœåˆ€
f 110/1/1 6/2/1 4/3/1 109/4/1
f 5/5/1 10/6/1 3/7/1 2/8/1
f 11/9/1 20/10/1 21/11/1 10/6/1 5/5/1
f 22/12/1 7/13/1 6/2/1 110/1/1
f 1/14/1 8/15/1 19/16/1 20/10/1 11/9/1
f 35/17/2 26/18/3 50/19/2 52/20/2
f 164/21/4 119/22/5 80/23/5 155/24/4
f 8/15/1 9/25/1 7/13/1 22/12/1 19/16/1
f 114/26/6 113/27/6 26/28/6 28/29/6
f 27/30/6 24/31/6 25/32/6 32/33/6
f 33/34/6 27/30/6 32/33/6 43/35/6 42/36/6
f 44/37/6 43/35/6 32/33/6 114/26/6
f 23/38/6 33/34/6 42/36/6 41/39/6 30/40/6
f 12/41/7 3/42/8 45/43/9 47/44/9
f 61/45/1 64/46/1 104/47/1 77/48/1 54/49/1
f 18/50/10 14/51/11 36/52/11 40/53/10
f 30/40/6 41/39/6 44/37/6 29/54/6 31/55/6
f 12/56/12 15/57/12 37/58/12 34/59/12
f 9/60/13 8/61/14 30/62/14 31/63/13
f 20/64/2 19/65/15 41/66/15 42/67/2
f 2/68/16 3/69/16 25/70/16 24/71/16
f 16/72/17 13/73/2 35/74/2 38/75/17
f 21/76/18 20/64/2 42/67/2 43/77/18
f 11/78/19 5/79/20 27/80/20 33/81/19
f 55/82/21 17/83/22 39/84/22 56/85/21
f 1/86/23 11/78/19 33/81/19 23/87/23
f 22/88/24 21/89/18 43/90/18 44/91/24
f 4/92/3 6/93/25 28/94/25 26/95/3
f 17/83/22 16/72/17 38/75/17 39/84/22
f 127/96/21 125/97/11 78/98/11 103/99/21
f 13/100/2 4/101/3 26/18/3 35/17/2
f 8/61/14 1/86/23 23/87/23 30/62/14
f 145/102/26 18/50/27 40/53/27 146/103/26
f 3/42/8 12/41/7 34/104/28 25/105/29
f 6/93/25 7/106/30 29/107/30 28/94/25
f 5/79/20 2/68/31 24/71/31 27/80/20
f 7/106/30 9/60/13 31/63/13 29/107/30
f 19/65/15 22/88/24 44/91/24 41/66/15
f 51/108/32 117/109/32 93/110/33 88/111/33
f 105/112/34 90/113/35 52/114/35 116/115/36
f 128/116/22 127/117/21 103/118/21 84/119/22
f 60/120/6 59/121/6 53/122/6 92/123/6 107/124/6
f 82/125/1 83/126/1 104/127/1 64/128/1 63/129/1
f 122/130/21 123/131/22 97/132/22 108/133/21
f 163/134/1 161/135/1 79/136/1 73/137/1
f 95/138/6 57/139/6 60/140/6 107/141/6 98/142/6
f 112/143/37 48/144/38 76/145/38 102/146/39
f 111/147/1 112/148/1 47/149/1 45/150/1
f 115/151/6 49/152/6 51/153/6 116/154/6
f 109/155/40 4/101/41 46/156/41 111/147/40
f 13/157/42 12/158/42 47/159/42 112/160/42 48/161/42
f 25/105/29 34/104/28 51/162/43 49/163/43
f 4/101/3 13/100/2 48/164/2 46/156/2
f 34/165/42 35/166/42 52/167/42 116/168/42 51/169/42
f 113/170/44 25/171/44 49/152/44 115/151/44
f 120/172/11 91/173/11 99/174/10 121/175/10
f 125/97/11 126/176/10 86/177/10 78/98/11
f 124/178/17 128/116/22 84/119/22 81/179/17
f 77/48/1 85/180/1 54/49/1
f 153/181/26 121/175/27 99/174/27 149/182/26
f 118/183/17 52/184/2 90/185/2 96/186/17
f 48/187/2 124/178/17 81/179/17 76/188/2
f 14/51/11 55/189/21 56/190/21 36/52/11
f 157/191/6 87/192/6 94/193/6 156/194/6
f 64/195/45 61/196/45 70/197/45 69/198/45
f 62/199/46 63/200/46 72/201/46 71/202/46
f 123/131/22 118/183/17 96/186/17 97/132/22
f 66/203/6 67/204/6 68/205/6 65/206/6
f 70/207/1 71/208/1 72/209/1 69/210/1
f 58/211/47 59/212/47 68/213/47 67/214/47
f 60/215/48 57/216/48 66/217/48 65/218/48
f 63/200/48 64/219/48 69/220/48 72/201/48
f 61/196/47 62/199/47 71/202/47 70/197/47
f 59/212/45 60/221/45 65/222/45 68/213/45
f 57/216/46 58/223/46 67/224/46 66/217/46
f 120/172/11 122/225/21 108/226/21 91/173/11
f 102/227/49 76/188/50 75/228/51 101/229/49
f 73/137/52 79/136/53 80/23/54 74/230/55
f 82/125/56 75/228/51 76/188/50 81/179/57
f 104/127/58 83/126/59 84/119/60 103/118/58
f 83/126/59 82/125/56 81/179/57 84/119/60
f 147/231/61 85/180/62 86/177/63 148/232/61
f 85/180/62 77/48/64 78/98/65 86/177/63
f 106/233/66 89/234/67 90/235/68 105/236/66
f 88/237/69 93/238/70 94/193/71 87/192/72
f 96/239/73 90/235/68 89/234/67 95/138/74
f 108/240/75 97/241/76 98/142/77 107/141/75
f 97/241/76 96/239/73 95/138/74 98/142/77
f 149/242/78 99/243/79 100/244/80 150/245/78
f 99/243/79 91/246/81 92/123/82 100/244/80
f 74/230/55 102/227/49 101/229/49 73/137/52
f 77/48/64 104/47/58 103/99/58 78/98/65
f 87/192/72 106/233/66 105/236/66 88/237/69
f 91/246/81 108/247/75 107/124/75 92/123/82
f 119/248/12 47/249/12 74/250/12 80/251/12
f 3/252/40 109/155/40 111/147/40 45/150/40
f 10/6/1 110/1/1 109/4/1 3/7/1
f 46/156/1 48/164/1 112/148/1 111/147/1
f 47/249/83 112/143/37 102/146/39 74/250/83
f 26/18/84 113/170/44 115/151/44 50/19/84
f 32/33/6 25/32/6 113/27/6 114/26/6
f 50/19/6 115/151/6 116/154/6 52/20/6
f 88/111/85 105/112/34 116/115/36 51/108/85
f 29/54/6 44/37/6 114/26/6 28/29/6
f 21/11/1 22/12/1 110/1/1 10/6/1
f 36/52/11 56/190/21 122/225/21 120/172/11
f 39/84/22 38/75/17 118/183/17 123/131/22
f 38/75/17 35/74/2 52/184/2 118/183/17
f 146/103/26 40/53/27 121/175/27 153/181/26
f 36/52/11 120/172/11 121/175/10 40/53/10
f 56/85/21 39/84/22 123/131/22 122/130/21
f 34/59/12 37/58/12 117/109/32 51/108/32
f 15/57/12 12/56/12 47/249/12 119/248/12
f 13/73/2 16/72/17 124/178/17 48/187/2
f 16/72/17 17/83/22 128/116/22 124/178/17
f 14/51/11 18/50/10 126/176/10 125/97/11
f 17/83/22 55/82/21 127/117/21 128/116/22
f 55/189/21 14/51/11 125/97/11 127/96/21
f 159/253/4 15/254/5 119/22/5 164/21/4
f 136/255/45 133/256/45 142/257/45 141/258/45
f 134/259/46 135/260/46 144/261/46 143/262/46
f 138/263/6 139/264/86 140/265/87 137/266/88
f 142/267/1 143/268/1 144/269/1 141/270/1
f 130/271/47 131/272/47 140/273/87 139/274/86
f 132/275/48 129/276/48 138/277/48 137/278/48
f 135/260/48 136/279/48 141/280/48 144/261/48
f 133/256/47 134/259/47 143/262/47 142/257/47
f 131/272/45 132/281/45 137/282/88 140/273/87
f 129/276/46 130/271/46 139/274/46 138/277/46
f 18/50/27 145/102/26 154/283/26 126/176/27
f 160/284/4 146/103/26 153/181/26 158/285/4
f 162/286/89 149/242/78 150/245/78 156/194/90
f 161/135/91 147/231/61 148/232/61 155/24/92
f 158/285/4 153/181/26 149/182/26 162/287/4
f 54/49/1 85/180/1 147/231/1 151/288/1
f 159/253/4 145/102/26 146/103/26 160/284/4
f 126/176/27 154/283/26 148/232/26 86/177/27
f 58/289/6 132/290/6 131/291/6 59/121/6
f 57/139/6 129/292/6 132/290/6 58/289/6
f 59/121/6 131/291/6 152/293/6 53/122/6
f 106/233/6 130/294/6 129/292/6 89/234/6
f 89/234/6 129/292/6 57/139/6 95/138/6
f 130/294/6 157/191/6 152/293/6 131/291/6
f 15/254/5 159/253/4 160/284/4 37/295/5
f 117/296/5 158/285/4 162/287/4 93/297/5
f 79/136/53 161/135/91 155/24/92 80/23/54
f 93/238/70 162/286/89 156/194/90 94/193/71
f 37/295/5 160/284/4 158/285/4 117/296/5
f 145/102/26 159/253/4 164/21/4 154/283/26
f 152/293/6 157/191/6 156/194/6 150/245/6
f 151/288/1 147/231/1 161/135/1 163/134/1
f 154/283/26 164/21/4 155/24/4 148/232/26
f 106/233/6 87/192/6 157/191/6 130/294/6
f 53/122/6 152/293/6 150/245/6 100/244/6
f 61/45/1 133/298/1 136/299/1 62/300/1
f 62/300/1 136/299/1 135/301/1 63/129/1
f 61/45/1 54/49/1 151/288/1 133/298/1
f 75/228/1 82/125/1 63/129/1 135/301/1
f 75/228/1 135/301/1 134/302/1 101/229/1
f 133/298/1 151/288/1 163/134/1 134/302/1
f 73/137/1 101/229/1 134/302/1 163/134/1
f 92/123/6 53/122/6 100/244/6
